<svg width="73" height="72" viewBox="0 0 73 72" fill="none" xmlns="http://www.w3.org/2000/svg">
<path fill-rule="evenodd" clip-rule="evenodd" d="M36.6097 72C56.492 72 72.6097 55.8823 72.6097 36C72.6097 16.1177 56.492 0 36.6097 0C16.7275 0 0.609741 16.1177 0.609741 36C0.609741 55.8823 16.7275 72 36.6097 72ZM30.8774 13.1759C30.3897 12.4327 29.4864 12.0852 28.6581 12.3778C27.7146 12.7111 26.7918 13.1031 25.8952 13.5514C25.1081 13.945 24.7132 14.8439 24.8865 15.7207L25.5038 18.8445C25.6627 19.6485 25.3346 20.4645 24.7117 20.9829C23.7272 21.8022 22.8184 22.7285 22.0041 23.7537C21.498 24.3909 20.6994 24.7287 19.9109 24.5694L16.8487 23.9508C15.9884 23.777 15.1085 24.1836 14.7259 24.9888C14.5098 25.4437 14.3057 25.9081 14.1144 26.3817C13.9231 26.8554 13.7472 27.3316 13.5864 27.8098C13.302 28.6563 13.6456 29.5775 14.376 30.0726L16.9761 31.8354C17.6456 32.2893 17.9791 33.1031 17.8982 33.9192C17.768 35.2321 17.7733 36.5428 17.9062 37.832C17.9902 38.6477 17.6595 39.4627 16.9916 39.919L14.3965 41.6918C13.6682 42.1893 13.3276 43.1111 13.6144 43.9563C13.941 44.9191 14.3252 45.8607 14.7645 46.7756C15.1502 47.5788 16.0312 47.9817 16.8904 47.8049L19.9518 47.175C20.7397 47.0129 21.5394 47.3477 22.0474 47.9833C22.8503 48.9878 23.7581 49.9152 24.7628 50.7461C25.3872 51.2625 25.7183 52.0774 25.5621 52.882L24.9559 56.0068C24.7856 56.8845 25.1841 57.7824 25.9731 58.1728C26.4189 58.3934 26.874 58.6016 27.3382 58.7968C27.8024 58.992 28.2691 59.1715 28.7378 59.3355C30.1088 59.8154 32.0277 58.0978 33.4464 56.8279C34.146 56.2017 34.5775 55.3155 34.5821 54.3666C34.5821 54.3616 34.5821 54.3565 34.5821 54.3514L34.5821 49.1261C34.5821 49.0708 34.5842 49.0159 34.5884 48.9616C30.3981 47.9393 27.2828 44.0927 27.2828 39.5037V33.9551C27.2828 33.5334 27.6178 33.1915 28.0312 33.1915H30.6265V27.7323C30.6265 26.9786 31.2253 26.3675 31.964 26.3675C32.7027 26.3675 33.3015 26.9786 33.3015 27.7323V33.1915H40.3234V27.7323C40.3234 26.9786 40.9222 26.3675 41.6609 26.3675C42.3996 26.3675 42.9984 26.9786 42.9984 27.7323V33.1915H45.5938C46.0071 33.1915 46.3421 33.5334 46.3421 33.9551V39.5037C46.3421 44.2378 43.0268 48.1818 38.6359 49.05C38.6368 49.0752 38.6373 49.1006 38.6373 49.1261L38.6373 54.3289C38.6373 55.2962 39.0817 56.1985 39.8023 56.8269C41.2463 58.0862 43.1983 59.7886 44.5613 59.3071C45.5048 58.9737 46.4276 58.5817 47.3242 58.1334C48.1113 57.7399 48.5062 56.8409 48.3329 55.9642L47.7156 52.8403C47.5567 52.0363 47.8848 51.2202 48.5077 50.7019C49.4922 49.8826 50.401 48.9563 51.2153 47.9311C51.7214 47.2939 52.5199 46.9562 53.3084 47.1154L56.3707 47.7341C57.231 47.9079 58.1109 47.5012 58.4935 46.6961C58.7097 46.2412 58.9137 45.7768 59.105 45.3031C59.2963 44.8295 59.4722 44.3533 59.6329 43.8751C59.9174 43.0286 59.5738 42.1074 58.8434 41.6123L56.2432 39.8495C55.5737 39.3956 55.2403 38.5817 55.3212 37.7657C55.4513 36.4527 55.446 35.142 55.3132 33.8529C55.2292 33.0372 55.5598 32.2222 56.2278 31.7659L58.8229 29.9931C59.5512 29.4955 59.8918 28.5737 59.605 27.7286C59.2784 26.7658 58.8942 25.8241 58.4548 24.9093C58.0692 24.1061 57.1882 23.7032 56.329 23.88L53.2677 24.5099C52.4797 24.672 51.68 24.3372 51.172 23.7016C50.3691 22.6971 49.4614 21.7697 48.4566 20.9388C47.8321 20.4223 47.5011 19.6075 47.6573 18.8029L48.2635 15.6781C48.4338 14.8003 48.0353 13.9024 47.2463 13.512C46.8005 13.2915 46.3454 13.0833 45.8812 12.8881C45.417 12.6928 44.9503 12.5133 44.4817 12.3493C43.6522 12.059 42.7494 12.4097 42.2641 13.155L40.5366 15.8081C40.0918 16.4913 39.2942 16.8316 38.4945 16.749C37.2078 16.6163 35.9233 16.6216 34.6599 16.7572C33.8605 16.8429 33.0619 16.5055 32.6147 15.8239L30.8774 13.1759Z" fill="#005AE0"/>
</svg>
