<svg width="350" height="350" viewBox="0 0 350 350" fill="none" xmlns="http://www.w3.org/2000/svg">
<g clip-path="url(#clip0_3148_2108)">
<path d="M297 0.499023H53C23.7289 0.499023 0 24.1603 0 53.348V296.653C0 325.841 23.7289 349.502 53 349.502H297C326.271 349.502 350 325.841 350 296.653V53.348C350 24.1603 326.271 0.499023 297 0.499023Z" fill="url(#paint0_linear_3148_2108)"/>
<path d="M291.667 168.52L253.211 170.174L259.899 180.431L197.157 221.174L132.255 194.859L58.3334 224.804L63.4683 237.138L132.243 209.234L198.699 236.176L267.256 191.681L273.944 201.939L291.667 168.52Z" fill="white"/>
<path d="M84.5846 161.67H131.721V187.418L84.5846 206.523V161.67Z" fill="white"/>
<path d="M138.112 130.27H185.248V208.951L138.112 189.892V130.27Z" fill="white"/>
<path d="M191.639 94.7139H238.775V186.197L196.633 213.552L191.639 211.541V94.7139Z" fill="white"/>
<path d="M58.3334 292.169V260.691H71.3685C74.1527 260.691 76.5572 261.192 78.5816 262.07C80.6065 262.948 82.1251 264.202 83.2641 265.958C84.4031 267.588 84.9093 269.595 84.9093 271.978C84.9093 274.361 84.4031 276.242 83.2641 277.872C82.1251 279.502 80.6065 280.757 78.5816 281.634C76.5572 282.512 74.1527 283.014 71.3685 283.014H61.6238L64.2814 280.38V292.169H58.3334ZM64.1549 281.007L61.4972 278.248H70.9888C73.6465 278.248 75.5448 277.747 76.8103 276.618C78.0759 275.489 78.8347 273.984 78.8347 271.978C78.8347 269.971 78.2024 268.466 76.8103 267.337C75.5448 266.209 73.5199 265.707 70.9888 265.707H61.4972L64.1549 262.823V281.007ZM79.0878 292.169L71.1154 280.757H77.4431L85.5421 292.169H79.0878Z" fill="white"/>
<path d="M97.9444 292.169C96.1727 292.169 94.5275 291.918 93.1354 291.291C91.7433 290.664 90.7308 289.786 89.9715 288.783C89.2122 287.78 88.8325 286.4 88.8325 285.021C88.8325 283.641 89.2122 282.512 89.845 281.384C90.4777 280.255 91.6167 279.503 93.0088 278.875C94.5275 278.248 96.4258 277.872 98.9569 277.872H106.044V281.635H99.4631C97.5648 281.635 96.1727 281.885 95.5399 282.512C94.9071 283.14 94.5275 283.892 94.5275 284.77C94.5275 285.773 94.9071 286.651 95.793 287.153C96.5524 287.78 97.6913 288.031 99.21 288.031C100.602 288.031 101.868 287.654 103.007 287.027C104.146 286.4 104.905 285.522 105.411 284.268L106.424 287.654C105.917 289.034 104.905 290.163 103.513 290.915C102.121 291.668 100.096 292.169 97.9444 292.169ZM105.538 291.793V286.902L105.158 285.899V277.371C105.158 275.74 104.652 274.486 103.639 273.483C102.627 272.605 101.108 272.103 99.0834 272.103C97.6913 272.103 96.4258 272.354 95.0337 272.73C93.7682 273.107 92.6292 273.734 91.7433 274.486L89.4653 270.347C90.7308 269.344 92.376 268.592 94.1478 268.09C95.9196 267.588 97.8179 267.338 99.7162 267.338C103.26 267.338 105.917 268.215 107.816 269.846C109.714 271.476 110.727 274.11 110.727 277.496V291.542H105.538V291.793Z" fill="white"/>
<path d="M131.575 267.359C133.474 267.359 135.245 267.735 136.764 268.487C138.283 269.24 139.548 270.369 140.307 271.874C141.193 273.379 141.573 275.385 141.573 277.768V292.169H135.878V278.52C135.878 276.388 135.372 274.758 134.359 273.755C133.347 272.751 131.955 272.124 130.057 272.124C128.664 272.124 127.525 272.375 126.513 272.877C125.501 273.379 124.741 274.256 124.109 275.26C123.602 276.263 123.223 277.643 123.223 279.273V292.044H117.907V267.61H123.349V274.131L122.337 272.124C123.223 270.619 124.362 269.365 126.007 268.613C127.652 267.735 129.55 267.359 131.575 267.359Z" fill="white"/>
<path d="M148.913 292.169V260.627H154.608V292.169H148.913ZM153.596 286.776L153.722 279.753L166.378 268.215H173.212L162.455 278.875L159.417 281.384L153.596 286.776ZM167.264 292.169L158.405 281.384L161.948 276.869L174.098 292.169H167.264Z" fill="white"/>
<path d="M178.4 292.169V260.691H183.209L197.13 283.641H194.599L208.267 260.691H213.076V292.169H207.508V269.344H208.647L197.004 288.532H194.346L182.577 269.344H183.969V292.169H178.4Z" fill="white"/>
<path d="M228.389 292.169C226.618 292.169 224.972 291.918 223.58 291.291C222.188 290.664 221.176 289.786 220.416 288.783C219.657 287.654 219.277 286.4 219.277 285.021C219.277 283.641 219.657 282.512 220.29 281.384C220.923 280.255 222.062 279.503 223.454 278.876C224.972 278.248 226.871 277.872 229.402 277.872H236.489V281.635H229.908C228.01 281.635 226.618 281.885 225.985 282.512C225.352 283.14 224.972 283.892 224.972 284.77C224.972 285.773 225.352 286.651 226.238 287.153C226.997 287.78 228.136 288.031 229.655 288.031C231.047 288.031 232.313 287.654 233.452 287.027C234.591 286.4 235.35 285.522 235.856 284.268L236.869 287.654C236.362 289.034 235.35 290.163 233.958 290.915C232.566 291.668 230.541 292.169 228.389 292.169ZM235.983 291.793V286.902L235.603 285.899V277.371C235.603 275.74 235.097 274.486 234.084 273.483C233.072 272.605 231.553 272.103 229.528 272.103C228.136 272.103 226.871 272.354 225.479 272.73C224.213 273.107 223.074 273.734 222.188 274.486L219.91 270.347C221.176 269.344 222.821 268.592 224.593 268.09C226.365 267.588 228.263 267.338 230.161 267.338C233.705 267.338 236.362 268.215 238.261 269.846C240.159 271.476 241.171 274.11 241.171 277.496V291.542H235.983V291.793Z" fill="white"/>
<path d="M245.474 272.733V268.218H261.673V272.733H245.474ZM257.75 292.169C255.092 292.169 253.067 291.542 251.548 290.163C250.156 288.783 249.397 286.776 249.397 284.143V262.446H255.092V283.892C255.092 285.021 255.345 285.899 255.978 286.526C256.611 287.153 257.37 287.529 258.509 287.529C259.775 287.529 260.787 287.153 261.673 286.526L263.318 290.539C262.685 291.04 261.799 291.542 260.914 291.793C259.775 292.044 258.762 292.169 257.75 292.169Z" fill="white"/>
<path d="M281.669 267.965C283.567 267.965 285.339 268.341 286.858 269.093C288.376 269.846 289.642 270.975 290.401 272.479C291.287 273.984 291.667 275.991 291.667 278.374V292.169H285.972V279.126C285.972 276.994 285.466 275.364 284.453 274.361C283.441 273.357 282.049 272.73 280.15 272.73C278.758 272.73 277.619 272.981 276.607 273.483C275.594 273.984 274.835 274.862 274.202 275.866C273.696 276.869 273.316 278.248 273.316 279.879V292.044H267.621V260.627H273.316V274.611L272.051 272.605C272.937 271.1 274.076 269.846 275.721 269.093C277.619 268.341 279.518 267.965 281.669 267.965Z" fill="white"/>
<path d="M52 0H298V42C298 55.2548 287.255 66 274 66H76C62.7452 66 52 55.2548 52 42V0Z" fill="#F7D070"/>
<path d="M52 0H298V42C298 55.2548 287.255 66 274 66H76C62.7452 66 52 55.2548 52 42V0Z" fill="url(#paint1_linear_3148_2108)" fill-opacity="0.3" style="mix-blend-mode:plus-lighter"/>
<path d="M80.3719 45.5V21H85.0619L99.5169 38.64H97.2419V21H102.842V45.5H98.1869L83.6969 27.86H85.9719V45.5H80.3719ZM113.503 30.87H125.298V35.28H113.503V30.87ZM113.923 40.95H127.258V45.5H108.288V21H126.803V25.55H113.923V40.95ZM136.958 45.5L128.943 21H134.823L141.788 42.7H138.848L146.128 21H151.378L158.378 42.7H155.543L162.683 21H168.108L160.093 45.5H154.003L147.808 26.46H149.418L143.048 45.5H136.958ZM179.248 45.5V41.825L188.698 32.9C189.445 32.2233 189.993 31.6167 190.343 31.08C190.693 30.5433 190.927 30.0533 191.043 29.61C191.183 29.1667 191.253 28.7583 191.253 28.385C191.253 27.405 190.915 26.6583 190.238 26.145C189.585 25.6083 188.617 25.34 187.333 25.34C186.307 25.34 185.35 25.5383 184.463 25.935C183.6 26.3317 182.865 26.95 182.258 27.79L178.128 25.13C179.062 23.73 180.368 22.6217 182.048 21.805C183.728 20.9883 185.665 20.58 187.858 20.58C189.678 20.58 191.265 20.8833 192.618 21.49C193.995 22.0733 195.057 22.9017 195.803 23.975C196.573 25.0483 196.958 26.3317 196.958 27.825C196.958 28.6183 196.853 29.4117 196.643 30.205C196.457 30.975 196.06 31.7917 195.453 32.655C194.87 33.5183 194.007 34.4867 192.863 35.56L185.023 42.945L183.938 40.88H197.763V45.5H179.248ZM210.253 45.92C208.246 45.92 206.449 45.43 204.863 44.45C203.276 43.4467 202.028 42 201.118 40.11C200.208 38.22 199.753 35.9333 199.753 33.25C199.753 30.5667 200.208 28.28 201.118 26.39C202.028 24.5 203.276 23.065 204.863 22.085C206.449 21.0817 208.246 20.58 210.253 20.58C212.283 20.58 214.079 21.0817 215.643 22.085C217.229 23.065 218.478 24.5 219.388 26.39C220.298 28.28 220.753 30.5667 220.753 33.25C220.753 35.9333 220.298 38.22 219.388 40.11C218.478 42 217.229 43.4467 215.643 44.45C214.079 45.43 212.283 45.92 210.253 45.92ZM210.253 41.125C211.209 41.125 212.038 40.8567 212.738 40.32C213.461 39.7833 214.021 38.9317 214.418 37.765C214.838 36.5983 215.048 35.0933 215.048 33.25C215.048 31.4067 214.838 29.9017 214.418 28.735C214.021 27.5683 213.461 26.7167 212.738 26.18C212.038 25.6433 211.209 25.375 210.253 25.375C209.319 25.375 208.491 25.6433 207.768 26.18C207.068 26.7167 206.508 27.5683 206.088 28.735C205.691 29.9017 205.493 31.4067 205.493 33.25C205.493 35.0933 205.691 36.5983 206.088 37.765C206.508 38.9317 207.068 39.7833 207.768 40.32C208.491 40.8567 209.319 41.125 210.253 41.125ZM222.811 45.5V41.825L232.261 32.9C233.008 32.2233 233.556 31.6167 233.906 31.08C234.256 30.5433 234.489 30.0533 234.606 29.61C234.746 29.1667 234.816 28.7583 234.816 28.385C234.816 27.405 234.478 26.6583 233.801 26.145C233.148 25.6083 232.179 25.34 230.896 25.34C229.869 25.34 228.913 25.5383 228.026 25.935C227.163 26.3317 226.428 26.95 225.821 27.79L221.691 25.13C222.624 23.73 223.931 22.6217 225.611 21.805C227.291 20.9883 229.228 20.58 231.421 20.58C233.241 20.58 234.828 20.8833 236.181 21.49C237.558 22.0733 238.619 22.9017 239.366 23.975C240.136 25.0483 240.521 26.3317 240.521 27.825C240.521 28.6183 240.416 29.4117 240.206 30.205C240.019 30.975 239.623 31.7917 239.016 32.655C238.433 33.5183 237.569 34.4867 236.426 35.56L228.586 42.945L227.501 40.88H241.326V45.5H222.811ZM251.646 45.92C249.942 45.92 248.251 45.6983 246.571 45.255C244.914 44.7883 243.491 44.135 242.301 43.295L244.541 38.955C245.474 39.6317 246.547 40.1683 247.761 40.565C248.997 40.9617 250.246 41.16 251.506 41.16C252.929 41.16 254.049 40.88 254.866 40.32C255.682 39.76 256.091 38.9783 256.091 37.975C256.091 37.345 255.927 36.785 255.601 36.295C255.274 35.805 254.691 35.4317 253.851 35.175C253.034 34.9183 251.879 34.79 250.386 34.79H244.121L245.381 21H260.326V25.55H247.411L250.351 22.96L249.476 32.795L246.536 30.205H251.716C254.142 30.205 256.091 30.5433 257.561 31.22C259.054 31.8733 260.139 32.7717 260.816 33.915C261.492 35.0583 261.831 36.3533 261.831 37.8C261.831 39.2467 261.469 40.5883 260.746 41.825C260.022 43.0383 258.902 44.03 257.386 44.8C255.892 45.5467 253.979 45.92 251.646 45.92ZM265.321 36.995L264.236 21H270.746L269.661 36.995H265.321ZM267.491 45.78C266.511 45.78 265.706 45.465 265.076 44.835C264.446 44.205 264.131 43.4583 264.131 42.595C264.131 41.7083 264.446 40.9733 265.076 40.39C265.706 39.7833 266.511 39.48 267.491 39.48C268.494 39.48 269.299 39.7833 269.906 40.39C270.536 40.9733 270.851 41.7083 270.851 42.595C270.851 43.4583 270.536 44.205 269.906 44.835C269.299 45.465 268.494 45.78 267.491 45.78Z" fill="#3B2A00"/>
</g>
<defs>
<linearGradient id="paint0_linear_3148_2108" x1="350" y1="0.499023" x2="0.998583" y2="350.498" gradientUnits="userSpaceOnUse">
<stop stop-color="#F560FD"/>
<stop offset="1" stop-color="#232A9E"/>
</linearGradient>
<linearGradient id="paint1_linear_3148_2108" x1="298" y1="0" x2="52" y2="66" gradientUnits="userSpaceOnUse">
<stop stop-color="white" stop-opacity="0.8"/>
<stop offset="1" stop-color="white" stop-opacity="0.2"/>
</linearGradient>
<clipPath id="clip0_3148_2108">
<rect width="350" height="350" fill="white"/>
</clipPath>
</defs>
</svg>
