<?xml version="1.0" encoding="utf-8"?>
<!-- Generator: Adobe Illustrator 27.4.0, SVG Export Plug-In . SVG Version: 6.00 Build 0)  -->
<svg xmlns="http://www.w3.org/2000/svg" viewBox="0 0 275 275" xml:space="preserve">
	<linearGradient id="a" gradientUnits="userSpaceOnUse" x1="260.6509" y1="260.6508" x2="14.3492" y2="14.3491">
		<stop offset="0" stop-color="#dd3811"/>
		<stop offset=".3333" stop-color="#ffa700"/>
		<stop offset=".6667" stop-color="#0cc34b"/>
		<stop offset="1" stop-color="#007bd2"/>
	</linearGradient>
	<path d="M234.459 271.5H40.541C20.084 271.5 3.5 254.916 3.5 234.459V40.541C3.5 20.084 20.084 3.5 40.541 3.5h193.917c20.457 0 37.041 16.584 37.041 37.041v193.917c.001 20.458-16.583 37.042-37.04 37.042z" fill="url(#a)"/>
	<path d="M234.637 264.849H40.363c-16.685 0-30.211-13.526-30.211-30.211V40.363c0-16.685 13.526-30.211 30.211-30.211h194.275c16.685 0 30.211 13.526 30.211 30.211v194.275c0 16.685-13.526 30.211-30.212 30.211z"/>
	<linearGradient id="b" gradientUnits="userSpaceOnUse" x1="252.3122" y1="252.3122" x2="22.6878" y2="22.6878">
		<stop offset="0" stop-color="#661a09"/>
		<stop offset="1" stop-color="#003b66"/>
	</linearGradient>
	<path d="M232.422 20.486H42.578c-12.201 0-22.092 9.891-22.092 22.092v189.844c0 12.201 9.891 22.092 22.092 22.092h189.844c12.201 0 22.092-9.891 22.092-22.092V42.578c0-12.201-9.891-22.092-22.092-22.092z" fill="url(#b)"/>
	<g fill="#fff">
		<path d="M202.307 159.892H180.58c-.52 0-.693-.116-.693-.693v-21.727c0-.578-.173-.693-.693-.693H160.47c-.52 0-.693.116-.693.693v21.727c0 .52-.116.693-.693.693h-21.727c-.578 0-.693.173-.693.693v18.723c0 .52.116.693.693.693h21.727c.52 0 .693.116.693.693v21.727c0 .578.173.693.693.693h18.723c.52 0 .693-.116.693-.693v-21.727c0-.52.116-.693.693-.693h21.727c.578 0 .693-.173.693-.693v-18.723c.001-.52-.115-.693-.692-.693z"/>
		<path d="m200.564 96.085-26.143-23.924c-.276-.252-.637-.392-1.011-.392H79.499c-4.141 0-7.499 3.357-7.499 7.499v116.465c0 4.141 3.357 7.499 7.499 7.499h70.974v-12.944c0-.809 0-.809-.867-.809H86.562c-.867 0-.751.058-.751-.751V86.447c0-.867-.116-.809.809-.809h82.229c.404 0 .693.058.982.347l19.185 17.567c.405.347.52.693.52 1.156v45.766h12.713c.751 0 .751 0 .751-.809v-48.047c0-2.105-.884-4.113-2.436-5.533z"/>
	</g>
</svg>
