<svg xmlns="http://www.w3.org/2000/svg" viewBox="0 0 256 256" style="enable-background:new 0 0 256 256" xml:space="preserve"><defs><filter id="a" filterUnits="userSpaceOnUse" x="-81.6" y="-38.3" width="354.4" height="393.9"><feColorMatrix values="1 0 0 0 0 0 1 0 0 0 0 0 1 0 0 0 0 0 1 0"/></filter></defs><mask maskUnits="userSpaceOnUse" x="-81.6" y="-38.3" width="354.4" height="393.9" id="b"><g style="filter:url(#a)"><path style="fill:#fff" d="M0 0h256v256H0z"/></g></mask><g style="mask:url(#b)"><radialGradient id="c" cx="179.244" cy="174.731" r="264.452" gradientTransform="matrix(.8241 -.00059 -.00036 -.7607 45.977 208.76)" gradientUnits="userSpaceOnUse"><stop offset="0" style="stop-color:#fffad9"/><stop offset=".057" style="stop-color:#fff7d3"/><stop offset=".13" style="stop-color:#fdefc3"/><stop offset=".212" style="stop-color:#fbe1a9"/><stop offset=".3" style="stop-color:#f8cd84"/><stop offset=".394" style="stop-color:#f4b455"/><stop offset=".49" style="stop-color:#f0961c"/><stop offset=".504" style="stop-color:#ef9113"/><stop offset=".673" style="stop-color:#d67424"/><stop offset="1" style="stop-color:#af5417"/></radialGradient><path style="fill:url(#c)" d="M-81.6-38.3h354.4v352H-81.6z"/><path d="M155 325.6s-.6 9.8 5.1 8.6 19.1 4.5 19.1 4.5l3.4 16.8h33.7l-7.6-31.9c-.1 0-46.4-8.9-53.7 2zM227.4 324.1s-3.4 11.2 2.2 14.6l5.6 3.4-1.1 13.5h21.7v-14c0-6.5 1.7-7 0-18.7-.8-5.7-28.4 1.2-28.4 1.2z"/><radialGradient id="d" cx="99.905" cy="220.308" r="72.384" gradientTransform="matrix(1 0 0 -1 0 256)" gradientUnits="userSpaceOnUse"><stop offset="0" style="stop-color:#fffad9"/><stop offset=".002" style="stop-color:#fdf0cc"/><stop offset=".008" style="stop-color:#fad7ab"/><stop offset=".014" style="stop-color:#f6c18e"/><stop offset=".022" style="stop-color:#f4af77"/><stop offset=".03" style="stop-color:#f2a266"/><stop offset=".04" style="stop-color:#f09859"/><stop offset=".054" style="stop-color:#ef9352"/><stop offset=".086" style="stop-color:#ef9150"/><stop offset=".325" style="stop-color:#cb7232"/><stop offset=".358" style="stop-color:#bb6a2c"/><stop offset=".451" style="stop-color:#94551f"/><stop offset=".546" style="stop-color:#744414"/><stop offset=".645" style="stop-color:#5b370b"/><stop offset=".747" style="stop-color:#492d05"/><stop offset=".856" style="stop-color:#3e2801"/><stop offset=".982" style="stop-color:#3b2600"/></radialGradient><path style="fill:url(#d)" d="M187.5 78c10.6-6.8-44.2-17.3-44.2-17.3s-25.7 25.7-44.6 18.1-79.4-18.1-91.1 26.1c0 0 15.5-23.7 37.8-19.3 12.8 2.5 14.1 15.7 16 28.3h105.9c6-14.6 11.2-30.1 20.2-35.9z"/><radialGradient id="e" cx="99.905" cy="220.306" r="72.383" gradientTransform="matrix(1 0 0 -1 0 256)" gradientUnits="userSpaceOnUse"><stop offset="0" style="stop-color:#fffad9"/><stop offset=".002" style="stop-color:#fdf0cc"/><stop offset=".008" style="stop-color:#fad7ab"/><stop offset=".014" style="stop-color:#f6c18e"/><stop offset=".022" style="stop-color:#f4af77"/><stop offset=".03" style="stop-color:#f2a266"/><stop offset=".04" style="stop-color:#f09859"/><stop offset=".054" style="stop-color:#ef9352"/><stop offset=".086" style="stop-color:#ef9150"/><stop offset=".325" style="stop-color:#cb7232"/><stop offset=".368" style="stop-color:#af622b"/><stop offset=".448" style="stop-color:#814820"/><stop offset=".531" style="stop-color:#593216"/><stop offset=".615" style="stop-color:#39200e"/><stop offset=".702" style="stop-color:#201208"/><stop offset=".793" style="stop-color:#0e0803"/><stop offset=".889" style="stop-color:#030201"/><stop offset="1" style="stop-color:#000"/></radialGradient><path style="fill:url(#e)" d="M71.5 136.6c16.3 10 37.8-1.2 50.3 6s5.3 13.2 5.3 13.2 29.5-18.1 37-34.5c1.1-2.4 2.2-4.9 3.2-7.5H61.4c1.4 9.5 3.2 18.5 10.1 22.8z"/><radialGradient id="f" cx="171.768" cy="84.959" r="64.866" gradientTransform="matrix(1 0 0 -1 0 256)" gradientUnits="userSpaceOnUse"><stop offset="0" style="stop-color:#fffad9"/><stop offset=".002" style="stop-color:#fdf0cc"/><stop offset=".008" style="stop-color:#fad7ab"/><stop offset=".014" style="stop-color:#f6c18e"/><stop offset=".022" style="stop-color:#f4af77"/><stop offset=".03" style="stop-color:#f2a266"/><stop offset=".04" style="stop-color:#f09859"/><stop offset=".054" style="stop-color:#ef9352"/><stop offset=".086" style="stop-color:#ef9150"/><stop offset=".325" style="stop-color:#cb7232"/><stop offset=".358" style="stop-color:#bb6a2c"/><stop offset=".451" style="stop-color:#94551f"/><stop offset=".546" style="stop-color:#744414"/><stop offset=".645" style="stop-color:#5b370b"/><stop offset=".747" style="stop-color:#492d05"/><stop offset=".856" style="stop-color:#3e2801"/><stop offset=".982" style="stop-color:#3b2600"/></radialGradient><path style="fill:url(#f)" d="M71.5 136.6c16.3 10 37.8-1.2 50.3 6s.2 19.3.2 19.3 35.2-12.8 43.6-37.2c.9-2.5 1.9-9.8 3-12.3l-107.1.3c1.3 9.3 3.1 19.6 10 23.9z"/><path d="M250.3 329.1c-8.9 0-20-1.2-22-1.5-.3-1.1-1-4.8.8-8.5.3-.7.8-1.4 1.5-2l.1-.1v-.1c.8-2.9 1.9-10.6 1.9-10.9v-.2l-.1-.1s-2.1-3.8-2.6-5c-.4-1 .8-7 1.3-8.9.4-1.5-4.4-15.1-6.1-18.4-1.3-2.4-4.1-5.5-6.3-8-1.1-1.2-2-2.3-2.6-3.1-1-1.3-1.8-8.5-2-18.8v-.1l-.1-.1c-.3-.7-.6-1.1-.7-1.3-.1-.1-.4-.7-.7-3.9v-.1l-.1-.1c-5.5-7.5-13.1-18.1-16.9-23.7l-.7-.9-.2 1.1c-.5 2.6-1.3 7.7-1.9 12-.8 5.6 2.1 9.7 5.5 14.4.3.5.7 1 1 1.5 3.8 5.5 5.8 9.5 5.5 15.4-.2 4-3 11.6-5.2 17.7-1.1 3.1-2.1 5.8-2.5 7.3-1.2 4.7 3.4 10.3 6.1 13.6l.1.1c2.5 3.1 2.4 6.7 1.9 7.8-.4 1 .1 2.5.9 4.7.4 1 .8 2.2 1.1 3.4 1 3.8 1.4 10 1 11.1-.7.8-10 2-14.7 2h-2.1c-3.6 0-9.6.6-14.4 1l-.8.1c-.6.1-1.4.1-2.4.1-5.9 0-16.1-1.2-18.3-1.4 1.2-9.3 7.5-9.8 11.3-10 1-.1 1.7-.1 2.2-.3 2.2-1 12.3-12.5 14.4-16.5.9-1.7 1.2-5.9.8-12.5-.3-5.7-1-11.4-1.3-13.1-.5-3.4-5.1-17.4-5.3-18v-.1c0-.1-4.8-7.8-6.6-11.3-1.7-3.5-1.1-15.9-1.1-16v-.1l-3.2-7c0-.1-4-10.5-5.6-15.3s-2.8-15.1-2.8-19.7c0-1 .1-2.3.3-4.1.1-.6.1-1.2.2-1.8v-.9h-.5c-1-3.3-1-11.8-.8-13 .1-.9-.4-8.8-.7-13.4v-.2l-.1-.1c-.8-.7-1-.9-1-1-.3-.3 0-1.7.3-2.5v-.2c0-.1-.3-7.7-.1-9.8.1-1.4.6-2.6.8-3.1l.2-.4-.4-.2c-1.1-.7-.7-4.9-.1-7 .2-.6.7-1.2 1.7-1.9l.2-.1v-.1c.1-.1.3-.2.4-.2l-.3-.6c.4-3.6.8-7.7.6-8.3-.2-.6-3.7-9.1-5.8-14.1l-.3-.7-.9 1.2c-1.6 2-5.3 6.7-11.6 6.7-3.7 0-7.8-1.6-12.2-4.8h-.2c-.9-.3-1.7-.9-2.3-1.6-.3-.4-.5-.8-.5-1.1-.1-.5.5-4 1-6.6.3-2 .7-3.9.8-4.8.2-1.7.4-3.4 2.9-7l.1-.1v-.2c-.2-1.4-.7-8.6 6.1-13.2.1-.1.4-.2.4-.2l.7-.8.1-.2-.1-.2c-.3-.9-.2-2 .2-3.4.3-1 .7-2 1.4-3 .5-.8.8-1.3.8-1.3s2.3-2.9 5.7-5c.8-.6 1.7-1 2.7-1.4.8-.3 1.5-.5 2.2-.7.9-.2 1.8-.3 2.8-.3 4.4 0 8.4 1.7 9.1 2l.2.1.2-.1c4.2-2.3 10.9-4.7 12.8-5.4l.2-.1.1-.1c1.5-2.6 2.6-5.4 3.1-7.2l.1-.2-.9-1.2-.3-6.5-.2-.1c-.7-.6-1.7-1.5-2.4-2.4-1.1-1.4-.4-4.6.2-5.5.1-.1.2-.1.2-.1.2 0 .5.2.8.5l1 .9-.2-1.3c-.4-2.6-.7-4.2-.9-4.8-.3-1-.2-3.6-.2-4.5.2-2.8 4.3-6.3 4.3-6.3s2.3-1.7 6.5-2.2c.6-.1 1.3-.1 1.9-.1.5 0 1.1 0 1.6.1 6.7.6 9.2 5.9 9.4 9.3 0 1 .1 4.8.1 7.8v1.1l.8-.7c.4-.4.7-.5.9-.5 0 0 .1 0 .2.2.6 1 1.2 3.5.2 4.9-.7.9-1.3 1.8-1.7 2.5l-.1.1v.2c.2 1.1.4 2.4.6 3.4.2.9.3 1.8.4 2.2V39.9l.2.2c1.5 1.6 4.2 4.5 5.5 6.1l.2.2h.3c1.4-.2 4.9-.7 7.8-.8h.2c3.1-1.6 6.2-2.4 9.3-2.4 3.8 0 7.6 1.2 11.2 3.6.5.3.9.6 1.3.9 2.1 1.3 3.7 2.6 4.7 4 1.5 1.7 2.3 3.3 2.8 5.7.2.5.4.9.5 1.3 2.2 6.4 3.1 18.2-16.4 25.6h-.1l-.1.1c-2.3 2.9-7.9 9.8-11.6 12.9-.7.6-1.3 1.1-2 1.7-2.1 1.8-4.2 3.6-6.4 5.1h-.1v.1c-3.1 4.1-4.8 6.6-4.9 7.4v.2c0 .1 1 5.4.4 9.9v.3l.3.2c1.6.9 1.6 4.3 1 7.2l-.1.2.2.2c1.7 1.7 3.4 11.8 4 15.6v.2l.2.1c.7.5.7 2.4.6 3.3l-.2.1c.4 1.1 1.1 3 1.8 5.1 1.8 5.1 3.1 8.8 3.7 9.5 0 0 .1.1.1.2l.3.4.1-.1s0 .1.1.1c.4.6.9 1.5 1.6 2.7 1.8 2.7 5.8 9.6 6.2 14.2.3 3.7.1 4.5-.1 5.1 0 .1-.1.2-.1.4v1.1c.1 1 .5 3.8.9 7.2.9 6.7 2.1 15.8 2.7 19.9.7 4.6 2.2 8.7 3.2 11.5.5 1.4.9 2.4 1 3.1.2 1.2 1.3 4.2 2.1 6.4v.1c.3.4.6.9.9 1.3 2.7 3.1 9.4 12 9.7 14.3.2 1.7-.4 5.7-.9 9.3-.3 2.3-.7 4.5-.7 5.8-.2 3.4.8 13 1.5 15.3.7 2.4 3.3 7.7 3.9 8.4.1.1.2.3.4.6 3.4 4.8 5.3 7.8 5.5 9 .2 1.4-.1 3.3-.3 4.2-.1.6-.2 1-.2 1v.2c.1.4 2.1 8.7 2.5 10.1.2.7.2 1.1.2 1.3v.2l.1.1c-.1 5.8-.6 16.9-.4 18.4-1.8.1-1.2-6.4-5.4-6.4z"/><path d="M194.2 64.8s-18.6 10.6-9.4 31.9c0 0-6.7-1-10.1-4.2-3.5-3.2-7.2-6.7-7.2-6.7s-8.9-9.4-11.4-9.6-9.6 1-9.6 1 2-3.5 4-4.9c2-1.5 6.4-4.5 6.4-4.5l16.6-1.7 10.4-.2 10.3-1.1z"/><path d="M149.2 75.1s5.3-4 7.9-4.3c2.6-.3 14.5-1 14.5-1l-2.6-1 18.5 1.6s-6.3 8.9-5.9 11.5c.3 2.6 1.7 14.5 1.7 14.5s-9.9-3.6-12.9-7.3c-3-3.6-7.9-8.9-7.9-8.9l-6.3-4.3c-.1.2-10.9 2.2-7-.8z"/><path d="M139 76.8s-1.6-8.6 4-9.6c0 0 5.3-4.9 10.2-4.9 0 0 3-3.3 9.6-1.3l13.2 4s18.4-9 24-10.6 8.2-2.3 9.2-.3c0 0 .4 3.7-.4 3.9-9.2 2-10.5 6.7-10.5 6.7L179.8 66l-7.9-.3-15.2 2.1-4.9 3.5-4.3 2.3-1.2 3.6-7.3-.4z"/><path d="m156.2 62.9-.7-2s-6.3-2.3-1.3-2.6c4.9-.3 17.5 0 17.5 0s5.3-3.6 5.6-4.6 2.6-4 2.6-4l4.2-.8s-.2 1.6 3.2 1.2c3.4-.4 6-.2 6.7-.6.7-.5 1.9-1.9 1.9-1.9l6.4-1.9 2.6 3.3 6.6-.3-2.6 1.3s-12.9 1.3-16.2 3.6-13.2 7.9-16.8 11.2c0 0-8.9-6.6-16.2-4.9.1.1-2.5.7-3.5 3zM185.2 74.2s14.3 2.8 14.8 3 0 .7-.2.7c-11.7 0 14.1 7.1 5.8 2.3-2.3-1.3 3 4.3 3 4.3s4.6-3.1 4.5-4c-.2-.8 0-2.3.7-3s4.8-3.8 5.3-4.1c.5-.3 2.1-1.8 2.1-1.8s-7.7-2.3-7.3-3.1c.5-.8 5.8-5.8 7.6-5.9 1.8-.2 4.6-2 5.1-2.8s1-4.6 3.3-6.4c2.3-1.8 8.2-4.6 8.2-4.6s3.6 2.6 4.5 4 1.4 3.7 1.4 3.7 2.1 4 2 4.5c-.2.5-.3 7.4-2.1 10.7-1.8 3.3-7.6 8.9-10.2 9.9-2.6 1-6.8 2.6-6.8 2.6s-8.8 8.6-15.6 7.9c0 0-.8 1.6-2.6 2.1s-5.3 1.5-5.8 1.5-5.9 1.5-6.6 1.5c-.7 0-11.2.5-12.2-1-1.1-1.6-7.3-13.6 1.1-22z"/><path d="M152.2 76.1s1-1.6 3.3-2.3c2.3-.7 10.9-.8 15.2-.5s3-1.2 3-1.2l11.2 2.3s-3 6.9-3 8.6c0 1.6 0 11 2.1 13s.7.6.7.6-6.3-.9-10.1-4.2c-3.8-3.3-10.6-10.1-10.6-10.1s-4.8-4.6-5.4-5.1c-.6-.4-4.9-1.6-6.4-1.1z"/><path d="M149.6 76.6s5.4.3 7.9 2.3 8.1 7.1 8.1 7.1l1.3-2.5s-8.1-6.4-9.6-6.9-7.7 0-7.7 0zM142 76.8s.7-9.2 8.2-10.6c0 0 5.3-4.9 9.6-3.6 4.3 1.3 13.6 3.4 13.6 3.4l12.1-3.7s21.1-9.2 23.7-6.9l.7 2.3s-10.2 2.3-11.5 6.9l-6.6.3-11.9 1-17.5.7-5.6 1.2-7.9 5.4-2.5 4-4.4-.4z"/><path d="M172.5 60.9s4.9-3 6.6-4.9c1.6-2 4-6.3 4-6.3s.4.1 3.2.1c2.8-.1 7.3 0 7.3 0l2-1.7 3.2-1.5-.5 4.8s-19.5 8.1-21.6 12.1l-4.2-2.6z"/><radialGradient id="g" cx="231.729" cy="140.522" r="45.057" gradientTransform="matrix(1 0 0 -1 0 256)" gradientUnits="userSpaceOnUse"><stop offset="0" style="stop-color:#fffad9"/><stop offset=".002" style="stop-color:#fdf0cc"/><stop offset=".008" style="stop-color:#fad7ab"/><stop offset=".014" style="stop-color:#f6c18e"/><stop offset=".022" style="stop-color:#f4af77"/><stop offset=".03" style="stop-color:#f2a266"/><stop offset=".04" style="stop-color:#f09859"/><stop offset=".054" style="stop-color:#ef9352"/><stop offset=".086" style="stop-color:#ef9150"/><stop offset=".325" style="stop-color:#cb7232"/><stop offset=".368" style="stop-color:#af622b"/><stop offset=".448" style="stop-color:#814820"/><stop offset=".531" style="stop-color:#593216"/><stop offset=".615" style="stop-color:#39200e"/><stop offset=".702" style="stop-color:#201208"/><stop offset=".793" style="stop-color:#0e0803"/><stop offset=".889" style="stop-color:#030201"/><stop offset="1" style="stop-color:#000"/></radialGradient><path style="fill:url(#g)" d="M176.6 93.9c-.9-.3-1.8-.9-2.7-1.6-.6-.8-.8-1.5-.8-1.5-.1.1-.2.2-.3.4-2.2-2.1-4-4.6-4-4.6l-9.7 8.4-4.9 5.4-.2-.6-1.5 1.7s5.8 14 6.1 14.7c.2.6-.5 7-.7 8.7.4-.2.8-.5 1.2-.7v.5l7.5-2.6s15-3 15.7-3.1c.1 0 .3 0 .5-.1v-23c-1.9-.4-4.3-1.2-6.2-2z"/><radialGradient id="h" cx="125.167" cy="120.629" r="52.051" gradientTransform="matrix(1 0 0 -1 0 256)" gradientUnits="userSpaceOnUse"><stop offset="0" style="stop-color:#fffad9"/><stop offset=".002" style="stop-color:#fdf0cc"/><stop offset=".008" style="stop-color:#fad7ab"/><stop offset=".014" style="stop-color:#f6c18e"/><stop offset=".022" style="stop-color:#f4af77"/><stop offset=".03" style="stop-color:#f2a266"/><stop offset=".04" style="stop-color:#f09859"/><stop offset=".054" style="stop-color:#ef9352"/><stop offset=".086" style="stop-color:#ef9150"/><stop offset=".325" style="stop-color:#cb7232"/><stop offset=".368" style="stop-color:#af622b"/><stop offset=".448" style="stop-color:#814820"/><stop offset=".531" style="stop-color:#593216"/><stop offset=".615" style="stop-color:#39200e"/><stop offset=".702" style="stop-color:#201208"/><stop offset=".793" style="stop-color:#0e0803"/><stop offset=".889" style="stop-color:#030201"/><stop offset="1" style="stop-color:#000"/></radialGradient><path style="fill:url(#h)" d="M176.6 93.9c-.9-.3-1.8-.9-2.7-1.6-.6-.8-.8-1.5-.8-1.5-.1.1-.2.2-.3.4-2.2-2.1-4-4.6-4-4.6l-9.7 8.4-4.9 5.4-.2-.6-1.5 1.7s5.8 14 6.1 14.7c.2.6-.5 7-.7 8.7.4-.2.8-.5 1.2-.7v.5l7.5-2.6s15-3 15.7-3.1c.1 0 .3 0 .5-.1v-23c-1.9-.4-4.3-1.2-6.2-2z"/><radialGradient id="i" cx="166.92" cy="216.236" r="20.486" gradientTransform="matrix(1 0 0 -1 0 256)" gradientUnits="userSpaceOnUse"><stop offset="0" style="stop-color:#fffad9"/><stop offset=".002" style="stop-color:#fdf0cc"/><stop offset=".008" style="stop-color:#fad7ab"/><stop offset=".014" style="stop-color:#f6c18e"/><stop offset=".022" style="stop-color:#f4af77"/><stop offset=".03" style="stop-color:#f2a266"/><stop offset=".04" style="stop-color:#f09859"/><stop offset=".054" style="stop-color:#ef9352"/><stop offset=".086" style="stop-color:#ef9150"/><stop offset=".325" style="stop-color:#cb7232"/><stop offset=".368" style="stop-color:#af622b"/><stop offset=".448" style="stop-color:#814820"/><stop offset=".531" style="stop-color:#593216"/><stop offset=".615" style="stop-color:#39200e"/><stop offset=".702" style="stop-color:#201208"/><stop offset=".793" style="stop-color:#0e0803"/><stop offset=".889" style="stop-color:#030201"/><stop offset="1" style="stop-color:#000"/></radialGradient><path style="fill:url(#i)" d="M180 10.4s-4.3 3.6-4.5 6.7c0 0-.2 3.4.2 4.7.2.8.6 3.1.9 4.8-.4-.4-1.3-.9-1.8-.2-.7 1-1.4 4.5-.2 6 .7.9 1.8 1.9 2.5 2.5l.3 6.5s.3.4.9 1.1c-.5 1.6-1.5 4.5-3.1 7.1-2.4.9-13.3 4.8-15.8 7.5 0 0-1.6 1.2.2.4-4.7 3-6.4 4.9-6.4 4.9-11.1 19.6 27.2 8.9 27.2 8.9l6.4-3v-60c-4.4.3-6.8 2.1-6.8 2.1z"/><radialGradient id="j" cx="213.202" cy="223.812" r="23.766" gradientTransform="matrix(1 0 0 -1 0 256)" gradientUnits="userSpaceOnUse"><stop offset="0" style="stop-color:#fffad9"/><stop offset=".002" style="stop-color:#fdf0cc"/><stop offset=".008" style="stop-color:#fad7ab"/><stop offset=".014" style="stop-color:#f6c18e"/><stop offset=".022" style="stop-color:#f4af77"/><stop offset=".03" style="stop-color:#f2a266"/><stop offset=".04" style="stop-color:#f09859"/><stop offset=".054" style="stop-color:#ef9352"/><stop offset=".086" style="stop-color:#ef9150"/><stop offset=".325" style="stop-color:#cb7232"/><stop offset=".368" style="stop-color:#af622b"/><stop offset=".448" style="stop-color:#814820"/><stop offset=".531" style="stop-color:#593216"/><stop offset=".615" style="stop-color:#39200e"/><stop offset=".702" style="stop-color:#201208"/><stop offset=".793" style="stop-color:#0e0803"/><stop offset=".889" style="stop-color:#030201"/><stop offset="1" style="stop-color:#000"/></radialGradient><path style="fill:url(#j)" d="m210.9 56.3 2.4-5.6.4-4.5 3.2-1.6c-3.2-.2-7.8.4-9.7.7-1.4-1.7-4-4.5-5.6-6.2v-.2c-.1-1-.6-3.5-.9-5.6.4-.7 1-1.6 1.6-2.4 1.2-1.6.5-4.4-.2-5.5-.5-.8-1.4-.1-1.8.3 0-3.2-.1-6.8-.1-7.8-.1-4-3.1-9.2-9.8-9.8-1.3-.1-2.6-.1-3.7 0v60l16.5-7.8 7.7-4zm-12.5-41.8.6 1.2-.6-1.2z"/><path d="M209.8 52.6s-2.1 3.6-1.2 5.9l2-.7c-.1 0-1-2-.8-5.2z"/><radialGradient id="k" cx="195.83" cy="223.37" r="25.026" gradientTransform="matrix(1 0 0 -1 0 256)" gradientUnits="userSpaceOnUse"><stop offset="0" style="stop-color:#fffad9"/><stop offset=".012" style="stop-color:#fef6d3"/><stop offset=".028" style="stop-color:#fce9c3"/><stop offset=".045" style="stop-color:#f9d5a9"/><stop offset=".064" style="stop-color:#f5b984"/><stop offset=".084" style="stop-color:#f09555"/><stop offset=".086" style="stop-color:#ef9150"/><stop offset=".325" style="stop-color:#cb7232"/><stop offset=".368" style="stop-color:#af622b"/><stop offset=".448" style="stop-color:#814820"/><stop offset=".531" style="stop-color:#593216"/><stop offset=".615" style="stop-color:#39200e"/><stop offset=".702" style="stop-color:#201208"/><stop offset=".793" style="stop-color:#0e0803"/><stop offset=".889" style="stop-color:#030201"/><stop offset="1" style="stop-color:#000"/></radialGradient><path style="fill:url(#k)" d="M173.3 65.7s6.4-6.6 15.6-10.9c9.1-4.3 17.6-7.2 21.3-3.5 0 0-4.6 4.5-34.3 14.1l-2.6.3z"/><path d="M149.4 73s-1.5-6.9 8-12.9c0 0-8.3 1.5-10 14.2l2-1.3z"/><radialGradient id="l" cx="176.839" cy="239.539" r="55.86" gradientTransform="matrix(1 0 0 -1 0 256)" gradientUnits="userSpaceOnUse"><stop offset="0" style="stop-color:#fffad9"/><stop offset=".006" style="stop-color:#fef6d3"/><stop offset=".015" style="stop-color:#fce9c3"/><stop offset=".024" style="stop-color:#f7d5a9"/><stop offset=".034" style="stop-color:#f1b884"/><stop offset=".044" style="stop-color:#ea9455"/><stop offset=".046" style="stop-color:#e88b4a"/><stop offset=".086" style="stop-color:#ef9150"/><stop offset=".325" style="stop-color:#cb7232"/><stop offset=".368" style="stop-color:#af622b"/><stop offset=".448" style="stop-color:#814820"/><stop offset=".531" style="stop-color:#593216"/><stop offset=".615" style="stop-color:#39200e"/><stop offset=".702" style="stop-color:#201208"/><stop offset=".793" style="stop-color:#0e0803"/><stop offset=".889" style="stop-color:#030201"/><stop offset="1" style="stop-color:#000"/></radialGradient><path style="fill:url(#l)" d="M160.3 60.1s-24.1 13.8 13.6 6.7l2.7-3.3s-10.1-6.8-16.3-3.4z"/><path style="fill:#ff1f98" d="M153.5 101.2s12.4-11.1 15.7-14.1l-.9-1.1-9.6 8.4-5.2 6.8z"/><path d="M166.2 136.8c.1-.3.6 9.2.6 9.6.1.4 2.7 16 6.9 19.3 0 0-2.5.1-5.1-7.7-2.5-7.7-4-17.4-2.4-21.2zM179.2 162l3.8-3.7s8-9.4 16.9-11.7c0 0-11.6 2.5-17.5 11.1l-3.2 4.3zM209.9 147.4c.5.3 4.8 14.1 5.9 15.4 1.1 1.4 8.9 12.6 8.5 18.7-.4 6.1-.5 23.7-.4 25.3 0 0-.9-5.8-1.2-9.8-.4-3.9.6-14.4-.1-17.6-.7-3.3-8-16.1-8.4-16.8-.7-1.2-6.4-15.9-6.4-15.9l2.1.7zM205.3 157.9s.1 8.1 1.8 12.6c.4 1 .9 1.9 1.5 2.4 0 0-7.3-9-3.3-15zM210.9 177.8c-.3-.5 14.8 20.6 10.2 42.3 0 0 .7-24.1-10.2-42.3zM191.8 182.5s6.6 16.8 7.1 21.3 2.6 14.3 5.3 16.1c2.6 1.8 7.1 5.4 7.1 5.4s-8.6-3.1-10.1-7.6-3.1-13.4-3.6-15c-.5-1.6-5.8-20.2-5.8-20.2zM214.5 201.1s4.3 19.3 3.8 21.5c0 0 1.2-13-3.8-21.5zM156.3 150.7s1 13.5.8 14.7-.2 11.4 1.2 14l1.2-5.5s-1.4-4.5-1.2-6.5-.2-14.3-.2-14.3l-1.8-2.4zM167.5 316.2s6.2.8 9.9 4.6c0 0-5.4-6.8-7.7-6.2-2.2.5-2.2 1.6-2.2 1.6zM237.7 312.9s-6.9 1.4-9.2 6c-2.2 4.6-.8 9.2-.8 9.2s20.1 4.7 27.5 2.2c0 0 1.2-9.9.2-15.2l-4.2-1.9s3 2.7 3.5 4.3c.5 1.6 2.7 8.1 2.7 8.1s2.2 2.4-27.7 0c.1.1-1.6-8.9 8-12.7z"/><path d="M239.6 312s7.2-1.2 10.3 1.5c0 0-1.9-4.9-10.3-1.5zM204.8 160l2.2-2-2.2 5.2zM205.5 165.7l2.8-6.2-3.7 5.2zM205.5 168.1l3-5.2-1.7 6.7zM193.7 212.1l-2.5 4.9 2.2-2.4zM180.2 178.2l2.5 1 1 2.3zM181.9 186l3.3 3.2 1.6 5.4zM183.9 192.9l4.6 4.6 1.3 5z"/><path d="m185.8 199.4 5.5 6.8 2.5 5.2.1 2zM188.7 207.2l5.1 8.5-.9 2.4z"/><path style="fill:#ff1f98" d="m142.5 74.2 2.4 2.1h1zM144.9 73.7l2.2 2.1.3-1.4zM141.3 75.6l1 1 1.2-.3z"/><radialGradient id="m" cx="249.025" cy="159.317" r="40.382" gradientTransform="matrix(1 0 0 -1 0 256)" gradientUnits="userSpaceOnUse"><stop offset="0" style="stop-color:#fffad9"/><stop offset=".002" style="stop-color:#fdf0cc"/><stop offset=".008" style="stop-color:#fad7ab"/><stop offset=".014" style="stop-color:#f6c18e"/><stop offset=".022" style="stop-color:#f4af77"/><stop offset=".03" style="stop-color:#f2a266"/><stop offset=".04" style="stop-color:#f09859"/><stop offset=".054" style="stop-color:#ef9352"/><stop offset=".086" style="stop-color:#ef9150"/><stop offset=".325" style="stop-color:#cb7232"/><stop offset=".368" style="stop-color:#af622b"/><stop offset=".448" style="stop-color:#814820"/><stop offset=".531" style="stop-color:#593216"/><stop offset=".615" style="stop-color:#39200e"/><stop offset=".702" style="stop-color:#201208"/><stop offset=".793" style="stop-color:#0e0803"/><stop offset=".889" style="stop-color:#030201"/><stop offset="1" style="stop-color:#000"/></radialGradient><path style="fill:url(#m)" d="M245.6 57.9c-.2-.5-.3-.9-.5-1.4-.5-1.1-.9-1.9-1.2-2.4-1-4.2-5-6.8-8.9-8.8-.9-.8-2.1-1.4-3.7-1.6-4.6-1.6-7.9-1.2-12.1-.5-2.5.4-4.4 1.5-5.8 2.6-.8.6-1.5 1.2-2 2-.2.2-.2.3-.2.3h.1c-2.1 3.4-1.5 8.1-1.3 9.2-4-.1-6.8.5-14.5 6.9l-1.4.2-14.5 1.3c-7.6 0-13.2-.4-18.7 1.3-7.7 2.5-13.6 8.6-13.6 8.6l2.5.8s4.1-.5 7.5.3c2.7 2.1 8.4 6.9 9.9 9.4 1.9 3.1 7.3 7.5 7.3 7.5 18.7 9.3 32.3 1.7 32.3 1.7 1.1-.1 2.7-1.1 4.1-2.3 7.7-1 12.5-4.6 15.4-8.1.1-.1.2-.1.3-.2 22.3-7.2 21.3-20.1 19-26.8zm-11.9 22.6c-.2.1-.5.3-.7.4.2-.2.5-.3.7-.4zm-59.1 11.3c2.1 1.2 4.1 2.3 6 3.1-1.8-.6-3.2-1.2-3.8-1.5-.7-.4-1.4-.9-2.2-1.6z"/><radialGradient id="n" cx="163.849" cy="133.007" r="26.44" gradientTransform="matrix(1 0 0 -1 0 256)" gradientUnits="userSpaceOnUse"><stop offset="0" style="stop-color:#fffad9"/><stop offset=".002" style="stop-color:#fdf0cc"/><stop offset=".008" style="stop-color:#fad7ab"/><stop offset=".014" style="stop-color:#f6c18e"/><stop offset=".022" style="stop-color:#f4af77"/><stop offset=".03" style="stop-color:#f2a266"/><stop offset=".04" style="stop-color:#f09859"/><stop offset=".054" style="stop-color:#ef9352"/><stop offset=".086" style="stop-color:#ef9150"/><stop offset=".325" style="stop-color:#cb7232"/><stop offset=".368" style="stop-color:#af622b"/><stop offset=".448" style="stop-color:#814820"/><stop offset=".531" style="stop-color:#593216"/><stop offset=".615" style="stop-color:#39200e"/><stop offset=".702" style="stop-color:#201208"/><stop offset=".793" style="stop-color:#0e0803"/><stop offset=".889" style="stop-color:#030201"/><stop offset="1" style="stop-color:#000"/></radialGradient><path style="fill:url(#n)" d="M169.1 80c-.7-1.1-8-3.3-12.1-3.8l-.7-.5s-1-.1-2.7-.1c-2.7-.9-4.7-2.5-4.7-2.5s-.7-2.4.5-4 6-7.2 8.8-9.6c1.9-1.6 2.7-3 3-3.8l1.3-.8s-10.8-4.7-17.7.4c-6.7 4.9-8.8 8.9-8.1 13 3.9-.9 7.5-1.5 7.5-.4 0 2.3-.5 12.8-2 14.9-1.5 2-6.8 9.5-7.2 10.4-.3.7-6.4 6.8-9.6 9.8.5.7 1.4 1.4 2.5 1.8 14.8 10.9 22.3.7 24.6-2.2.3-.4.7-.9 1.1-1.4 2-1.4 16.5-11.7 19.1-14 2.8-2.4-2.8-6-3.6-7.2z"/><radialGradient id="o" cx="178.958" cy="213.081" r="34.06" gradientTransform="matrix(1 0 0 -1 0 256)" gradientUnits="userSpaceOnUse"><stop offset="0" style="stop-color:#fffad9"/><stop offset=".012" style="stop-color:#fef6d3"/><stop offset=".028" style="stop-color:#fce9c3"/><stop offset=".045" style="stop-color:#f9d5a9"/><stop offset=".064" style="stop-color:#f5b984"/><stop offset=".084" style="stop-color:#f09555"/><stop offset=".086" style="stop-color:#ef9150"/><stop offset=".325" style="stop-color:#cb7232"/><stop offset=".368" style="stop-color:#af622b"/><stop offset=".448" style="stop-color:#814820"/><stop offset=".531" style="stop-color:#593216"/><stop offset=".615" style="stop-color:#39200e"/><stop offset=".702" style="stop-color:#201208"/><stop offset=".793" style="stop-color:#0e0803"/><stop offset=".889" style="stop-color:#030201"/><stop offset="1" style="stop-color:#000"/></radialGradient><path style="fill:url(#o)" d="M191.4 64.1c-2.7.3-6.2 1.4-9 1.8-5.7 0-24.1-.6-27.2 1.9-3.7 3-8.8 6.3-9.2 7.9l1.9.1s-.6-.7 2.2-2.7 5.7-4.7 6.4-4.9c.7-.2-1.7 2.5 7.2 2.6-2.8.5-6.4 3.6-.9 1.1 0 0 17.8 1.3 22.7.7 4.9-.6 6.7-7.2 9.8-6.5 3.1.6 10.5 3.3 13.5 5.6.1-.1-7.8-8.7-17.4-7.6z"/><radialGradient id="p" cx="143.227" cy="209.651" r="17.405" gradientTransform="matrix(1 0 0 -1 0 256)" gradientUnits="userSpaceOnUse"><stop offset="0" style="stop-color:#fffad9"/><stop offset=".002" style="stop-color:#fdf0cc"/><stop offset=".008" style="stop-color:#fad7ab"/><stop offset=".014" style="stop-color:#f6c18e"/><stop offset=".022" style="stop-color:#f4af77"/><stop offset=".03" style="stop-color:#f2a266"/><stop offset=".04" style="stop-color:#f09859"/><stop offset=".054" style="stop-color:#ef9352"/><stop offset=".086" style="stop-color:#ef9150"/><stop offset=".325" style="stop-color:#cb7232"/><stop offset=".368" style="stop-color:#af622b"/><stop offset=".448" style="stop-color:#814820"/><stop offset=".531" style="stop-color:#593216"/><stop offset=".615" style="stop-color:#39200e"/><stop offset=".702" style="stop-color:#201208"/><stop offset=".793" style="stop-color:#0e0803"/><stop offset=".889" style="stop-color:#030201"/><stop offset="1" style="stop-color:#000"/></radialGradient><path style="fill:url(#p)" d="M162.5 55s-6.4-3-12.4-1.9c-6.2 1.2-10.9 7.2-10.9 7.2s-3.6 4.7-2.5 8.1c0 0 5.3-4.2 7.3-5 2-.8 12.1-4.5 18.5-8.4z"/><radialGradient id="q" cx="225.201" cy="229.519" r="31.058" gradientTransform="matrix(1 0 0 -1 0 256)" gradientUnits="userSpaceOnUse"><stop offset="0" style="stop-color:#fffad9"/><stop offset=".002" style="stop-color:#fdf0cc"/><stop offset=".008" style="stop-color:#fad7ab"/><stop offset=".014" style="stop-color:#f6c18e"/><stop offset=".022" style="stop-color:#f4af77"/><stop offset=".03" style="stop-color:#f2a266"/><stop offset=".04" style="stop-color:#f09859"/><stop offset=".054" style="stop-color:#ef9352"/><stop offset=".086" style="stop-color:#ef9150"/><stop offset=".325" style="stop-color:#cb7232"/><stop offset=".368" style="stop-color:#af622b"/><stop offset=".448" style="stop-color:#814820"/><stop offset=".531" style="stop-color:#593216"/><stop offset=".615" style="stop-color:#39200e"/><stop offset=".702" style="stop-color:#201208"/><stop offset=".793" style="stop-color:#0e0803"/><stop offset=".889" style="stop-color:#030201"/><stop offset="1" style="stop-color:#000"/></radialGradient><path style="fill:url(#q)" d="M209.8 61.6s-4.4-11.4 4-16.3 16.1-3.5 22.2.5c6.2 4 8.1 6.6 9 10.8 0-.1-13 11.6-35.2 5z"/><radialGradient id="r" cx="234.226" cy="142.098" r="46.476" gradientTransform="matrix(1 0 0 -1 0 256)" gradientUnits="userSpaceOnUse"><stop offset="0" style="stop-color:#fffad9"/><stop offset=".002" style="stop-color:#fdf0cc"/><stop offset=".008" style="stop-color:#fad7ab"/><stop offset=".014" style="stop-color:#f6c18e"/><stop offset=".022" style="stop-color:#f4af77"/><stop offset=".03" style="stop-color:#f2a266"/><stop offset=".04" style="stop-color:#f09859"/><stop offset=".054" style="stop-color:#ef9352"/><stop offset=".086" style="stop-color:#ef9150"/><stop offset=".325" style="stop-color:#cb7232"/><stop offset=".368" style="stop-color:#af622b"/><stop offset=".448" style="stop-color:#814820"/><stop offset=".531" style="stop-color:#593216"/><stop offset=".615" style="stop-color:#39200e"/><stop offset=".702" style="stop-color:#201208"/><stop offset=".793" style="stop-color:#0e0803"/><stop offset=".889" style="stop-color:#030201"/><stop offset="1" style="stop-color:#000"/></radialGradient><path style="fill:url(#r)" d="m226.7 84.3.1-.2-.7.5c-1 .5-2.2 1.2-2.6 1.9l-2.2 1.6-7.2 2-4.4 2.8s-6 1.6-19.7 4c-.3.1-.6.1-.9.1-1.8 0-3.1.1-3.1.1s-1.4-.4-3.3-1v23c.8-.1 2.2-.2 3.8-.3l2.2 1.8 14.5.4s0-.2.1-.5l1.1.6c.6-4.6-.4-10-.4-10 .1-1 3.4-5.4 4.8-7.2 2.9-2.1 5.6-4.5 8.4-6.9 4.7-3.9 12.5-14.1 12.5-14.1s-2.6 1.1-3 1.4z"/><radialGradient id="s" cx="221.303" cy="128.104" r="31.87" gradientTransform="matrix(1 0 0 -1 0 256)" gradientUnits="userSpaceOnUse"><stop offset="0" style="stop-color:#fffad9"/><stop offset=".003" style="stop-color:#fdebc6"/><stop offset=".008" style="stop-color:#f9d3a7"/><stop offset=".013" style="stop-color:#f6bf8b"/><stop offset=".02" style="stop-color:#f3ae75"/><stop offset=".027" style="stop-color:#f1a164"/><stop offset=".037" style="stop-color:#f09859"/><stop offset=".05" style="stop-color:#ef9252"/><stop offset=".086" style="stop-color:#ef9150"/><stop offset=".325" style="stop-color:#cb7232"/><stop offset=".368" style="stop-color:#af622b"/><stop offset=".448" style="stop-color:#814820"/><stop offset=".531" style="stop-color:#593216"/><stop offset=".615" style="stop-color:#39200e"/><stop offset=".702" style="stop-color:#201208"/><stop offset=".793" style="stop-color:#0e0803"/><stop offset=".889" style="stop-color:#030201"/><stop offset="1" style="stop-color:#000"/></radialGradient><path style="fill:url(#s)" d="M175.7 119.8c-4.6 1-9.9 2.5-16 4.5v-.2c-.6.3-1.3.6-1.8 1v.1c-.7.5-1.6 1.3-1.8 2.1-.4 1.5-1.4 6.5.3 7.5-.3.6-.7 1.8-.9 3.3-.2 2.2.1 9.9.1 9.9s-.8 2.2-.2 3c.5.6 5.2 4.6 6.6 5.8.2.2.5.6.9 1.1 1 1.4 3.2 4.5 4.6 5.6.2.2.5.4.8.7 2 1.7 5.3 4.8 9.3 4.6 0 0 .2-.5.8-1.5v-47.5h-2.7z"/><radialGradient id="t" cx="133.71" cy="116.859" r="36.342" gradientTransform="matrix(1 0 0 -1 0 256)" gradientUnits="userSpaceOnUse"><stop offset="0" style="stop-color:#fffad9"/><stop offset=".003" style="stop-color:#fdebc6"/><stop offset=".008" style="stop-color:#f9d3a7"/><stop offset=".013" style="stop-color:#f6bf8b"/><stop offset=".02" style="stop-color:#f3ae75"/><stop offset=".027" style="stop-color:#f1a164"/><stop offset=".037" style="stop-color:#f09859"/><stop offset=".05" style="stop-color:#ef9252"/><stop offset=".086" style="stop-color:#ef9150"/><stop offset=".325" style="stop-color:#cb7232"/><stop offset=".368" style="stop-color:#af622b"/><stop offset=".448" style="stop-color:#814820"/><stop offset=".531" style="stop-color:#593216"/><stop offset=".615" style="stop-color:#39200e"/><stop offset=".702" style="stop-color:#201208"/><stop offset=".793" style="stop-color:#0e0803"/><stop offset=".889" style="stop-color:#030201"/><stop offset="1" style="stop-color:#000"/></radialGradient><path style="fill:url(#t)" d="M175.7 119.8c-4.6 1-9.9 2.5-16 4.5v-.2c-.6.3-1.3.6-1.8 1v.1c-.7.5-1.6 1.3-1.8 2.1-.4 1.5-1.4 6.5.3 7.5-.3.6-.7 1.8-.9 3.3-.2 2.2.1 9.9.1 9.9s-.8 2.2-.2 3c.5.6 5.2 4.6 6.6 5.8.2.2.5.6.9 1.1 1 1.4 3.2 4.5 4.6 5.6.2.2.5.4.8.7 2 1.7 5.3 4.8 9.3 4.6 0 0 .2-.5.8-1.5v-47.5h-2.7z"/><radialGradient id="u" cx="157.169" cy="141.911" r="26.439" gradientTransform="matrix(1 0 0 -1 0 256)" gradientUnits="userSpaceOnUse"><stop offset="0" style="stop-color:#fffad9"/><stop offset=".002" style="stop-color:#fdf0cc"/><stop offset=".008" style="stop-color:#fad7ab"/><stop offset=".014" style="stop-color:#f6c18e"/><stop offset=".022" style="stop-color:#f4af77"/><stop offset=".03" style="stop-color:#f2a266"/><stop offset=".04" style="stop-color:#f09859"/><stop offset=".054" style="stop-color:#ef9352"/><stop offset=".086" style="stop-color:#ef9150"/><stop offset=".325" style="stop-color:#cb7232"/><stop offset=".368" style="stop-color:#af622b"/><stop offset=".448" style="stop-color:#814820"/><stop offset=".531" style="stop-color:#593216"/><stop offset=".615" style="stop-color:#39200e"/><stop offset=".702" style="stop-color:#201208"/><stop offset=".793" style="stop-color:#0e0803"/><stop offset=".889" style="stop-color:#030201"/><stop offset="1" style="stop-color:#000"/></radialGradient><path style="fill:url(#u)" d="M135 93.3c.4-.9 5.7-8.4 7.2-10.4s2-12.5 2-14.9c0-1.1-3.6-.5-7.5.4-.2.2-.4.5-.6.7-.1.1-.2.1-.3.2-7 4.8-6.5 12-6.3 13.7-2.6 3.7-2.8 5.4-3 7.2-.2 2.2-1.9 10.5-1.7 11.5 0 .4.3.8.6 1.3 3.2-2.9 9.3-9 9.6-9.7z"/><radialGradient id="v" cx="117.217" cy="192.738" r="28.392" gradientTransform="matrix(1 0 0 -1 0 256)" gradientUnits="userSpaceOnUse"><stop offset="0" style="stop-color:#fffad9"/><stop offset=".002" style="stop-color:#fdf0cc"/><stop offset=".008" style="stop-color:#fad7ab"/><stop offset=".014" style="stop-color:#f6c18e"/><stop offset=".022" style="stop-color:#f4af77"/><stop offset=".03" style="stop-color:#f2a266"/><stop offset=".04" style="stop-color:#f09859"/><stop offset=".054" style="stop-color:#ef9352"/><stop offset=".086" style="stop-color:#ef9150"/><stop offset=".325" style="stop-color:#cb7232"/><stop offset=".368" style="stop-color:#af622b"/><stop offset=".448" style="stop-color:#814820"/><stop offset=".531" style="stop-color:#593216"/><stop offset=".615" style="stop-color:#39200e"/><stop offset=".702" style="stop-color:#201208"/><stop offset=".793" style="stop-color:#0e0803"/><stop offset=".889" style="stop-color:#030201"/><stop offset="1" style="stop-color:#000"/></radialGradient><path style="fill:url(#v)" d="M135 93.3c.4-.9 5.7-8.4 7.2-10.4s2-12.5 2-14.9c0-1.1-3.6-.5-7.5.4-.2.2-.4.5-.6.7-.1.1-.2.1-.3.2-7 4.8-6.5 12-6.3 13.7-2.6 3.7-2.8 5.4-3 7.2-.2 2.2-1.9 10.5-1.7 11.5 0 .4.3.8.6 1.3 3.2-2.9 9.3-9 9.6-9.7z"/><radialGradient id="w" cx="230.068" cy="45.778" r="60.321" gradientTransform="matrix(1 0 0 -1.0957 0 269.282)" gradientUnits="userSpaceOnUse"><stop offset="0" style="stop-color:#fffad9"/><stop offset=".012" style="stop-color:#fef6d3"/><stop offset=".028" style="stop-color:#fce9c3"/><stop offset=".045" style="stop-color:#f9d5a9"/><stop offset=".064" style="stop-color:#f5b984"/><stop offset=".084" style="stop-color:#f09555"/><stop offset=".086" style="stop-color:#ef9150"/><stop offset=".325" style="stop-color:#cb7232"/><stop offset=".368" style="stop-color:#af622b"/><stop offset=".448" style="stop-color:#814820"/><stop offset=".531" style="stop-color:#593216"/><stop offset=".615" style="stop-color:#39200e"/><stop offset=".702" style="stop-color:#201208"/><stop offset=".793" style="stop-color:#0e0803"/><stop offset=".889" style="stop-color:#030201"/><stop offset="1" style="stop-color:#000"/></radialGradient><path style="fill:url(#w)" d="M207.6 312.2c-1-3.6-2.5-6.5-2-7.8s.7-5.1-2-8.3c-2.6-3.3-7.3-8.9-6.1-13.4s7.4-19 7.8-25.1c.3-6.1-1.8-10.3-5.6-15.7s-7.3-9.6-6.4-15.5c.8-6 2.1-13.4 2.1-13.4l-1.5-2.4-1.9-4.8c.1-.3.1-.5.1-.5l-10.2-33.7s-.7-1.9-.9-1.9l-1.6-3.5s-17.3-25.6-22.2-13.3l1.4 26.2c-.1.6-.2 1.2-.2 1.8.7-.9 1-1.3 2.1-.9 1.6.6 9.1 12.5 9.7 15.6.6 3.1 2.2 9.7 2.8 16.2.6 6.6 1.6 13.4 1.9 15.6.3 2.2.3 7.5 1.6 11.2 1.2 3.7 2.2 10.3 3.7 14.7 1.6 4.4 5.3 11.2 5.3 16.9 0 4.7.2 14.5-1.6 15.5.3 5.2.3 10.4-.8 12.3-2.1 4-12.2 15.4-14.2 16.3s-12.5-1.4-13.9 11.2c0 0 15.7 2 21.3 1.4 5.6-.5 12.9-1.3 16.3-1.1 3.5.2 15.5-1.1 15.9-2.3.6-1.2.1-7.7-.9-11.3z"/><radialGradient id="x" cx="140.697" cy="34.555" r="49.013" gradientTransform="matrix(1 0 0 -1.0957 0 269.282)" gradientUnits="userSpaceOnUse"><stop offset="0" style="stop-color:#fffad9"/><stop offset=".012" style="stop-color:#fef6d3"/><stop offset=".028" style="stop-color:#fce9c3"/><stop offset=".045" style="stop-color:#f9d5a9"/><stop offset=".064" style="stop-color:#f5b984"/><stop offset=".084" style="stop-color:#f09555"/><stop offset=".086" style="stop-color:#ef9150"/><stop offset=".325" style="stop-color:#cb7232"/><stop offset=".368" style="stop-color:#af622b"/><stop offset=".448" style="stop-color:#814820"/><stop offset=".531" style="stop-color:#593216"/><stop offset=".615" style="stop-color:#39200e"/><stop offset=".702" style="stop-color:#201208"/><stop offset=".793" style="stop-color:#0e0803"/><stop offset=".889" style="stop-color:#030201"/><stop offset="1" style="stop-color:#000"/></radialGradient><path style="fill:url(#x)" d="M192.9 269.7c0-5.6-3.7-14.7-5.3-19-1.6-4.4-3.7-9.1-5-12.8-1.2-3.7-1.9-7.8-2.2-10s-.9-10.3-1.6-16.9c-.6-6.6-3.1-12.8-3.7-15.9-.6-3.1-12.5-15.6-14.1-16.2-1.1-.4-2 1.3-2.7 2.2-.2 1.6-.3 3.1-.3 4.2 0 4.7 1.2 15 2.8 19.9s5.6 15.4 5.6 15.4l3.1 6.9s-.7 12.6 1.2 16.3c1.8 3.6 6.6 11.4 6.6 11.4s4.8 14.5 5.3 17.9c.3 1.8 1 7.4 1.3 13 1.7-1.2 9-11.6 9-16.4z"/><radialGradient id="y" cx="176.86" cy="19.317" r="74.561" fx="156.387" fy="20.476" gradientTransform="matrix(1 0 0 -1.0957 0 269.282)" gradientUnits="userSpaceOnUse"><stop offset="0" style="stop-color:#fffad9"/><stop offset=".012" style="stop-color:#fef6d3"/><stop offset=".028" style="stop-color:#fce9c3"/><stop offset=".045" style="stop-color:#f9d5a9"/><stop offset=".064" style="stop-color:#f5b984"/><stop offset=".084" style="stop-color:#f09555"/><stop offset=".086" style="stop-color:#ef9150"/><stop offset=".325" style="stop-color:#cb7232"/><stop offset=".364" style="stop-color:#af622b"/><stop offset=".439" style="stop-color:#814820"/><stop offset=".515" style="stop-color:#593216"/><stop offset=".594" style="stop-color:#39200e"/><stop offset=".674" style="stop-color:#201208"/><stop offset=".758" style="stop-color:#0e0803"/><stop offset=".847" style="stop-color:#030201"/><stop offset=".949" style="stop-color:#000"/></radialGradient><path style="fill:url(#y)" d="M256.2 314.8c-.4-1.3-2.5-10-2.5-10s.1-.4.2-1c-3.1-1.6-6.6-3.6-8.1-5.3-3-3.5-8.2-13.1-9.4-17.1s-4-18-4.7-23.4-12.6-20.6-12.6-22.9c0-2.3-4.2-44.7-4.2-49.4 0-2.6 3.8-7 7.1-10.4-2.3-4-8-13.4-8-13.4l-6-17.2s-22.5 5.3-27.3 14.1c0 0-2.2 5.7-2.6 9.1l-2.3.5s1.4 2.6 2.8 5.6c.4.6.7 1.4 1.2 2.4 1.2 3.4 2.8 7.6 4.3 11.5 3.4 9.4 7.6 21.5 8.6 23.2 1.4 2.3 12 17.3 19.3 27.3.2 2.1.5 3.7.8 4.2.1.2.4.6.7 1.2.1 4.8.5 17 2.1 19.1 2 2.5 7.1 7.6 8.9 11 1.8 3.4 6.4 16.8 6.1 18.1-.3 1.3-1.8 8-1.3 9.2.5 1.3 2.6 5.1 2.6 5.1s-1.6 11.4-2.3 11.9l1.3-.9-2.3 3.9s-.5 3.1-.3 4.9c.1 1.3 14.6 1.8 22.7 2l3.7.4v-.3c.9 0 1.5.1 1.7.1 1 .2 2.3-4.2 2.3-4.2l-3.2-7.1c.8 0 1.3-.2.7-2.2z"/><radialGradient id="z" cx="247.033" cy="84.718" r="44.425" gradientTransform="matrix(1 0 0 -1.0957 0 269.282)" gradientUnits="userSpaceOnUse"><stop offset="0" style="stop-color:#fffad9"/><stop offset=".012" style="stop-color:#fef6d3"/><stop offset=".028" style="stop-color:#fce9c3"/><stop offset=".045" style="stop-color:#f9d5a9"/><stop offset=".064" style="stop-color:#f5b984"/><stop offset=".084" style="stop-color:#f09555"/><stop offset=".086" style="stop-color:#ef9150"/><stop offset=".325" style="stop-color:#cb7232"/><stop offset=".368" style="stop-color:#af622b"/><stop offset=".448" style="stop-color:#814820"/><stop offset=".531" style="stop-color:#593216"/><stop offset=".615" style="stop-color:#39200e"/><stop offset=".702" style="stop-color:#201208"/><stop offset=".793" style="stop-color:#0e0803"/><stop offset=".889" style="stop-color:#030201"/><stop offset="1" style="stop-color:#000"/></radialGradient><path style="fill:url(#z)" d="M216.1 235.9c0 2.3 6.8 20.1 7.5 25.5s11.7 15.9 12.9 19.9 6.3 13.6 9.4 17.1c1.5 1.8 5 3.8 8.1 5.3.2-1.1.5-3 .3-4.4-.3-2.2-5.4-9-5.9-9.8-.5-.7-3.1-6-3.8-8.3s-1.6-11.9-1.5-15.2c.2-3.3 2-12.3 1.6-15.2-.3-2.5-7.1-11.6-9.8-14.6-.3-.5-.6-.9-.9-1.4-.8-2.2-1.9-5.1-2.1-6.4-.4-2-3.2-7.8-4.2-14.5-.9-6.4-3.3-25.3-3.6-27.3 0-1.6.7-.7.2-6.3s-7.8-16.8-8.2-17.6c-6.6 4.2-6.3 17.3-7.5 19.7-4.9 9.5 7.5 51.2 7.5 53.5z"/><radialGradient id="A" cx="224.113" cy="127.167" r="31.869" gradientTransform="matrix(1 0 0 -1 0 256)" gradientUnits="userSpaceOnUse"><stop offset="0" style="stop-color:#fffad9"/><stop offset=".003" style="stop-color:#fdebc6"/><stop offset=".008" style="stop-color:#f9d3a7"/><stop offset=".013" style="stop-color:#f6bf8b"/><stop offset=".02" style="stop-color:#f3ae75"/><stop offset=".027" style="stop-color:#f1a164"/><stop offset=".037" style="stop-color:#f09859"/><stop offset=".05" style="stop-color:#ef9252"/><stop offset=".086" style="stop-color:#ef9150"/><stop offset=".325" style="stop-color:#cb7232"/><stop offset=".368" style="stop-color:#af622b"/><stop offset=".448" style="stop-color:#814820"/><stop offset=".531" style="stop-color:#593216"/><stop offset=".615" style="stop-color:#39200e"/><stop offset=".702" style="stop-color:#201208"/><stop offset=".793" style="stop-color:#0e0803"/><stop offset=".889" style="stop-color:#030201"/><stop offset="1" style="stop-color:#000"/></radialGradient><path style="fill:url(#A)" d="M209.8 144.7s-1.9-13.7-4.1-15.9c.3-1.5 1.1-6.4-1.2-7.7-.4-.3-7-6-28.7-1.4h2.6v47.5c1.5-2.4 5.2-7.5 12.4-12.1 5.4-3.4 9.7-5.9 12.9-7.2l3.2-.9c1.2-.2 2.3 0 3 .5l.6 1.2c.1 0 .5-3.1-.7-4z"/></g></svg>