<svg width="128" height="128" viewBox="0 0 128 128" fill="none" xmlns="http://www.w3.org/2000/svg">
<rect width="128" height="128" rx="10" fill="url(#paint0_linear)"/>
<path d="M37.512 62.252C35.856 62.252 34.392 61.964 33.12 61.388C31.872 60.812 30.888 60.008 30.168 58.976C29.448 57.944 29.064 56.792 29.016 55.52H31.68C31.8 56.768 32.34 57.86 33.3 58.796C34.26 59.732 35.664 60.2 37.512 60.2C39.216 60.2 40.56 59.756 41.544 58.868C42.552 57.956 43.056 56.828 43.056 55.484C43.056 54.404 42.78 53.54 42.228 52.892C41.676 52.22 40.992 51.728 40.176 51.416C39.36 51.08 38.232 50.72 36.792 50.336C35.112 49.88 33.78 49.436 32.796 49.004C31.812 48.572 30.972 47.9 30.276 46.988C29.58 46.076 29.232 44.84 29.232 43.28C29.232 41.984 29.568 40.832 30.24 39.824C30.912 38.792 31.86 37.988 33.084 37.412C34.308 36.836 35.712 36.548 37.296 36.548C39.624 36.548 41.496 37.124 42.912 38.276C44.352 39.404 45.18 40.868 45.396 42.668H42.66C42.492 41.612 41.928 40.676 40.968 39.86C40.008 39.044 38.712 38.636 37.08 38.636C35.568 38.636 34.308 39.044 33.3 39.86C32.292 40.676 31.788 41.792 31.788 43.208C31.788 44.264 32.064 45.116 32.616 45.764C33.168 46.412 33.852 46.904 34.668 47.24C35.508 47.576 36.636 47.936 38.052 48.32C39.684 48.776 41.004 49.232 42.012 49.688C43.02 50.12 43.872 50.792 44.568 51.704C45.264 52.616 45.612 53.84 45.612 55.376C45.612 56.552 45.3 57.668 44.676 58.724C44.052 59.78 43.128 60.632 41.904 61.28C40.68 61.928 39.216 62.252 37.512 62.252ZM53.0016 35.36V62H50.4816V35.36H53.0016ZM59.9681 38.636C59.4641 38.636 59.0321 38.456 58.6721 38.096C58.3121 37.736 58.1321 37.292 58.1321 36.764C58.1321 36.236 58.3121 35.804 58.6721 35.468C59.0321 35.108 59.4641 34.928 59.9681 34.928C60.4721 34.928 60.9041 35.108 61.2641 35.468C61.6241 35.804 61.8041 36.236 61.8041 36.764C61.8041 37.292 61.6241 37.736 61.2641 38.096C60.9041 38.456 60.4721 38.636 59.9681 38.636ZM61.2281 42.344V62H58.7081V42.344H61.2281ZM90.3347 41.984C92.6387 41.984 94.5107 42.716 95.9507 44.18C97.4147 45.62 98.1467 47.72 98.1467 50.48V62H95.6627V50.768C95.6627 48.632 95.1467 47 94.1147 45.872C93.0827 44.744 91.6787 44.18 89.9027 44.18C88.0547 44.18 86.5787 44.792 85.4747 46.016C84.3707 47.24 83.8187 49.016 83.8187 51.344V62H81.3347V50.768C81.3347 48.632 80.8187 47 79.7867 45.872C78.7547 44.744 77.3387 44.18 75.5387 44.18C73.6907 44.18 72.2147 44.792 71.1107 46.016C70.0067 47.24 69.4547 49.016 69.4547 51.344V62H66.9347V42.344H69.4547V45.728C70.0787 44.504 70.9667 43.58 72.1187 42.956C73.2707 42.308 74.5547 41.984 75.9707 41.984C77.6747 41.984 79.1627 42.392 80.4347 43.208C81.7307 44.024 82.6667 45.224 83.2427 46.808C83.7707 45.248 84.6707 44.06 85.9427 43.244C87.2387 42.404 88.7027 41.984 90.3347 41.984Z" fill="white"/>
<path d="M38.7579 93.259C36.8586 93.259 35.1566 92.9507 33.6519 92.334C32.1473 91.7173 30.9386 90.8047 30.0259 89.596C29.1379 88.3873 28.6693 86.932 28.6199 85.23H35.3539C35.4526 86.2167 35.7856 86.969 36.3529 87.487C36.9203 88.005 37.6603 88.264 38.5729 88.264C39.5103 88.264 40.2503 88.042 40.7929 87.598C41.3356 87.1293 41.6069 86.5127 41.6069 85.748C41.6069 85.1067 41.3849 84.5763 40.9409 84.157C40.5216 83.7377 39.9913 83.3923 39.3499 83.121C38.7333 82.8497 37.8453 82.5413 36.6859 82.196C35.0086 81.678 33.6396 81.16 32.5789 80.642C31.5183 80.124 30.6056 79.3593 29.8409 78.348C29.0763 77.3367 28.6939 76.017 28.6939 74.389C28.6939 71.9717 29.5696 70.0847 31.3209 68.728C33.0723 67.3467 35.3539 66.656 38.1659 66.656C41.0273 66.656 43.3336 67.3467 45.0849 68.728C46.8363 70.0847 47.7736 71.984 47.8969 74.426H41.0519C41.0026 73.538 40.6943 72.8597 40.1269 72.391C39.5843 71.8977 38.8566 71.651 37.9439 71.651C37.1793 71.651 36.5626 71.8607 36.0939 72.28C35.6253 72.6993 35.3909 73.3037 35.3909 74.093C35.3909 74.9317 35.7856 75.5853 36.5749 76.054C37.3643 76.5227 38.5976 77.0283 40.2749 77.571C41.9523 78.1383 43.3089 78.681 44.3449 79.199C45.4056 79.717 46.3183 80.4693 47.0829 81.456C47.8476 82.4427 48.2299 83.713 48.2299 85.267C48.2299 86.747 47.8476 88.0913 47.0829 89.3C46.3429 90.5087 45.2576 91.4707 43.8269 92.186C42.3963 92.9013 40.7066 93.259 38.7579 93.259ZM58.4506 72.021V77.423H66.9236V82.196H58.4506V88.005H68.0336V93H52.1236V67.026H68.0336V72.021H58.4506ZM84.4252 93.259C81.9832 93.259 79.7385 92.6917 77.6912 91.557C75.6685 90.4223 74.0528 88.8437 72.8442 86.821C71.6602 84.7737 71.0682 82.4797 71.0682 79.939C71.0682 77.3983 71.6602 75.1167 72.8442 73.094C74.0528 71.0713 75.6685 69.4927 77.6912 68.358C79.7385 67.2233 81.9832 66.656 84.4252 66.656C86.8672 66.656 89.0995 67.2233 91.1222 68.358C93.1695 69.4927 94.7728 71.0713 95.9322 73.094C97.1162 75.1167 97.7082 77.3983 97.7082 79.939C97.7082 82.4797 97.1162 84.7737 95.9322 86.821C94.7482 88.8437 93.1448 90.4223 91.1222 91.557C89.0995 92.6917 86.8672 93.259 84.4252 93.259ZM84.4252 87.413C86.4972 87.413 88.1498 86.7347 89.3832 85.378C90.6412 84.0213 91.2702 82.2083 91.2702 79.939C91.2702 77.6697 90.6412 75.8567 89.3832 74.5C88.1498 73.1433 86.4972 72.465 84.4252 72.465C82.3285 72.465 80.6512 73.1433 79.3932 74.5C78.1598 75.8567 77.5432 77.6697 77.5432 79.939C77.5432 82.2083 78.1598 84.0213 79.3932 85.378C80.6512 86.7347 82.3285 87.413 84.4252 87.413Z" fill="white"/>
<defs>
<linearGradient id="paint0_linear" x1="0" y1="0" x2="128" y2="128" gradientUnits="userSpaceOnUse">
<stop stop-color="#C21500"/>
<stop offset="1" stop-color="#FFC500"/>
</linearGradient>
</defs>
</svg>
