<svg role="img" xmlns="http://www.w3.org/2000/svg" viewBox="0 0 128 128" fill="currentColor"><defs><style>.cls-1{stroke-width:0,fill="currentColor"}</style></defs><path class="cls-1" d="M111.33 29.51c-3.95 0-7.17-3.21-7.17-7.17v-12.1h-3.05v12.1c0 3.95-3.22 7.17-7.17 7.17h-8.9v3.05h8.9c3.95 0 7.17 3.22 7.17 7.17v12.1h3.05v-12.1c0-3.95 3.21-7.17 7.17-7.17h8.9v-3.05h-8.9ZM100.5 59.84c-2.3 0-4.17-1.87-4.17-4.17v-7.03h-1.78v7.03c0 2.3-1.87 4.17-4.17 4.17h-5.17v1.78h5.17c2.3 0 4.17 1.87 4.17 4.17v7.03h1.78v-7.03c0-2.3 1.87-4.17 4.17-4.17h5.17v-1.78h-5.17ZM77.48 23.19c-1.94 0-3.52-1.58-3.52-3.52v-5.95h-1.5v5.95c0 1.94-1.58 3.52-3.52 3.52h-4.37v1.5h4.37c1.94 0 3.52 1.58 3.52 3.52v5.95h1.5v-5.95c0-1.94 1.58-3.52 3.52-3.52h4.37v-1.5h-4.37ZM74.1 59.13l-8.69-8.59 11.32-11.32 8.7 8.58L74.1 59.13zM7.77 109.18l52.55-53.54 8.69 8.58-52.55 53.54"/></svg>
