<svg width="256" height="213" fill="none" xmlns="http://www.w3.org/2000/svg"><path d="M128.339 131.132a8.647 8.647 0 0 1 5.965 2.111l59.712 59.721a8.653 8.653 0 0 1-.417 11.784 8.651 8.651 0 0 1-11.782.417l-59.712-59.722a8.652 8.652 0 0 1 .417-11.783 8.641 8.641 0 0 1 5.817-2.528ZM283.039 112.017a8.642 8.642 0 0 1-5.964-2.111l-59.634-59.643a8.654 8.654 0 0 1 .417-11.783 8.646 8.646 0 0 1 11.782-.417l59.633 59.643a8.648 8.648 0 0 1-6.234 14.311ZM162.539-29.365l.004.013.094.094a76.33 76.33 0 0 1 6.047 101.08l-.273.349.313.313 73.778 73.79a8.688 8.688 0 0 1-6.261 14.374 8.686 8.686 0 0 1-5.99-2.121l-73.787-73.798-.314-.314-.348.274a76.308 76.308 0 0 1-82.547 7.604A76.334 76.334 0 0 1 47.173-20.539a76.298 76.298 0 0 1 115.366-8.826ZM67.323 66.072a58.481 58.481 0 0 0 63.734 12.68 58.483 58.483 0 0 0 26.247-21.543 58.502 58.502 0 0 0 0-64.995 58.482 58.482 0 0 0-60.037-24.872 58.481 58.481 0 0 0-29.944 16.009 58.5 58.5 0 0 0 0 82.722Z" stroke="#0C082F"/></svg>