<svg xmlns="http://www.w3.org/2000/svg" width="1512" height="1613" fill="none"><g stroke="#BAB8CF" stroke-miterlimit="10" clip-path="url(#a)" opacity=".4"><g opacity=".7" style="mix-blend-mode:overlay"><path d="M1200.37 506.397c81.23 57.467 193.68 38.184 251.16-43.069 57.49-81.253 38.25-193.708-42.97-251.175-81.23-57.467-193.68-38.185-251.16 43.068-57.49 81.253-38.25 193.708 42.97 251.176ZM629.309 37.926c57.518 40.695 137.147 27.04 177.856-30.499 40.71-57.538 27.084-137.172-30.434-177.867-57.518-40.695-137.147-27.04-177.857 30.498-40.709 57.54-27.083 137.173 30.435 177.868Z"/><path d="M346.199-96.614C427.913-38.8 541.04-58.199 598.874-139.942c57.835-81.743 38.477-194.876-43.237-252.69-81.714-57.814-194.84-38.415-252.675 43.328-57.834 81.743-38.476 194.876 43.237 252.69Zm442.434 616.729c51.028 36.103 121.672 23.989 157.789-27.057 36.116-51.047 24.027-121.695-27.001-157.798-51.028-36.104-121.672-23.99-157.788 27.057-36.116 51.046-24.028 121.695 27 157.798Z"/><path d="M849.727 374.502c13.502-1.208 27.459 2.746 38.665 12.14 22.386 18.762 25.315 52.125 6.547 74.512-18.767 22.395-52.127 25.335-74.505 6.572-10.451-8.759-16.664-20.706-18.405-33.232m761.921-256.388c56.98 40.316 135.87 26.788 176.2-30.214 40.33-57.001 26.83-135.893-30.16-176.208-56.98-40.315-135.86-26.788-176.19 30.214-40.33 57.002-26.83 135.893 30.15 176.208Z"/><path d="M1075.56 682.803c178.62 126.373 425.9 83.97 552.32-94.709 126.42-178.68 84.1-425.973-94.51-552.346-178.62-126.373-425.9-83.97-552.316 94.709-126.418 178.679-84.104 425.973 94.506 552.346Z"/><path d="M1051.43 716.911c197.45 139.696 470.8 92.823 610.54-104.694C1801.72 414.7 1754.94 141.336 1557.5 1.64c-197.45-139.696-470.8-92.823-610.541 104.694-139.746 197.516-92.972 470.881 104.471 610.577Z"/><path d="M893.882 939.592c320.388 226.678 763.938 150.618 990.688-169.881 226.76-320.501 150.86-764.076-169.52-990.753C1394.66-447.72 951.116-371.661 724.357-51.161 497.598 269.34 573.497 712.915 893.882 939.592Z"/></g><path d="M869.764-585.354 1568.08 932.11M681.552-269.837 2136.86 1199.95M560.693 8.071 2242.63 802.273M778.89 441.73l1065.27-167.56"/></g><defs><clipPath id="a"><path fill="#fff" d="M713.481-930 2666.336 451.675l-821.482 1161.08L-108 231.079z"/></clipPath></defs></svg>