<svg xmlns="http://www.w3.org/2000/svg" width="703.709" height="540.708" viewBox="0 0 703.709 540.708"><ellipse cx="292.438" cy="22.707" rx="292.438" ry="22.707" transform="translate(30.021 432.038)" fill="#6c63ff" opacity="0.1"/><g transform="translate(467.793 63.325)" opacity="0.1"><path d="M810.974,444.387c-1.748-5.305-8.835-7.748-15.826-5.45a17.037,17.037,0,0,0-2.91,1.259c-.447-.124-.908-.234-1.376-.317a15.434,15.434,0,0,0,.433-4.672,16.927,16.927,0,0,0,7.5-14.773,16.947,16.947,0,0,0,7.473-14.773,16.347,16.347,0,0,0,5.663-6.413c3.372-6.674,1.975-14.175-3.124-16.755s-11.973.743-15.344,7.418a16.3,16.3,0,0,0-1.81,8.36,16.948,16.948,0,0,0-7.473,14.773,16.947,16.947,0,0,0-7.473,14.773,16.955,16.955,0,0,0-7.5,14.78,16.347,16.347,0,0,0-5.663,6.413,17.532,17.532,0,0,0-1.431,3.95,14.57,14.57,0,0,0-3.055-3.255,17.466,17.466,0,0,0-.688-3.1c-2.3-7-8.464-11.264-13.762-9.516s-7.748,8.828-5.45,15.826a15.871,15.871,0,0,0,5.2,7.624,17.471,17.471,0,0,0,.688,3.1,15.14,15.14,0,0,0,6.984,8.773,15.952,15.952,0,0,0-.571,2.684,17.4,17.4,0,0,0-5.188,10.259,17.389,17.389,0,0,0-5.188,10.266,16.955,16.955,0,0,0-3.44,4.686c-3.378,6.674-1.982,14.182,3.117,16.755s11.973-.736,15.351-7.418a16.945,16.945,0,0,0,1.72-5.567,17.4,17.4,0,0,0,5.188-10.259,17.389,17.389,0,0,0,5.188-10.266,17.347,17.347,0,0,0,5.126-10.259,17.346,17.346,0,0,0,5.2-10.28,16.568,16.568,0,0,0,2.333-2.752,16.139,16.139,0,0,0,8.443-.53,17.035,17.035,0,0,0,2.91-1.259,15.969,15.969,0,0,0,9.234-.33C808.428,455.865,812.715,449.7,810.974,444.387Z" transform="translate(-697.297 -182.356)" fill="#3f3d56"/><g transform="translate(39.24 217.808)" opacity="0.1"><path d="M825.7,442.44a14.79,14.79,0,0,1-2.367,1.892,15.823,15.823,0,0,1-.764,5.8,18.041,18.041,0,0,0,1.445-2.36A16.956,16.956,0,0,0,825.7,442.44Z" transform="translate(-763.601 -419.134)"/><path d="M836.561,420.97a14.783,14.783,0,0,1-2.367,1.892,15.821,15.821,0,0,1-.764,5.8,17.683,17.683,0,0,0,1.445-2.367A17.1,17.1,0,0,0,836.561,420.97Z" transform="translate(-766.988 -412.438)"/><path d="M811.438,411.6a15.066,15.066,0,0,1,.117-3.034,17.144,17.144,0,0,0-3.289,4.521,17.629,17.629,0,0,0-1.046,2.567A15.658,15.658,0,0,1,811.438,411.6Z" transform="translate(-758.813 -408.57)"/><path d="M744.42,540.608a16.251,16.251,0,0,1,2.03-2.326,15.752,15.752,0,0,1,.6-2.752,17.287,17.287,0,0,0-1.576,2.553A17.655,17.655,0,0,0,744.42,540.608Z" transform="translate(-739.225 -448.17)"/><path d="M751.96,525.739a16.19,16.19,0,0,1,2.03-2.326,15.81,15.81,0,0,1,.571-2.684h0a17.7,17.7,0,0,0-1.514,2.47A18.482,18.482,0,0,0,751.96,525.739Z" transform="translate(-741.577 -443.554)"/><path d="M814.984,463.836a14.318,14.318,0,0,1-2.36,1.885,15.434,15.434,0,0,1-.433,4.672,12.879,12.879,0,0,1,1.376.317,17.033,17.033,0,0,1,2.911-1.259c7-2.3,14.085.145,15.826,5.45a8.039,8.039,0,0,1,.22,4.129c2.305-2.711,3.261-6.014,2.271-9.042-1.748-5.305-8.835-7.748-15.826-5.45a17.033,17.033,0,0,0-2.911,1.259c-.447-.124-.908-.234-1.376-.317C814.812,464.93,814.908,464.387,814.984,463.836Z" transform="translate(-760.363 -425.757)"/><path d="M739.505,550.4a17.224,17.224,0,0,0-1.576,2.553,18.286,18.286,0,0,0-1.06,2.573,16.851,16.851,0,0,1,2.064-2.339A15.77,15.77,0,0,1,739.505,550.4Z" transform="translate(-736.87 -452.808)"/><path d="M800.528,433.074a15.175,15.175,0,0,1,.117-3.034,17.144,17.144,0,0,0-3.289,4.521,17.633,17.633,0,0,0-1.046,2.567A15.66,15.66,0,0,1,800.528,433.074Z" transform="translate(-755.41 -415.267)"/><path d="M786.438,521.055a16.7,16.7,0,0,1-.688,3.014,18.334,18.334,0,0,0,1.438-2.367,17.5,17.5,0,0,0,1.122-2.752A16.678,16.678,0,0,1,786.438,521.055Z" transform="translate(-752.116 -442.999)"/><path d="M771.358,550.875a16.625,16.625,0,0,1-.688,3.014,17.7,17.7,0,0,0,1.445-2.367,18.231,18.231,0,0,0,1.122-2.752A16.219,16.219,0,0,1,771.358,550.875Z" transform="translate(-747.413 -452.3)"/><path d="M778.9,535.974a16.576,16.576,0,0,1-.688,3.014,18.372,18.372,0,0,0,1.473-2.326,17.5,17.5,0,0,0,1.122-2.752A16.667,16.667,0,0,1,778.9,535.974Z" transform="translate(-749.764 -447.665)"/><path d="M793.978,506.124a16.481,16.481,0,0,1-.688,3.007,17.819,17.819,0,0,0,1.438-2.36,17.542,17.542,0,0,0,1.129-2.8A15.977,15.977,0,0,1,793.978,506.124Z" transform="translate(-754.468 -438.326)"/><path d="M743.367,466.97c5.312-1.741,11.477,2.518,13.762,9.516a17.66,17.66,0,0,1,.688,3.1,14.567,14.567,0,0,1,3.055,3.255,17.554,17.554,0,0,1,1.431-3.957c.241-.468.5-.915.771-1.376a14.5,14.5,0,0,0-2.752-2.876,17.473,17.473,0,0,0-.688-3.1c-2.3-7-8.464-11.264-13.762-9.516-3.028.991-5.119,3.723-5.931,7.177A8.041,8.041,0,0,1,743.367,466.97Z" transform="translate(-737.828 -425.12)"/><path d="M778.808,476.018a15.057,15.057,0,0,1,.124-3.028,17.024,17.024,0,0,0-3.3,4.521,17.239,17.239,0,0,0-1.046,2.56A15.825,15.825,0,0,1,778.808,476.018Z" transform="translate(-748.635 -428.663)"/><path d="M789.668,454.538a15.048,15.048,0,0,1,.124-3.028,16.874,16.874,0,0,0-3.3,4.514,17.652,17.652,0,0,0-1.046,2.567A15.66,15.66,0,0,1,789.668,454.538Z" transform="translate(-752.023 -421.963)"/><path d="M763.818,565.773a16.643,16.643,0,0,1-.688,3.021,17.692,17.692,0,0,0,2.567-5.154A16.174,16.174,0,0,1,763.818,565.773Z" transform="translate(-745.061 -456.938)"/></g><path d="M846.823,362.718a16.29,16.29,0,0,0,5.663-6.413c3.379-6.674,1.982-14.182-3.117-16.762s-11.973.743-15.351,7.424a16.289,16.289,0,0,0-1.8,8.381,16.947,16.947,0,0,0-7.473,14.773,16.246,16.246,0,0,0-5.663,6.413,16.976,16.976,0,0,0-1.039,2.539,14.35,14.35,0,0,1,7.411-5.5,8.422,8.422,0,0,0,10.6,5.424l.089-.029a14.343,14.343,0,0,1,0,9.227,17.567,17.567,0,0,0,1.431-2.34,16.291,16.291,0,0,0,1.8-8.36,16.906,16.906,0,0,0,7.473-14.773Z" transform="translate(-722.948 -168.959)" fill="#3f3d56"/><path d="M922.208,193.422a49.542,49.542,0,0,0,6-3.323l-22.246-16.253,26.147,13.466a49.631,49.631,0,0,0,18.578-34.618l-44.437.454,44.533-7.445a49.543,49.543,0,1,0-98.108,12.578,49.626,49.626,0,0,0-9.124,5.5l23.223,32.292-27.881-28.267a49.6,49.6,0,0,0-13.879,45.146,49.542,49.542,0,1,0,69.532,35.161,49.543,49.543,0,0,0,27.661-54.7Z" transform="translate(-716.203 -94.371)" fill="#6c63ff"/><path d="M829.4,217.542a49.386,49.386,0,0,0-4.369,32.141,49.542,49.542,0,1,0,69.531,35.161C904.29,280.331,831.9,212.581,829.4,217.542Z" transform="translate(-716.209 -131.098)" opacity="0.1"/><circle cx="7.356" cy="7.356" r="7.356" transform="translate(161.672)" fill="#6c63ff"/><circle cx="7.356" cy="7.356" r="7.356" transform="translate(204.636 4.72)" fill="#6c63ff"/><circle cx="7.356" cy="7.356" r="7.356" transform="translate(221.205 70.818)" fill="#6c63ff"/><circle cx="7.356" cy="7.356" r="7.356" transform="translate(198.842 103.826)" fill="#6c63ff"/><circle cx="7.356" cy="7.356" r="7.356" transform="translate(168.291 172.38)" fill="#6c63ff"/><circle cx="7.356" cy="7.356" r="7.356" transform="translate(168.291 172.38)" opacity="0.1"/><circle cx="7.356" cy="7.356" r="7.356" transform="translate(100.363 94.736)" fill="#6c63ff"/><circle cx="7.356" cy="7.356" r="7.356" transform="translate(100.363 94.736)" opacity="0.1"/><path d="M822.364,409.012c-4.892-2.47-6.372-9.468-3.516-15.922-.151.261-.3.53-.434.812-3.378,6.674-1.982,14.175,3.117,16.755s11.973-.743,15.344-7.418c.144-.275.268-.557.392-.833C833.766,408.538,827.25,411.49,822.364,409.012Z" transform="translate(-722.49 -185.934)" opacity="0.1"/><path d="M811.8,429.889c-4.885-2.47-6.372-9.468-3.509-15.929-.151.268-.3.537-.44.812-3.379,6.674-1.982,14.181,3.117,16.755s11.973-.736,15.351-7.418c.138-.275.268-.55.392-.833C823.206,429.408,816.7,432.359,811.8,429.889Z" transform="translate(-719.196 -192.443)" opacity="0.1"/><path d="M801.245,450.762c-4.885-2.47-6.372-9.468-3.509-15.922-.151.262-.3.53-.44.812-3.379,6.674-1.975,14.175,3.124,16.755s11.966-.743,15.344-7.418c.138-.275.268-.557.392-.833C812.654,450.288,806.137,453.24,801.245,450.762Z" transform="translate(-715.903 -198.956)" opacity="0.1"/><path d="M790.723,471.692c-4.892-2.47-6.372-9.468-3.516-15.922-.151.261-.3.53-.44.805-3.372,6.674-1.975,14.182,3.124,16.762s11.973-.743,15.344-7.424c.145-.275.268-.55.392-.833C802.1,471.176,795.588,474.128,790.723,471.692Z" transform="translate(-712.62 -205.484)" opacity="0.1"/><path d="M780.134,492.512c-4.892-2.47-6.372-9.468-3.516-15.922-.151.261-.3.53-.434.812-3.378,6.674-1.982,14.175,3.117,16.755s11.973-.743,15.351-7.418c.138-.275.268-.557.392-.833C791.549,492.038,785.019,494.989,780.134,492.512Z" transform="translate(-709.318 -211.978)" opacity="0.1"/><path d="M769.574,513.392c-4.885-2.47-6.372-9.468-3.509-15.922-.151.262-.3.53-.44.805-3.379,6.674-1.982,14.182,3.124,16.762s11.938-.75,15.379-7.424c.138-.275.268-.55.392-.833C780.976,512.911,774.494,515.863,769.574,513.392Z" transform="translate(-706.024 -218.491)" opacity="0.1"/><path d="M759.016,534.262c-4.885-2.47-6.372-9.468-3.509-15.922-.151.268-.3.53-.44.812-3.372,6.674-1.975,14.175,3.124,16.755s11.973-.743,15.344-7.418c.145-.275.268-.557.392-.833C770.425,533.788,763.909,536.74,759.016,534.262Z" transform="translate(-702.732 -225)" opacity="0.1"/><path d="M748.464,555.142c-4.892-2.47-6.372-9.468-3.516-15.922q-.227.392-.433.805c-3.378,6.674-1.982,14.182,3.117,16.762s11.973-.743,15.351-7.424c.138-.275.261-.551.385-.833C759.866,554.661,753.349,557.585,748.464,555.142Z" transform="translate(-699.439 -231.513)" opacity="0.1"/><path d="M741.524,568.859c-4.885-2.477-6.372-9.468-3.509-15.929-.151.268-.3.537-.44.812-3.378,6.674-1.982,14.182,3.117,16.755s11.973-.736,15.351-7.418c.138-.275.268-.55.392-.833C752.926,568.378,746.409,571.329,741.524,568.859Z" transform="translate(-697.275 -235.789)" opacity="0.1"/><path d="M902.138,466.49a25.738,25.738,0,0,0,1.376-6.736,3.674,3.674,0,0,0-.017-7.349,3.75,3.75,0,0,0-.541.041,25.673,25.673,0,0,0-13.514-17.416,3.677,3.677,0,1,0-6.564-3.317,3.454,3.454,0,0,0-.33.984,25.8,25.8,0,0,0-22.617,6.778,25.9,25.9,0,0,0-6.757-.2l-2.979,13.562-.179-13.074a25.748,25.748,0,1,0,13.762,49.542,3.633,3.633,0,0,0,1.548,1.486,3.675,3.675,0,0,0,5.037-4.734,25.769,25.769,0,0,0,3.3-2.7,25.769,25.769,0,0,0,27.049-13.645l-13.865-2.333Z" transform="translate(-726.608 -197.351)" fill="#6c63ff"/><g transform="translate(103.132 240.935)" opacity="0.1"><path d="M880.7,476.97c-5.119-6.757-8.257-14.76-11.87-22.439a93.751,93.751,0,0,0-4.865-9.193l-2.711-3.158c-.454.385-.908.784-1.376,1.2a25.9,25.9,0,0,0-6.757-.2l-2.979,13.562-.179-13.074a25.748,25.748,0,1,0,13.762,49.542,3.634,3.634,0,0,0,1.548,1.486,3.675,3.675,0,0,0,5.037-4.734,25.716,25.716,0,0,0,3.3-2.7,25.8,25.8,0,0,0,15.441-2.284A36.279,36.279,0,0,1,880.7,476.97Z" transform="translate(-829.724 -442.18)"/></g><path d="M743.3,427.035a3.674,3.674,0,0,0-3.289-5.333,25.715,25.715,0,0,0-8.051-14.333,25.815,25.815,0,0,0,.757-8.051l-13.521-2.305,13.129-.826a26.194,26.194,0,0,0-.97-3.633,3.751,3.751,0,0,0,1.211-1.376,3.681,3.681,0,0,0-4.534-5.119,25.748,25.748,0,0,0-45.957,21.276,3.611,3.611,0,0,0-1.83,1.72,3.674,3.674,0,0,0,4.645,5.071,25.827,25.827,0,0,0,4.879,5.952,25.739,25.739,0,0,0,1.2,16.349l18.131-4.707-16.17,8.5a25.748,25.748,0,0,0,47.416-11.188A3.667,3.667,0,0,0,743.3,427.035Z" transform="translate(-679.842 -180.348)" fill="#6c63ff"/><path d="M747.427,441.039a3.674,3.674,0,0,0-3.289-5.333,25.715,25.715,0,0,0-8.051-14.333c.11-.434.206-.86.289-1.294a9.07,9.07,0,0,0-1.328,1.177c-2.443,2.677-3.695,6.275-6.11,8.98-2.849,3.193-7.115,4.858-11.374,5.305a43.3,43.3,0,0,1-12.75-1.025c-3.482-.688-7.012-1.486-10.542-1.149a5.893,5.893,0,0,0-1,.131c.206.2.413.4.626.592a25.729,25.729,0,0,0,1.2,16.349l18.131-4.713-16.17,8.5a25.748,25.748,0,0,0,47.416-11.188A3.667,3.667,0,0,0,747.427,441.039Z" transform="translate(-683.974 -194.352)" opacity="0.1"/></g><g transform="translate(0 219.769)" opacity="0.1"><path d="M88.858,496.9c.881-2.677,4.452-3.908,7.975-2.752a8.766,8.766,0,0,1,1.466.633c.227-.062.461-.117.688-.158a7.743,7.743,0,0,1-.22-2.353A8.574,8.574,0,0,1,95,484.824a8.55,8.55,0,0,1-3.764-7.438,8.258,8.258,0,0,1-2.849-3.234c-1.693-3.358-1-7.135,1.576-8.443s6.035.378,7.734,3.736a8.254,8.254,0,0,1,.908,4.218,8.511,8.511,0,0,1,3.764,7.438,8.534,8.534,0,0,1,3.764,7.445,8.511,8.511,0,0,1,3.764,7.438,8.256,8.256,0,0,1,2.856,3.234,8.715,8.715,0,0,1,.688,2,7.321,7.321,0,0,1,1.534-1.645,8.679,8.679,0,0,1,.358-1.562c1.163-3.523,4.266-5.67,6.943-4.817s3.9,4.452,2.752,7.975a8.027,8.027,0,0,1-2.622,3.846,8.726,8.726,0,0,1-.358,1.555,7.638,7.638,0,0,1-3.516,4.418,8.847,8.847,0,0,1,.289,1.376,8.658,8.658,0,0,1,1.741,2.36,8.475,8.475,0,0,1,.867,2.807,8.645,8.645,0,0,1,1.748,2.36,8.529,8.529,0,0,1,.867,2.807,8.563,8.563,0,0,1,1.748,2.367c1.7,3.358,1,7.142-1.569,8.436s-6.035-.372-7.734-3.736a8.583,8.583,0,0,1-.867-2.807,8.736,8.736,0,0,1-2.615-5.168,8.735,8.735,0,0,1-2.615-5.167,8.655,8.655,0,0,1-1.748-2.36,8.749,8.749,0,0,1-.867-2.807,8.655,8.655,0,0,1-1.741-2.36,8.475,8.475,0,0,1-.867-2.807A7.988,7.988,0,0,1,104,504.91a8.186,8.186,0,0,1-4.252-.261,9.185,9.185,0,0,1-1.473-.64,7.988,7.988,0,0,1-4.645-.165C90.138,502.68,87.984,499.577,88.858,496.9Z" transform="translate(-27.281 -364.89)" fill="#3f3d56"/><g transform="translate(61.414 109.73)" opacity="0.1"><path d="M98.52,495.91a7.391,7.391,0,0,0,1.2.956,7.773,7.773,0,0,0,.385,2.918,8.232,8.232,0,0,1-.729-1.19A8.594,8.594,0,0,1,98.52,495.91Z" transform="translate(-92.143 -484.178)"/><path d="M93.05,485.11a7.73,7.73,0,0,0,1.2.95,7.837,7.837,0,0,0,.385,2.924A8.74,8.74,0,0,1,93.05,485.11Z" transform="translate(-90.437 -480.809)"/><path d="M105.455,480.387a7.61,7.61,0,0,0-.055-1.528,8.693,8.693,0,0,1,1.658,2.278,8.918,8.918,0,0,1,.523,1.294A7.857,7.857,0,0,0,105.455,480.387Z" transform="translate(-94.289 -478.86)"/><path d="M139.581,545.386a8,8,0,0,0-1.018-1.17,8.464,8.464,0,0,0-.3-1.376,9.148,9.148,0,0,1,1.321,2.546Z" transform="translate(-104.538 -498.816)"/><path d="M135.757,537.876a8,8,0,0,0-1.018-1.17,8.089,8.089,0,0,0-.289-1.376h0a8.713,8.713,0,0,1,1.294,2.532Z" transform="translate(-103.35 -496.474)"/><path d="M99.4,506.706a6.962,6.962,0,0,0,1.19.943,7.489,7.489,0,0,0,.22,2.353,6.748,6.748,0,0,0-.688.158,9.1,9.1,0,0,0-1.473-.633c-3.523-1.156-7.094.076-7.968,2.752a4.006,4.006,0,0,0-.117,2.064,4.769,4.769,0,0,1-1.142-4.548c.881-2.677,4.452-3.908,7.975-2.752a8.763,8.763,0,0,1,1.466.633c.227-.062.461-.117.688-.158A7.086,7.086,0,0,1,99.4,506.706Z" transform="translate(-89.253 -487.515)"/><path d="M142.06,550.31a8.809,8.809,0,0,1,.791,1.287,8.964,8.964,0,0,1,.53,1.294,8.091,8.091,0,0,0-1.018-1.177A8.5,8.5,0,0,0,142.06,550.31Z" transform="translate(-105.724 -501.146)"/><path d="M110.925,491.218a7.61,7.61,0,0,0-.055-1.528,8.6,8.6,0,0,1,1.658,2.278,8.841,8.841,0,0,1,.523,1.287A7.831,7.831,0,0,0,110.925,491.218Z" transform="translate(-95.995 -482.238)"/><path d="M118.426,535.52a8.258,8.258,0,0,0,.337,1.514,8.7,8.7,0,0,1-1.294-2.594A8.066,8.066,0,0,0,118.426,535.52Z" transform="translate(-98.054 -496.196)"/><path d="M126.02,550.553a8.708,8.708,0,0,0,.344,1.514,8.23,8.23,0,0,1-.729-1.19,8.894,8.894,0,0,1-.564-1.376A8.954,8.954,0,0,0,126.02,550.553Z" transform="translate(-100.424 -500.893)"/><path d="M122.226,543.043a8.256,8.256,0,0,0,.337,1.514,8.846,8.846,0,0,1-.729-1.19,8.709,8.709,0,0,1-.564-1.376A8.071,8.071,0,0,0,122.226,543.043Z" transform="translate(-99.239 -498.551)"/><path d="M114.642,528.016a8.2,8.2,0,0,0,.337,1.521,8.53,8.53,0,0,1-.688-1.19,8.434,8.434,0,0,1-.571-1.376A7.689,7.689,0,0,0,114.642,528.016Z" transform="translate(-96.884 -493.866)"/><path d="M135.423,508.286c-2.677-.881-5.78,1.266-6.936,4.817a8.682,8.682,0,0,0-.358,1.562,7.3,7.3,0,0,0-1.541,1.638,8.842,8.842,0,0,0-.722-2c-.117-.234-.248-.461-.385-.688a7.326,7.326,0,0,1,1.376-1.445,8.682,8.682,0,0,1,.358-1.562c1.163-3.523,4.266-5.67,6.943-4.817a4.768,4.768,0,0,1,2.986,3.619A4.082,4.082,0,0,0,135.423,508.286Z" transform="translate(-100.552 -487.203)"/><path d="M121.865,512.838a7.608,7.608,0,0,0-.055-1.528,8.6,8.6,0,0,1,1.658,2.278,8.92,8.92,0,0,1,.523,1.294A7.765,7.765,0,0,0,121.865,512.838Z" transform="translate(-99.408 -488.981)"/><path d="M116.4,502.018a7.66,7.66,0,0,0-.055-1.528A8.836,8.836,0,0,1,118,502.768a8.925,8.925,0,0,1,.523,1.294A7.857,7.857,0,0,0,116.4,502.018Z" transform="translate(-97.701 -485.607)"/><path d="M129.82,558.063a8.16,8.16,0,0,0,.344,1.521,8.633,8.633,0,0,1-.729-1.2,8.9,8.9,0,0,1-.564-1.376A8.936,8.936,0,0,0,129.82,558.063Z" transform="translate(-101.61 -503.236)"/></g><path d="M80.308,455.76a8.2,8.2,0,0,1-2.849-3.227c-1.7-3.365-1-7.142,1.569-8.443s6.035.372,7.734,3.736a8.207,8.207,0,0,1,.908,4.211,8.534,8.534,0,0,1,3.764,7.445,8.256,8.256,0,0,1,2.856,3.227,9.142,9.142,0,0,1,.523,1.28,7.278,7.278,0,0,0-3.736-2.752,4.239,4.239,0,0,1-5.313,2.776l-.075-.024a7.243,7.243,0,0,0,0,4.645A9.065,9.065,0,0,1,85,467.458a8.26,8.26,0,0,1-.915-4.211,8.554,8.554,0,0,1-3.764-7.445Z" transform="translate(-23.871 -358.148)" fill="#3f3d56"/><path d="M15.378,370.33a25.273,25.273,0,0,1-3.021-1.672l11.2-8.188-13.17,6.778a25,25,0,0,1-9.351-17.436l22.39.234L.99,346.288a24.971,24.971,0,1,1,49.412,6.33,25.3,25.3,0,0,1,4.6,2.752L43.3,371.638l14.044-14.23a24.991,24.991,0,0,1,6.991,22.741,24.971,24.971,0,1,1-35.024,17.711,24.963,24.963,0,0,1-13.934-27.524Z" transform="translate(-0.309 -320.43)" fill="#6c63ff"/><path d="M74.749,382.631a24.853,24.853,0,0,1,2.2,16.191,24.971,24.971,0,1,1-35.024,17.711C37.021,414.255,73.489,380.133,74.749,382.631Z" transform="translate(-12.924 -339.075)" opacity="0.1"/><circle cx="3.709" cy="3.709" r="3.709" transform="translate(29.987)" fill="#6c63ff"/><circle cx="3.709" cy="3.709" r="3.709" transform="translate(8.34 2.381)" fill="#6c63ff"/><circle cx="3.709" cy="3.709" r="3.709" transform="translate(0 35.677)" fill="#6c63ff"/><circle cx="3.709" cy="3.709" r="3.709" transform="translate(11.264 52.309)" fill="#6c63ff"/><circle cx="3.709" cy="3.709" r="3.709" transform="translate(26.65 86.844)" fill="#6c63ff"/><circle cx="3.709" cy="3.709" r="3.709" transform="translate(26.65 86.844)" opacity="0.1"/><circle cx="3.709" cy="3.709" r="3.709" transform="translate(60.868 47.726)" fill="#6c63ff"/><circle cx="3.709" cy="3.709" r="3.709" transform="translate(60.868 47.726)" opacity="0.1"/><path d="M96.194,479.083c2.463-1.245,3.206-4.768,1.768-8.023.076.138.151.268.22.406,1.7,3.365,1,7.142-1.576,8.443s-6.028-.372-7.727-3.736c-.069-.138-.138-.275-.2-.42C90.448,478.842,93.731,480.329,96.194,479.083Z" transform="translate(-27.66 -366.697)" opacity="0.1"/><path d="M101.507,489.6c2.463-1.245,3.213-4.775,1.775-8.023.076.131.151.268.22.406,1.7,3.365,1,7.142-1.576,8.443s-6.028-.372-7.727-3.736c-.076-.138-.138-.282-.2-.42C95.768,489.376,99.057,490.849,101.507,489.6Z" transform="translate(-29.32 -369.979)" opacity="0.1"/><path d="M106.827,500.113c2.463-1.245,3.213-4.768,1.768-8.023.083.138.151.268.227.413,1.7,3.358.991,7.142-1.576,8.436s-6.028-.372-7.727-3.736c-.076-.138-.138-.275-.2-.42C101.081,499.872,104.364,501.359,106.827,500.113Z" transform="translate(-30.979 -373.257)" opacity="0.1"/><path d="M112.147,510.633c2.463-1.245,3.213-4.768,1.768-8.023.076.131.151.268.22.406,1.706,3.365,1,7.142-1.569,8.443s-6.035-.372-7.734-3.736c-.069-.138-.131-.282-.193-.42C106.4,510.385,109.684,511.879,112.147,510.633Z" transform="translate(-32.638 -376.538)" opacity="0.1"/><path d="M117.464,521.146c2.463-1.245,3.206-4.769,1.768-8.016.076.131.151.268.22.406,1.7,3.365,1,7.142-1.569,8.443s-6.035-.378-7.734-3.736c-.069-.145-.131-.282-.2-.42C111.718,520.905,115,522.392,117.464,521.146Z" transform="translate(-34.295 -379.819)" opacity="0.1"/><path d="M122.784,531.663c2.463-1.245,3.207-4.768,1.768-8.023.076.138.151.268.22.406,1.7,3.365,1,7.142-1.569,8.443s-6.035-.372-7.734-3.736c-.069-.138-.138-.275-.2-.42C117.038,531.395,120.321,532.909,122.784,531.663Z" transform="translate(-35.954 -383.098)" opacity="0.1"/><path d="M128.1,542.183c2.456-1.245,3.206-4.775,1.768-8.023.076.131.151.268.22.406,1.7,3.365,1,7.142-1.576,8.443s-6.028-.378-7.727-3.736c-.069-.144-.138-.282-.2-.42C122.358,541.935,125.641,543.429,128.1,542.183Z" transform="translate(-37.613 -386.379)" opacity="0.1"/><path d="M133.417,552.693c2.463-1.245,3.213-4.768,1.768-8.023.083.138.151.268.227.413,1.7,3.358.991,7.142-1.576,8.436s-6.028-.372-7.727-3.736c-.076-.138-.138-.275-.2-.42C127.678,552.452,130.954,553.939,133.417,552.693Z" transform="translate(-39.273 -389.657)" opacity="0.1"/><path d="M136.944,559.6c2.463-1.245,3.206-4.768,1.768-8.023.076.138.151.268.22.413,1.7,3.358,1,7.142-1.569,8.436s-6.035-.372-7.734-3.736c-.069-.138-.138-.275-.2-.42C131.178,559.376,134.46,560.849,136.944,559.6Z" transform="translate(-40.371 -391.812)" opacity="0.1"/><path d="M43.062,508.037a12.783,12.783,0,0,1-.688-3.392,1.851,1.851,0,1,1,.282-3.681,12.949,12.949,0,0,1,6.805-8.773,1.854,1.854,0,0,1,3.31-1.672h0a1.681,1.681,0,0,1,.165.5,13.019,13.019,0,0,1,11.395,3.44,12.831,12.831,0,0,1,3.44-.1l1.5,6.826.034-6.585a12.97,12.97,0,0,1-5.843,25.274q-.553-.127-1.093-.3a1.9,1.9,0,0,1-.778.75,1.858,1.858,0,0,1-2.546-2.388,13.011,13.011,0,0,1-1.658-1.376,12.985,12.985,0,0,1-13.624-6.881l6.984-1.177Z" transform="translate(-12.641 -372.449)" fill="#6c63ff"/><g transform="translate(36.964 121.379)" opacity="0.1"><path d="M57.966,513.316c2.58-3.441,4.163-7.431,5.979-11.3a45.864,45.864,0,0,1,2.45-4.638l1.376-1.589c.234.2.461.4.688.605a12.835,12.835,0,0,1,3.44-.1l1.5,6.826.021-6.564a12.97,12.97,0,1,1-5.843,25.274q-.553-.127-1.093-.3a1.9,1.9,0,0,1-.778.75,1.858,1.858,0,0,1-2.546-2.388,13.011,13.011,0,0,1-1.658-1.376,13.071,13.071,0,0,1-7.782-1.149A18.3,18.3,0,0,0,57.966,513.316Z" transform="translate(-53.72 -495.79)"/></g><path d="M126.169,488.165a1.844,1.844,0,0,1,.809-2.479l.01,0a1.815,1.815,0,0,1,.839-.2,12.972,12.972,0,0,1,4.053-7.225,12.869,12.869,0,0,1-.378-4.053l6.805-1.142-6.613-.42a12.867,12.867,0,0,1,.5-1.83,1.816,1.816,0,0,1-.612-.688,1.858,1.858,0,0,1,2.284-2.58,12.814,12.814,0,0,1,4.727-4.08,12.964,12.964,0,0,1,18.42,14.794,1.851,1.851,0,0,1-1.417,3.42,12.9,12.9,0,0,1-2.456,2.986,13.006,13.006,0,0,1-.6,8.257l-9.1-2.395,8.14,4.287a12.977,12.977,0,0,1-22.59-1.06,13.154,13.154,0,0,1-1.335-4.576A1.838,1.838,0,0,1,126.169,488.165Z" transform="translate(-39.291 -363.889)" fill="#6c63ff"/><path d="M126.169,495.215a1.844,1.844,0,0,1,.809-2.479l.01,0a1.815,1.815,0,0,1,.839-.2,12.972,12.972,0,0,1,4.053-7.225c-.055-.213-.1-.433-.145-.647a5.042,5.042,0,0,1,.688.592c1.232,1.376,1.865,3.158,3.076,4.521a8.884,8.884,0,0,0,5.732,2.677,21.7,21.7,0,0,0,6.42-.516,18.832,18.832,0,0,1,5.312-.585l.509.069-.317.3a13.006,13.006,0,0,1-.6,8.257l-9.124-2.395,8.14,4.287a12.977,12.977,0,0,1-22.59-1.06,13.154,13.154,0,0,1-1.335-4.576A1.838,1.838,0,0,1,126.169,495.215Z" transform="translate(-39.291 -370.939)" opacity="0.1"/></g><path d="M327.43,43.5a13.916,13.916,0,0,0-8.078.881,11.916,11.916,0,0,1-9.7,0,13.6,13.6,0,0,0-11.409.227,7.069,7.069,0,0,1-3.282.819c-4.624,0-8.47-4.658-9.269-10.8A9,9,0,0,0,288,32.137c2.711-4.369,6.881-7.177,11.622-7.177s8.869,2.752,11.581,7.094a8.944,8.944,0,0,0,7.679,4.225h.124C322.654,36.258,325.84,39.21,327.43,43.5Z" transform="translate(-89.11 -7.785)" fill="#6c63ff" opacity="0.1"/><path d="M341.468,16.452,334,21.193l4.535-8.257a7.39,7.39,0,0,0-4.521-1.61h-.117a8.906,8.906,0,0,1-1.548-.117l-2.539,1.61,1.087-1.975a9.078,9.078,0,0,1-4.431-3.337l-4.548,2.842,2.862-5.209A13.264,13.264,0,0,0,314.619,0c-4.713,0-8.945,2.807-11.629,7.177a8.684,8.684,0,0,1-7.686,4.129h-.227c-5.2,0-9.427,5.9-9.427,13.184s4.225,13.177,9.427,13.177a7.069,7.069,0,0,0,3.282-.819,13.57,13.57,0,0,1,11.409-.22,11.954,11.954,0,0,0,9.7,0,13.59,13.59,0,0,1,11.305.22,7.125,7.125,0,0,0,3.248.8c5.209,0,9.427-5.9,9.427-13.177A16.761,16.761,0,0,0,341.468,16.452Z" transform="translate(-89.097 0)" fill="#6c63ff" opacity="0.1"/><path d="M93.32,178.423a19.957,19.957,0,0,0-11.539,1.252,17,17,0,0,1-13.858-.034,19.416,19.416,0,0,0-16.294.323,10.15,10.15,0,0,1-4.693,1.17c-6.606,0-12.1-6.654-13.246-15.434a12.672,12.672,0,0,0,3.3-3.557c3.874-6.241,9.874-10.253,16.61-10.253s12.661,3.963,16.514,10.136a12.743,12.743,0,0,0,11.009,6.035H81.3C86.515,168.053,91.07,172.271,93.32,178.423Z" transform="translate(-10.508 -47.376)" fill="#6c63ff" opacity="0.1"/><path d="M113.381,139.748,102.7,146.519l6.482-11.787a10.555,10.555,0,0,0-6.461-2.305h-.172a12.512,12.512,0,0,1-2.216-.165l-3.606,2.333,1.555-2.821a12.868,12.868,0,0,1-6.33-4.817l-6.482,4.129,4.08-7.5c-3.791-4.548-8.9-7.335-14.512-7.335-6.736,0-12.737,4-16.61,10.246a12.421,12.421,0,0,1-11.009,5.924h-.365c-7.438,0-13.466,8.429-13.466,18.833s6.028,18.833,13.466,18.833a10.047,10.047,0,0,0,4.693-1.177,19.416,19.416,0,0,1,16.294-.317,17,17,0,0,0,13.858.034,19.44,19.44,0,0,1,16.156.31,10.082,10.082,0,0,0,4.638,1.149c7.438,0,13.466-8.436,13.466-18.833A23.922,23.922,0,0,0,113.381,139.748Z" transform="translate(-10.477 -36.26)" fill="#6c63ff" opacity="0.1"/><path d="M747.97,82.488a13.927,13.927,0,0,1,8.078.881,11.9,11.9,0,0,0,9.7,0,13.6,13.6,0,0,1,11.408.227,7.1,7.1,0,0,0,3.282.819c4.624,0,8.477-4.658,9.275-10.8a8.906,8.906,0,0,1-2.312-2.491c-2.7-4.383-6.915-7.211-11.643-7.211S766.892,66.662,764.181,71a8.946,8.946,0,0,1-7.693,4.246h-.117C752.711,75.243,749.518,78.195,747.97,82.488Z" transform="translate(-233.3 -19.934)" fill="#6c63ff" opacity="0.1"/><path d="M726.61,55.468l7.473,4.727-4.541-8.257a7.4,7.4,0,0,1,4.521-1.61h.124a8.906,8.906,0,0,0,1.548-.117l2.532,1.61-1.087-1.975a9.09,9.09,0,0,0,4.473-3.323l4.534,2.876-2.869-5.209a13.224,13.224,0,0,1,10.163-5.14c4.713,0,8.945,2.807,11.629,7.177a8.677,8.677,0,0,0,7.686,4.129h.248c5.209,0,9.427,5.9,9.427,13.184s-4.218,13.177-9.427,13.177a7.115,7.115,0,0,1-3.282-.819,13.57,13.57,0,0,0-11.409-.22,11.938,11.938,0,0,1-9.7,0,13.6,13.6,0,0,0-11.312.22,7.1,7.1,0,0,1-3.248.8c-5.2,0-9.427-5.9-9.427-13.177A16.762,16.762,0,0,1,726.61,55.468Z" transform="translate(-226.031 -12.18)" fill="#6c63ff" opacity="0.1"/><path d="M499.861,636.225,377.25,634.65l.365-3.145,5.924-51.875H491.218l7.92,51.875.606,3.936Z" transform="translate(-117.668 -180.793)" fill="#d0d2d5"/><path d="M499.744,658.956H438.559l-61.309-.791.365-3.145H499.138Z" transform="translate(-117.668 -204.308)" opacity="0.1"/><rect width="162.699" height="3.929" transform="translate(239.146 451.504)" fill="#d0d2d5"/><path d="M594.4,122.176a10.232,10.232,0,0,0-10.184-10.266H129.854a10.232,10.232,0,0,0-10.184,10.28h0V397.6H594.4Z" transform="translate(-37.326 -34.906)" fill="#3f3d56"/><path d="M119.67,523.1v32.258a10.184,10.184,0,0,0,10.184,10.184H584.213A10.184,10.184,0,0,0,594.4,555.358V523.1Z" transform="translate(-37.326 -163.16)" fill="#d0d2d5"/><rect width="437.783" height="247.582" transform="translate(101.996 94.275)" fill="#fff"/><path d="M463.256,557.365a10.6,10.6,0,0,0,8.346-4.053h0a10.981,10.981,0,0,0,.826-1.211l-5.828-.984,6.3.041a10.611,10.611,0,0,0,.2-8.4l-8.443,4.376,7.789-5.725a10.61,10.61,0,1,0-17.526,11.876h0A10.6,10.6,0,0,0,463.256,557.365Z" transform="translate(-141.189 -167.225)" fill="#6c63ff"/><path d="M483.48,584.77,532.4,633.9l-7.507-49.13Z" transform="translate(-150.802 -182.396)" opacity="0.1"/><rect width="438.258" height="14.464" transform="translate(101.651 94.303)" fill="#444053" opacity="0.1"/><rect width="132.044" height="8.801" rx="0.58" transform="translate(253.816 96.821)" fill="#6c63ff" opacity="0.3"/><path d="M552.793,146.437h-.323l-.117-.1a2.677,2.677,0,0,0,.619-1.713,2.6,2.6,0,1,0-2.594,2.622,2.681,2.681,0,0,0,1.713-.626l.117.1v.323l2.016,2.016.6-.606Zm-2.415,0a1.817,1.817,0,1,1,1.81-1.823v.007a1.8,1.8,0,0,1-1.789,1.817Z" transform="translate(-170.855 -44.304)" fill="#3f3d56"/><circle cx="2.649" cy="2.649" r="2.649" transform="translate(106.881 98.885)" fill="#fa5959" opacity="0.8"/><circle cx="2.649" cy="2.649" r="2.649" transform="translate(114.168 98.885)" fill="#fed253" opacity="0.8"/><circle cx="2.649" cy="2.649" r="2.649" transform="translate(121.462 98.885)" fill="#8ccf4d" opacity="0.8"/><g transform="translate(182.157 245.27)"><path d="M332.589,375.779c-5.443,5.436-6.1,7.83-9.365,8.911s-15.028,7.17-11.333,13.92l9.936,6.564.289.193,1.521,4.569-15.028,26.753s-24.771-11.326-27.2,5.429-.888,21.331-1.541,30.276.213,11.532-1.968,11.532-3.041-5.876-3.041-5.876-.138-.268-.378-.771c-3.241-6.736-25.239-56.189,10-90.181,0,0,16.322-1.073,20.25-19.789,2.711-12.936,12.193-11.821,18.5-9.186a20.9,20.9,0,0,1,5.656,3.323,27.826,27.826,0,0,1,4.053,4.817C334.729,369.1,335.706,372.655,332.589,375.779Z" transform="translate(-264.728 -356.451)" fill="#d0d2d5"/><path d="M325.845,427.468l1.521,4.569L312.338,458.79s-24.771-11.326-27.2,5.429S284.25,485.55,283.6,494.5s.213,11.532-1.968,11.532-3.041-5.876-3.041-5.876-.138-.268-.378-.771c-1.094-8.367-6.64-57.311,13.466-54.71,0,0,16.315,7.624,18.923,4.583,2.064-2.408,11.23-16.26,14.959-21.943Z" transform="translate(-268.457 -378.553)" opacity="0.1"/><path d="M350.266,366.963l-9.936,11.292S328.791,393.7,326.4,393.042a11.184,11.184,0,0,0-2.181-.255,4.238,4.238,0,0,1-2.752-7.142c3.936-4.129,11.188-11.966,11.663-13.707s5.092-9.372,7.4-13.108a20.9,20.9,0,0,1,5.656,3.323A27.865,27.865,0,0,1,350.266,366.963Z" transform="translate(-282.061 -357.193)" opacity="0.1"/><path d="M633.753,552.62c-1.686,3.372-10.321,16.019-14.1,21.544l-1.768,2.6s-.688,4.569-11.966-1.094S329.666,458.2,329.666,458.2l-1.8-5.395,13.074-19.576L631.366,545.437S635.935,548.265,633.753,552.62Z" transform="translate(-284.423 -380.399)" fill="#454b69"/><path d="M619.654,583.038l-1.768,2.6s-.688,4.569-11.966-1.094S329.666,467.075,329.666,467.075l-1.8-5.395Z" transform="translate(-284.423 -389.273)" opacity="0.1"/></g><ellipse cx="22.218" cy="4.273" rx="22.218" ry="4.273" transform="translate(537.274 446.962)" fill="#6c63ff"/><ellipse cx="2.587" cy="3.385" rx="2.587" ry="3.385" transform="translate(556.534 446.033)" fill="#3f3d56"/><ellipse cx="2.587" cy="3.385" rx="2.587" ry="3.385" transform="translate(556.534 441.891)" fill="#3f3d56"/><ellipse cx="2.587" cy="3.385" rx="2.587" ry="3.385" transform="translate(556.534 437.756)" fill="#3f3d56"/><ellipse cx="2.587" cy="3.385" rx="2.587" ry="3.385" transform="translate(556.534 433.613)" fill="#3f3d56"/><ellipse cx="2.587" cy="3.385" rx="2.587" ry="3.385" transform="translate(556.534 429.471)" fill="#3f3d56"/><ellipse cx="2.587" cy="3.385" rx="2.587" ry="3.385" transform="translate(556.534 425.336)" fill="#3f3d56"/><ellipse cx="2.587" cy="3.385" rx="2.587" ry="3.385" transform="translate(556.534 421.193)" fill="#3f3d56"/><path d="M816.614,566.827a12.514,12.514,0,0,0,.963-1.417l-6.8-1.115,7.356.048a12.462,12.462,0,0,0,.234-9.819l-9.867,5.119,9.1-6.688a12.386,12.386,0,1,0-20.45,13.872,12.334,12.334,0,0,0-1.417,2.257l8.828,4.589-9.413-3.158a12.385,12.385,0,0,0,2,11.615,12.386,12.386,0,1,0,19.48,0,12.386,12.386,0,0,0,0-15.324Z" transform="translate(-247.812 -170.549)" fill="#6c63ff"/><path d="M794.47,586.927a12.324,12.324,0,0,0,2.67,7.665,12.386,12.386,0,1,0,19.48,0C818.264,592.48,794.47,585.537,794.47,586.927Z" transform="translate(-247.803 -183.012)" opacity="0.1"/><ellipse cx="31.989" cy="6.152" rx="31.989" ry="6.152" transform="translate(70.137 528.405)" fill="#6c63ff"/><ellipse cx="3.723" cy="4.879" rx="3.723" ry="4.879" transform="translate(97.867 527.063)" fill="#3f3d56"/><ellipse cx="3.723" cy="4.879" rx="3.723" ry="4.879" transform="translate(97.867 521.104)" fill="#3f3d56"/><ellipse cx="3.723" cy="4.879" rx="3.723" ry="4.879" transform="translate(97.867 515.145)" fill="#3f3d56"/><ellipse cx="3.723" cy="4.879" rx="3.723" ry="4.879" transform="translate(97.867 509.186)" fill="#3f3d56"/><ellipse cx="3.723" cy="4.879" rx="3.723" ry="4.879" transform="translate(97.867 503.227)" fill="#3f3d56"/><ellipse cx="3.723" cy="4.879" rx="3.723" ry="4.879" transform="translate(97.867 497.262)" fill="#3f3d56"/><ellipse cx="3.723" cy="4.879" rx="3.723" ry="4.879" transform="translate(97.867 491.303)" fill="#3f3d56"/><path d="M153.435,648.735a18.823,18.823,0,0,0,1.376-2.064l-9.785-1.61,10.583.083a17.892,17.892,0,0,0,.337-14.14l-14.188,7.39,13.074-9.633a17.842,17.842,0,1,0-29.471,19.955,17.769,17.769,0,0,0-2.064,3.248l12.709,6.606-13.549-4.548a17.842,17.842,0,0,0,2.931,16.782,17.842,17.842,0,1,0,28.047,0,17.835,17.835,0,0,0,0-22.06Z" transform="translate(-37.905 -193.329)" fill="#6c63ff"/><path d="M121.59,677.788a17.788,17.788,0,0,0,3.819,11.009,17.842,17.842,0,1,0,28.047,0C155.829,685.756,121.59,675.758,121.59,677.788Z" transform="translate(-37.925 -211.325)" opacity="0.1"/><g transform="translate(284.422 187.53)"><g transform="translate(0 0)"><rect width="75.695" height="75.695" rx="7.09" fill="#3740ff"/><path d="M49.8,55.2H38.266a1.246,1.246,0,1,0,0,2.491H49.8a1.246,1.246,0,0,0,0-2.491Z" transform="translate(-8.556 -12.758)" fill="#fff"/><path d="M38.266,33.791H49.8a1.246,1.246,0,0,0,0-2.491H38.266a1.246,1.246,0,0,0,0,2.491Z" transform="translate(-8.557 -7.234)" fill="#fff"/><path d="M62.831,31.32a10.433,10.433,0,0,0-10.357,9.226H38.266a1.246,1.246,0,1,0,0,2.491H52.474A10.434,10.434,0,1,0,62.831,31.32Zm0,18.314a7.881,7.881,0,1,1,7.881-7.881h0A7.889,7.889,0,0,1,62.831,49.634Z" transform="translate(-8.556 -7.239)" fill="#fff"/><path d="M23.664,40.816l-.915-.254-.515-.146c-3.345-.946-4.705-1.538-4.705-3.329,0-2.606,3.191-3.3,4.875-3.3a6.5,6.5,0,0,1,4.705,1.668,1.28,1.28,0,0,0,1.914-1.7h0a8.986,8.986,0,0,0-6.62-2.53c-3.691,0-7.435,2.014-7.435,5.859s3.491,4.921,6.566,5.79l.507.146.946.261c3.075.838,4.444,1.392,4.444,3.175,0,2.922-3.521,3.237-5.036,3.237a7.686,7.686,0,0,1-5.382-2.022,1.279,1.279,0,0,0-1.876,1.738h0a10.256,10.256,0,0,0,7.235,2.837c5.6,0,7.6-2.991,7.6-5.8C30,42.53,26.486,41.577,23.664,40.816Z" transform="translate(-3.42 -7.216)" fill="#fff"/><path d="M51.414,66.621a4.034,4.034,0,0,0-1.907-.392H46.694a.52.52,0,0,0-.392.169.555.555,0,0,0-.161.4v7.527a.546.546,0,0,0,.538.554h.015a.555.555,0,0,0,.4-.161.52.52,0,0,0,.169-.392V71.688H49.5a4.046,4.046,0,0,0,1.914-.392,2.429,2.429,0,0,0,1.061-1.007,2.915,2.915,0,0,0,0-2.66A2.424,2.424,0,0,0,51.414,66.621Zm-.254,3.529a2.561,2.561,0,0,1-1.768.477h-2.13V67.29h2.13a2.561,2.561,0,0,1,1.768.477,1.653,1.653,0,0,1,.046,2.337Z" transform="translate(-10.664 -15.307)" fill="#fff"/><path d="M59.808,69.241a.515.515,0,0,0-.384-.161h-.062a2.422,2.422,0,0,0-1.93,1.153V69.71a.569.569,0,0,0-.569-.569.52.52,0,0,0-.392.169.555.555,0,0,0-.161.4v5.274a.546.546,0,0,0,.538.554h.015a.555.555,0,0,0,.4-.161.52.52,0,0,0,.169-.392V71.24a2.491,2.491,0,0,1,.823-.769,2.1,2.1,0,0,1,1.084-.292H59.4a.575.575,0,0,0,.407-.146.489.489,0,0,0,.161-.384A.547.547,0,0,0,59.808,69.241Z" transform="translate(-13.015 -15.967)" fill="#fff"/><path d="M66.061,69.5a2.862,2.862,0,0,0-1.538-.423,2.832,2.832,0,0,0-1.638.454,2.736,2.736,0,0,0-.984,1.192,4,4,0,0,0-.323,1.615,3.275,3.275,0,0,0,.846,2.407,3.136,3.136,0,0,0,2.307.853,3.847,3.847,0,0,0,2.153-.538.531.531,0,0,0,.323-.454.447.447,0,0,0-.146-.346.492.492,0,0,0-.346-.138.486.486,0,0,0-.223.046,3.755,3.755,0,0,1-.769.284,3.677,3.677,0,0,1-.907.1,2.206,2.206,0,0,1-1.538-.477,2.023,2.023,0,0,1-.607-1.346h4.167a.538.538,0,0,0,.568-.507c0-.015,0-.032,0-.047a3.479,3.479,0,0,0-.346-1.538A2.742,2.742,0,0,0,66.061,69.5Zm-3.383,2.307a2,2,0,0,1,.308-1.007,1.65,1.65,0,0,1,.677-.6,1.873,1.873,0,0,1,1.645,0,1.7,1.7,0,0,1,.684.6,1.971,1.971,0,0,1,.315,1.007Z" transform="translate(-14.231 -15.966)" fill="#fff"/><path d="M74.988,73.746c0,.884-.623,1.838-2.376,1.838a3.139,3.139,0,0,1-2.245-.884.469.469,0,0,1-.013-.664l.013-.013a.478.478,0,0,1,.338-.131.5.5,0,0,1,.338.154,2.238,2.238,0,0,0,1.538.577c.423,0,1.415-.085,1.415-.877,0-.469-.384-.623-1.261-.861l-.377-.123c-.961-.269-2.045-.577-2.045-1.83s1.169-1.853,2.307-1.853a2.806,2.806,0,0,1,2.053.769.479.479,0,1,1-.715.638,1.854,1.854,0,0,0-1.338-.469c-.469,0-1.369.185-1.369.892,0,.484.392.638,1.346.907l.431.115C73.9,72.193,74.988,72.493,74.988,73.746Z" transform="translate(-16.231 -15.966)" fill="#fff"/><path d="M82.244,73.746c0,.884-.623,1.838-2.376,1.838a3.181,3.181,0,0,1-2.245-.884.452.452,0,0,1-.123-.338.479.479,0,0,1,.83-.308,2.247,2.247,0,0,0,1.538.569c.423,0,1.415-.085,1.415-.877,0-.469-.384-.623-1.261-.861l-.438-.123c-.961-.269-2.045-.577-2.045-1.83s1.169-1.853,2.307-1.853a2.738,2.738,0,0,1,2.061.769.469.469,0,0,1-.03.663l-.016.014a.46.46,0,0,1-.346.115.47.47,0,0,1-.331-.161h0a1.906,1.906,0,0,0-1.338-.461c-.477,0-1.369.185-1.369.892,0,.484.392.638,1.346.907l.423.123C81.152,72.193,82.244,72.485,82.244,73.746Z" transform="translate(-17.912 -15.965)" fill="#fff"/></g></g></svg>