<svg xmlns="http://www.w3.org/2000/svg" xmlns:xlink="http://www.w3.org/1999/xlink" width="1680" height="800" viewBox="0 0 1680 800"><defs><clipPath id="a"><rect width="1680" height="800" fill="#f8f9fb"/></clipPath></defs><g clip-path="url(#a)"><g transform="translate(-1605.187 -1524.6)"><g transform="translate(203.883)"><circle cx="493.36" cy="493.36" r="493.36" transform="translate(1040.44 1040.44)" fill="none" stroke="#e8e7ff" stroke-miterlimit="10" stroke-width="1"/><circle cx="201.432" cy="201.432" r="201.432" transform="translate(1332.369 1332.369)" fill="none" stroke="#e8e7ff" stroke-miterlimit="10" stroke-width="1"/><g transform="translate(795.996 795.996)"><circle cx="737.804" cy="737.804" r="737.804" transform="translate(0 0)" fill="none" stroke="#e8e7ff" stroke-miterlimit="10" stroke-width="1" stroke-dasharray="40 10 80"/></g><circle cx="992.713" cy="992.713" r="992.713" transform="translate(541.087 541.087)" fill="none" stroke="#e8e7ff" stroke-miterlimit="10" stroke-width="1" stroke-dasharray="0 10 460"/><circle cx="1316.278" cy="1316.278" r="1316.278" transform="translate(217.522 217.522)" fill="none" stroke="#e8e7ff" stroke-miterlimit="10" stroke-width="1" stroke-dasharray="0 10 460"/><circle cx="1533.8" cy="1533.8" r="1533.8" fill="none" stroke="#e8e7ff" stroke-miterlimit="10" stroke-width="1" stroke-dasharray="0 10 460"/><circle cx="546.112" cy="546.112" r="546.112" transform="translate(987.688 987.688)" fill="none" stroke="#e8e7ff" stroke-miterlimit="10" stroke-width="1" stroke-dasharray="40 10 80"/><path d="M1016.9,663.112" transform="translate(516.901 870.688)" fill="none" stroke="#e8e7ff" stroke-miterlimit="10" stroke-width="1"/></g><g transform="translate(395.32 650.056)"><line x1="410.7" y1="706.481" transform="translate(832.134)" fill="none" stroke="#e8e7ff" stroke-miterlimit="10" stroke-width="1"/><line x1="1161.273" y1="680.85" transform="translate(0 108.731)" fill="none" stroke="#e8e7ff" stroke-miterlimit="10" stroke-width="1"/><line x1="466.469" transform="translate(673.259 883.745)" fill="none" stroke="#e8e7ff" stroke-miterlimit="10" stroke-width="1"/><line x1="702.653" y2="418.187" transform="translate(458.619 975.788)" fill="none" stroke="#e8e7ff" stroke-miterlimit="10" stroke-width="1"/><line y2="819.16" transform="translate(1342.363 1085.044)" fill="none" stroke="#e8e7ff" stroke-miterlimit="10" stroke-width="1"/><line x2="219.716" y2="387.943" transform="translate(1445.968 1055.81)" fill="none" stroke="#e8e7ff" stroke-miterlimit="10" stroke-width="1"/><line x2="109.269" y2="64.916" transform="translate(1521.366 977.044)" fill="none" stroke="#e8e7ff" stroke-miterlimit="10" stroke-width="1"/><line y1="416.067" x2="706.273" transform="translate(1519.835 373.514)" fill="none" stroke="#e8e7ff" stroke-miterlimit="10" stroke-width="1"/><path d="M1016.9,681.73l41.876-61.518,160.43-235.678,223.725-84.909" transform="translate(428.401 24.751)" fill="none" stroke="#e8e7ff" stroke-miterlimit="10" stroke-width="1"/></g><circle cx="19.373" cy="19.373" r="19.373" transform="translate(508.799 814.869)" fill="none" stroke="#e8e7ff" stroke-miterlimit="10" stroke-width="1"/><circle cx="19.373" cy="19.373" r="19.373" transform="translate(707.763 931.494)" fill="none" stroke="#e8e7ff" stroke-miterlimit="10" stroke-width="1"/><circle cx="16.178" cy="16.178" r="16.178" transform="translate(1228.146 717.922)" fill="none" stroke="#e8e7ff" stroke-miterlimit="10" stroke-width="1"/><circle cx="19.373" cy="19.373" r="19.373" transform="translate(2146.26 1267.96)" fill="none" stroke="#e8e7ff" stroke-miterlimit="10" stroke-width="1"/><circle cx="9.373" cy="9.373" r="9.373" transform="translate(1918.709 1850.938)" fill="#f8f9fb" stroke="#e8e7ff" stroke-miterlimit="10" stroke-width="1"/><circle cx="32.373" cy="32.373" r="32.373" transform="translate(3008.709 1668.938)" fill="#f8f9fb" stroke="#e8e7ff" stroke-miterlimit="10" stroke-width="1"/><circle cx="144.373" cy="144.373" r="144.373" transform="translate(3073.709 1850.938)" fill="#f8f9fb" stroke="#e8e7ff" stroke-miterlimit="10" stroke-width="1"/><path d="M-112.276,1070.365l779,178.1,424.8-412.655,40.526-490.063L364.914-229.331" transform="translate(112.276 389.754)" fill="none" stroke="#e8e7ff" stroke-miterlimit="10" stroke-width="1"/><circle cx="19.282" cy="19.282" r="19.282" transform="translate(755.89 1618.934)" fill="none" stroke="#e8e7ff" stroke-miterlimit="10" stroke-width="1"/><circle cx="8.373" cy="8.373" r="8.373" transform="translate(1730.412 2171.855) rotate(-90)" fill="#f8f9fb" stroke="#e8e7ff" stroke-miterlimit="10" stroke-width="1"/><circle cx="8.373" cy="8.373" r="8.373" transform="translate(3061.899 2301.855) rotate(-90)" fill="#f8f9fb" stroke="#e8e7ff" stroke-miterlimit="10" stroke-width="1"/><circle cx="7.373" cy="7.373" r="7.373" transform="translate(1730.311 1850.938)" fill="#f8f9fb" stroke="#e8e7ff" stroke-miterlimit="10" stroke-width="1"/></g></g></svg>