<svg xmlns="http://www.w3.org/2000/svg" width="1680" height="800"><defs><clipPath id="a"><path fill="#f8f9fb" d="M0 0h1680v800H0z"/></clipPath></defs><g clip-path="url(#a)"><g transform="translate(-1605.187 -1524.6)"><g transform="translate(203.883)"><circle cx="493.36" cy="493.36" r="493.36" transform="translate(1040.44 1040.44)" fill="none" stroke="#e8e7ff" stroke-miterlimit="10"/><circle cx="201.432" cy="201.432" r="201.432" transform="translate(1332.369 1332.369)" fill="none" stroke="#e8e7ff" stroke-miterlimit="10"/><circle cx="737.804" cy="737.804" r="737.804" transform="translate(795.996 795.996)" fill="none" stroke="#e8e7ff" stroke-miterlimit="10" stroke-dasharray="40 10 80"/><circle cx="992.713" cy="992.713" r="992.713" transform="translate(541.087 541.087)" fill="none" stroke="#e8e7ff" stroke-miterlimit="10" stroke-dasharray="0 10 460"/><circle cx="1316.278" cy="1316.278" r="1316.278" transform="translate(217.522 217.522)" fill="none" stroke="#e8e7ff" stroke-miterlimit="10" stroke-dasharray="0 10 460"/><circle cx="1533.8" cy="1533.8" r="1533.8" fill="none" stroke="#e8e7ff" stroke-miterlimit="10" stroke-dasharray="0 10 460"/><circle cx="546.112" cy="546.112" r="546.112" transform="translate(987.688 987.688)" fill="none" stroke="#e8e7ff" stroke-miterlimit="10" stroke-dasharray="40 10 80"/></g><g fill="none" stroke="#e8e7ff" stroke-miterlimit="10"><path d="m1638.154 1356.537-410.7-706.481M1556.593 1439.637 395.32 758.787M1535.048 1533.801h-466.469M1556.592 1625.844l-702.653 418.187M1737.683 1735.1v819.16M1841.288 1705.866l219.716 387.943M1916.686 1627.1l109.269 64.916M1915.155 1439.637l706.273-416.067M1840.621 1356.537l41.876-61.518 160.43-235.678 223.725-84.909"/></g><circle cx="19.373" cy="19.373" r="19.373" transform="translate(508.799 814.869)" fill="none" stroke="#e8e7ff" stroke-miterlimit="10"/><circle cx="19.373" cy="19.373" r="19.373" transform="translate(707.763 931.494)" fill="none" stroke="#e8e7ff" stroke-miterlimit="10"/><circle cx="16.178" cy="16.178" r="16.178" transform="translate(1228.146 717.922)" fill="none" stroke="#e8e7ff" stroke-miterlimit="10"/><circle cx="19.373" cy="19.373" r="19.373" transform="translate(2146.26 1267.96)" fill="none" stroke="#e8e7ff" stroke-miterlimit="10"/><circle cx="9.373" cy="9.373" r="9.373" transform="translate(1918.709 1850.938)" fill="#f8f9fb" stroke="#e8e7ff" stroke-miterlimit="10"/><circle cx="32.373" cy="32.373" r="32.373" transform="translate(3008.709 1668.938)" fill="#f8f9fb" stroke="#e8e7ff" stroke-miterlimit="10"/><circle cx="144.373" cy="144.373" r="144.373" transform="translate(3073.709 1850.938)" fill="#f8f9fb" stroke="#e8e7ff" stroke-miterlimit="10"/><path d="m0 1460.119 779 178.1 424.8-412.655 40.526-490.063L477.19 160.423" fill="none" stroke="#e8e7ff" stroke-miterlimit="10"/><circle cx="19.282" cy="19.282" r="19.282" transform="translate(755.89 1618.934)" fill="none" stroke="#e8e7ff" stroke-miterlimit="10"/><circle cx="8.373" cy="8.373" r="8.373" transform="rotate(-90 1951.134 220.721)" fill="#f8f9fb" stroke="#e8e7ff" stroke-miterlimit="10"/><circle cx="8.373" cy="8.373" r="8.373" transform="rotate(-90 2681.877 -380.022)" fill="#f8f9fb" stroke="#e8e7ff" stroke-miterlimit="10"/><circle cx="7.373" cy="7.373" r="7.373" transform="translate(1730.311 1850.938)" fill="#f8f9fb" stroke="#e8e7ff" stroke-miterlimit="10"/></g></g></svg>