<svg width="270" height="269" fill="none" xmlns="http://www.w3.org/2000/svg"><g opacity=".1"><mask id="a" fill="#fff"><path fill-rule="evenodd" clip-rule="evenodd" d="M239.518 273.284c-29.837 17.622-67.201 17.621-97.038-.001l-43.042 43.043c54.357 39.816 128.765 39.816 183.122.001l-43.042-43.043Zm-130.802-33.765c-17.621-29.837-17.621-67.201 0-97.038L65.674 99.439c-39.815 54.357-39.815 128.765 0 183.122l43.042-43.042Zm33.765-130.802L99.439 65.675c54.356-39.816 128.765-39.816 183.122-.001l-43.042 43.042c-29.838-17.622-67.201-17.621-97.038.001Zm130.802 33.763 43.042-43.042c39.817 54.358 39.817 128.767 0 183.125l-43.042-43.043c17.623-29.837 17.623-67.202 0-97.04Zm52.775 183.578c74.528-74.529 74.59-195.325.185-269.93l-.185-.187-.082-.081-.105-.104c-74.605-74.403-195.4-74.341-269.928.187-74.59 74.59-74.59 195.525 0 270.115s195.525 74.59 270.115 0Zm-92.852-177.263c23.309 23.309 23.309 61.101 0 84.411-23.31 23.309-61.102 23.309-84.411 0-23.31-23.31-23.31-61.102 0-84.411 23.309-23.31 61.101-23.31 84.411 0Z"/></mask><path d="m142.48 273.283.509-.861-.668-.394-.548.548.707.707Zm97.038.001.707-.707-.548-.548-.668.394.509.861Zm-140.08 43.042-.707-.708-.825.825.941.689.591-.806Zm183.122.001.591.807.941-.69-.824-.824-.708.707ZM108.716 142.481l.861.509.395-.668-.549-.548-.707.707Zm0 97.038.707.707.549-.548-.395-.668-.861.509ZM65.674 99.439l.707-.707-.824-.825-.69.941.807.591Zm0 183.122-.807.591.69.941.824-.825-.707-.707Zm76.807-173.844-.708.707.549.548.667-.394-.508-.861ZM99.439 65.675l-.591-.807-.941.69.824.824.708-.707Zm183.122-.001.707.707.825-.825-.941-.689-.591.807Zm-43.042 43.042-.509.861.667.394.549-.548-.707-.707Zm33.764 33.764-.707-.707-.548.548.394.668.861-.509Zm43.042-43.042.807-.59-.689-.942-.825.825.707.707Zm0 183.125-.707.707.825.825.689-.941-.807-.591Zm-43.042-43.043-.861-.508-.395.667.549.549.707-.708Zm52.96-183.392-.715.7.006.006.709-.706Zm-.185 269.93.707.707-.707-.707Zm0-270.117-.707.707.707-.707Zm-.082-.081.704-.71-.704.71Zm-.105-.104-.706.709.007.006.699-.715Zm-269.928.187-.707-.707.707.707Zm0 270.115-.707.707.707-.707Zm92.852-92.852-.708.707.708-.707Zm0-84.411-.708-.708.708.708Zm-6.823 125.349c30.151 17.808 67.903 17.808 98.054.001l-1.017-1.722c-29.523 17.436-66.497 17.436-96.02-.001l-1.017 1.722Zm-41.827 42.889 43.043-43.043-1.415-1.414-43.042 43.042 1.414 1.415Zm181.825-1.513c-54.006 39.558-127.936 39.557-181.941-.001l-1.182 1.613c54.709 40.074 129.595 40.074 184.304.002l-1.181-1.614Zm-43.159-41.529 43.042 43.043 1.415-1.414-43.043-43.043-1.414 1.414ZM107.855 141.973c-17.807 30.151-17.807 67.903 0 98.054l1.722-1.017c-17.436-29.523-17.436-66.497 0-96.02l-1.722-1.017Zm-42.888-41.827 43.042 43.042 1.414-1.414-43.042-43.042-1.414 1.414Zm1.514 181.824c-39.558-54.005-39.558-127.935 0-181.94l-1.613-1.182c-40.074 54.709-40.074 129.595 0 184.304l1.613-1.182Zm41.528-43.158-43.042 43.042 1.414 1.414 43.042-43.042-1.414-1.414Zm35.179-130.802-43.042-43.042-1.415 1.414 43.042 43.042 1.415-1.414Zm-43.159-41.529c54.006-39.558 127.936-39.558 181.941 0l1.182-1.614c-54.709-40.073-129.596-40.073-184.304 0l1.181 1.614Zm181.825-1.514-43.043 43.042 1.415 1.414 43.042-43.042-1.414-1.414Zm-41.827 42.888c-30.151-17.807-67.904-17.807-98.055.001l1.017 1.722c29.524-17.437 66.497-17.437 96.021-.001l1.017-1.722Zm33.963 35.332 43.043-43.042-1.415-1.414-43.042 43.042 1.414 1.414Zm41.529-43.158c39.559 54.006 39.559 127.937-.001 181.943l1.614 1.182c40.074-54.71 40.074-129.597 0-184.307l-1.613 1.182Zm1.513 181.827-43.042-43.043-1.414 1.415 43.042 43.042 1.414-1.414Zm-42.888-41.827c17.808-30.152 17.808-67.906 0-98.057l-1.722 1.017c17.438 29.524 17.437 66.499 0 96.023l1.722 1.017Zm51.39-183.195c74.016 74.214 73.955 194.378-.183 268.517l1.414 1.414c74.919-74.919 74.98-196.348.186-271.343l-1.417 1.412Zm-.183-.186.177.18 1.429-1.4-.192-.194-1.414 1.414Zm-.079-.078.079.078 1.414-1.414-.085-.085-1.408 1.42Zm-.1-.099.1.099 1.408-1.42-.11-.108-1.398 1.43ZM56.65 56.65c74.138-74.138 194.3-74.2 268.515-.186l1.412-1.416c-74.996-74.793-196.423-74.73-271.341.188l1.414 1.414Zm0 268.701c-74.2-74.2-74.2-194.501 0-268.701l-1.414-1.414c-74.981 74.98-74.981 196.548 0 271.529l1.414-1.414Zm268.701 0c-74.2 74.199-194.502 74.199-268.701 0l-1.414 1.414c74.98 74.981 196.548 74.981 271.529 0l-1.414-1.414Zm-91.438-91.438c23.7-23.7 23.7-62.126 0-85.826l-1.415 1.415c22.919 22.919 22.919 60.077 0 82.996l1.415 1.415Zm-85.826 0c23.7 23.7 62.126 23.7 85.826 0l-1.415-1.415c-22.919 22.919-60.077 22.919-82.996 0l-1.415 1.415Zm0-85.826c-23.699 23.7-23.699 62.126 0 85.826l1.415-1.415c-22.919-22.919-22.919-60.077 0-82.996l-1.415-1.415Zm85.826 0c-23.7-23.7-62.126-23.7-85.826 0l1.415 1.415c22.919-22.919 60.077-22.919 82.996 0l1.415-1.415Z" fill="#4E21E7" mask="url(#a)"/></g></svg>