<svg width="578" height="318" fill="none" xmlns="http://www.w3.org/2000/svg"><g opacity=".4" clip-path="url(#a)" stroke="#EE485F" stroke-opacity=".3" stroke-miterlimit="10"><g style="mix-blend-mode:overlay" opacity=".7"><path d="M645.302 502.82c58.064 41.081 138.448 27.296 179.544-30.788 41.095-58.084 27.34-138.474-30.723-179.555-58.064-41.08-138.448-27.296-179.544 30.788-41.096 58.085-27.34 138.474 30.723 179.555ZM237.071 167.93c41.117 29.091 98.041 19.329 127.142-21.803 29.102-41.132 19.361-98.059-21.756-127.15-41.117-29.09-98.041-19.33-127.142 21.802-29.102 41.133-19.361 98.059 21.756 127.151Z"/><path d="M34.688 71.753c58.414 41.329 139.283 27.461 180.627-30.974 41.343-58.434 27.505-139.309-30.909-180.637C125.993-181.187 45.123-167.32 3.78-108.885-37.564-50.45-23.726 30.425 34.688 71.753ZM556.081 628.925c127.684 90.339 304.453 60.027 394.824-67.704 90.375-127.73 60.125-304.51-67.561-394.849-127.685-90.339-304.454-60.027-394.825 67.704-90.371 127.73-60.123 304.51 67.562 394.849Z"/><path d="M538.83 653.307c141.145 99.863 336.55 66.355 436.449-74.841 99.901-141.196 66.461-336.613-74.684-436.476-141.146-99.863-336.551-66.355-436.449 74.841-99.899 141.197-66.462 336.614 74.684 436.476Z"/><path d="M426.203 812.493c229.03 162.042 546.104 107.671 708.207-121.441 162.1-229.112 107.84-546.206-121.19-708.248-229.029-162.042-546.102-107.671-708.203 121.442-162.1 229.112-107.843 546.205 121.186 708.247Z"/></g><path d="M408.963-277.627 908.157 807.144M274.417-52.077 1314.76 998.614M188.02 146.588l1202.35 567.741M344 456.592l761.52-119.782"/></g><defs><clipPath id="a"><path fill="#fff" transform="rotate(35.28 972.553 205.38)" d="M0 0h1710.09v1016.74H0z"/></clipPath></defs></svg>