<svg version="1.1" id="Calque_1" xmlns="http://www.w3.org/2000/svg" x="0" y="0" viewBox="0 0 80 80" style="enable-background:new 0 0 80 80" xml:space="preserve"><style>.st1{opacity:.3;enable-background:new}.st1,.st2{fill:#4e21e7}</style><path d="M6.7 0h66.7C77.1 0 80 3 80 6.7v66.6c0 3.8-2.9 6.7-6.7 6.7H6.7C2.9 80 0 77 0 73.3V6.7C0 3 2.9 0 6.7 0z" style="fill:#fff;enable-background:new"/><path class="st1" d="M40.8 51.3h-1.6c-1 0-1.9-.8-1.9-1.9 0-1 .8-1.9 1.9-1.9H40.9c1 0 1.9.8 1.9 1.9 0 1-.9 1.8-2 1.9.1 0 0 0 0 0zM24.6 41.6H23c-1 0-1.9-.8-1.9-1.9 0-1 .8-1.9 1.9-1.9H24.7c1 0 1.9.8 1.9 1.9 0 1-.9 1.9-2 1.9.1 0 .1 0 0 0zM40.8 32h-1.6c-1 0-1.9-.8-1.9-1.9 0-1 .8-1.9 1.9-1.9H40.9c1 0 1.9.8 1.9 1.9 0 1-.9 1.9-2 1.9.1 0 .1 0 0 0z"/><path class="st2" d="M32.7 51.3H23c-1 0-1.9-.8-1.9-1.9 0-1 .8-1.9 1.9-1.9H32.8c1 0 1.9.8 1.9 1.9 0 1-.8 1.8-2 1.9zM57 41.6h-9.7c-1 0-1.9-.8-1.9-1.9 0-1 .8-1.9 1.9-1.9H57.1c1 0 1.9.8 1.9 1.9 0 1-.9 1.9-2 1.9.1 0 0 0 0 0zM40.8 41.6H31c-1 0-1.9-.8-1.9-1.9 0-1 .8-1.9 1.9-1.9H40.8c1 0 1.9.8 1.9 1.9.1 1-.8 1.9-1.9 1.9.1 0 0 0 0 0zM57 32h-9.7c-1 0-1.9-.8-1.9-1.9 0-1 .8-1.9 1.9-1.9H57.1c1 0 1.9.8 1.9 1.9 0 1-.9 1.9-2 1.9.1 0 0 0 0 0zM32.7 32H23c-1 0-1.9-.8-1.9-1.9 0-1 .8-1.9 1.9-1.9H32.8c1 0 1.9.8 1.9 1.9 0 1-.8 1.9-2 1.9z"/></svg>