<svg id="Calque_1" data-name="Calque 1" xmlns="http://www.w3.org/2000/svg" viewBox="0 0 114 64"><defs><style>.cls-1,.cls-7{stroke-width:0}.cls-1{fill:#551eef}.cls-7{fill:#fff}</style></defs><rect id="Conteneur_Picto-3" data-name="Conteneur Picto-3" x="1.67" y="2.09" width="60" height="60" rx="5" ry="5" style="fill:#ede8fd;stroke-width:0"/><rect x="14.3" y="19.55" width="34.74" height="25" rx="2.55" ry="2.55" style="isolation:isolate;opacity:.3;fill:#551eef;stroke-width:0"/><rect class="cls-1" x="19.67" y="24.04" width="10" height="3" rx="1.5" ry="1.5"/><rect class="cls-1" x="19.67" y="30.55" width="24" height="3" rx="1.5" ry="1.5"/><rect class="cls-1" x="19.67" y="37.06" width="24" height="3" rx="1.5" ry="1.5"/><rect x="44.67" y="8.84" width="65" height="25" rx="12.5" ry="12.5" style="fill:#4e21e7;stroke-width:0"/><path class="cls-7" d="M73.13 22.09c-.33-.7-.83-1.9-1.16-2.82l-.19.02c.07 1.07.14 2.59.14 3.47v2.17h-1.61v-7.2h2.45l1.26 2.41c.46.89.94 2.12 1.22 2.99l.19-.02c-.08-1.04-.14-2.3-.14-3.15v-2.22h1.59v7.2h-2.29l-1.46-2.84ZM78.11 17.74h5.45v1.5h-3.71v1.39h3.41v1.34h-3.41v1.46h3.69v1.5h-5.43v-7.2ZM88.11 24.94h-2.4l-1.75-7.2h1.86l.61 3.08c.17.91.32 1.75.44 2.64h.26c.12-.91.25-1.76.42-2.64l.62-3.08h2.18l.62 3.08c.16.85.28 1.71.4 2.64h.26c.12-.88.28-1.72.43-2.64l.56-3.08h1.78l-1.71 7.2h-2.52l-.52-3.03c-.13-.84-.29-1.83-.41-2.75h-.22c-.13.91-.3 1.92-.44 2.75l-.49 3.03ZM96.71 23.22v1.71h-1.78v-1.71h1.78ZM95 22.27v-4.53h1.64v4.53H95Z"/><path style="fill:#ffa200;stroke-width:0" d="m64.14 15.39-6.52 6.54h4.08l-3.48 5.36 7.75-7.04H61.8l2.34-4.86z"/><path style="fill:#ffffda;stroke-width:0" d="m63.38 16.56-4.32 4.78h3.66l-3.32 4.52 4.98-5.07H61l2.38-4.23z"/></svg>