<svg width="40" height="40" fill="none" xmlns="http://www.w3.org/2000/svg"><g clip-path="url(#a)"><path d="M36.667 0H3.333A3.333 3.333 0 0 0 0 3.333v33.334A3.333 3.333 0 0 0 3.333 40h33.334A3.333 3.333 0 0 0 40 36.667V3.333A3.333 3.333 0 0 0 36.667 0Z" fill="#F2EFFB"/><path opacity=".3" d="M20 31.428c-6.312 0-11.429-5.116-11.429-11.428C8.571 13.688 13.688 8.57 20 8.57S31.429 13.688 31.429 20 26.312 31.42 20 31.428Zm0-20.492c-5.002 0-9.064 4.062-9.064 9.064s4.062 9.064 9.064 9.064 9.064-4.062 9.064-9.064-4.062-9.055-9.064-9.064Z" fill="#4E21E7"/><path d="M27.587 26.225 22.73 21.37a3.352 3.352 0 0 0 .415-1.579 3.365 3.365 0 0 0-3.355-3.361c-1.853-.007-3.354 1.502-3.361 3.354a3.365 3.365 0 0 0 3.354 3.362c.554 0 1.095-.148 1.579-.414l4.856 4.856a.966.966 0 0 0 1.369-.028.97.97 0 0 0 0-1.34v.006Z" fill="#4E21E7"/></g><defs><clipPath id="a"><path fill="#fff" d="M0 0h40v40H0z"/></clipPath></defs></svg>