<svg width="40" height="40" fill="none" xmlns="http://www.w3.org/2000/svg"><g clip-path="url(#a)"><path d="M36.667 0H3.333A3.333 3.333 0 0 0 0 3.333v33.334A3.333 3.333 0 0 0 3.333 40h33.334A3.333 3.333 0 0 0 40 36.667V3.333A3.333 3.333 0 0 0 36.667 0Z" fill="#F2EFFB"/><path d="M9.693 11.547h20.614c.8-.014 1.46.626 1.473 1.426v14.06c-.013.8-.673 1.44-1.473 1.427H9.693c-.8.013-1.46-.627-1.473-1.427v-14.06c.013-.8.673-1.44 1.473-1.426Z" fill="#CABCF8"/><path d="M17.773 16.693h-4.886c-.554 0-1-.446-1-1 0-.553.446-1 1-1h4.886c.554 0 1 .447 1 1 0 .554-.446 1-1 1ZM27.107 21h-14.22c-.554 0-1-.447-1-1 0-.553.446-1 1-1h14.22c.553 0 1 .447 1 1 0 .553-.447 1-1 1ZM27.107 25.307h-14.22c-.554 0-1-.447-1-1 0-.554.446-1 1-1h14.22c.553 0 1 .446 1 1 0 .553-.447 1-1 1Z" fill="#4E21E7"/></g><defs><clipPath id="a"><path fill="#fff" d="M0 0h40v40H0z"/></clipPath></defs></svg>