<?xml version="1.0" encoding="UTF-8"?>
<svg id="a" data-name="Calque 1" xmlns="http://www.w3.org/2000/svg" width="64" height="64" viewBox="0 0 64 64">
  <rect id="b" data-name="Conteneur Picto-3" x="2" y="1.872" width="60" height="60" rx="5" ry="5" fill="#4e21e7" isolation="isolate" opacity=".1"/>
  <g>
    <path d="M46.658,31.043c1.233-.115,2.422.714,2.012,2.061-.183.603-1.325,1.812-1.783,2.337-1.272,1.458-2.871,3.365-4.29,4.63-1.487,1.325-4.914,2.783-6.847,3.381-1.922.595-3.776.17-5.727-.068-1.824-.223-3.769-.96-5.316.321-.414.343-.503.485-.689.959-.154.392-1.645,1.729-2.051,2.07-.506.425-1.055.509-1.551.002-1.485-1.977-3.339-3.785-4.822-5.746-.42-.556-.512-1.041.022-1.576,1.245-.986,2.567-1.885,3.782-2.908,2.951-2.489,4.607-5.423,9.091-4.192,1.029.282,2.104.78,3.141.979,1.402.269,2.807.154,4.203.257,1.66.123,3.037,1.386,1.975,3.04-.896,1.394-2.712,1.064-4.107,1.076-.726.006-1.467-.007-2.181,0-.691.007-.655.572-.097.634,2.176-.25,5.294.765,6.859-1.189.18-.225.298-.573.459-.753.197-.22.804-.608,1.078-.813,1.988-1.491,4.01-2.992,6.098-4.324.239-.079.49-.155.742-.179Z" fill="#4e21e7" isolation="isolate" opacity=".3"/>
    <path d="M24.358,16.694c.53-.051,1.192-.033,1.717.048,2.529.394,4.401,2.604,6.268,4.153,2.49-2.304,5.037-5.052,8.809-4.008,1.936.536,3.674,2.333,4.155,4.28,1.246,5.043-3.499,9.509-8.401,7.286-1.694-.768-3.106-2.209-4.522-3.383-1.3,1.029-2.501,2.246-3.96,3.059-4.963,2.763-10.195-1.244-9.124-6.7.459-2.337,2.648-4.503,5.058-4.735ZM24.745,19.795c-2.91.351-3.441,4.566-.816,5.83,1.269.611,2.347.158,3.431-.549.943-.615,1.808-1.403,2.63-2.168-.576-.538-1.156-1.08-1.77-1.574-.998-.804-2.111-1.703-3.476-1.539ZM39.094,19.794c-1.54.194-3.245,2.067-4.427,2.991l-.068.118c1.686,1.415,3.896,3.982,6.315,2.589,2.781-1.601,1.47-6.112-1.82-5.698Z" fill="#4e21e7"/>
  </g>
</svg>