<svg width="56" height="56" fill="none" xmlns="http://www.w3.org/2000/svg"><g clip-path="url(#a)"><path d="M51.333 0H4.667A4.667 4.667 0 0 0 0 4.667v46.666A4.667 4.667 0 0 0 4.667 56h46.666A4.667 4.667 0 0 0 56 51.333V4.667A4.667 4.667 0 0 0 51.333 0Z" fill="#F2EFFB"/><g clip-path="url(#b)" fill="#4E21E7"><path opacity=".3" d="M33.68 39c0-1.26-1.02-2.28-2.28-2.28h-.57V34.7c-.81.22-1.66.33-2.54.33-.88 0-1.73-.12-2.54-.33v2.02h-.57c-1.26 0-2.28 1.02-2.28 2.28h10.78ZM40.52 19.18h-4.06V16H20.12v3.18h-4.06c-.59 0-1.06.48-1.06 1.06v1.8c0 3.78 2.79 6.9 6.42 7.45a8.131 8.131 0 0 0 6.87 3.77c2.89 0 5.42-1.51 6.87-3.77 3.63-.54 6.42-3.67 6.42-7.45v-1.8c0-.59-.48-1.06-1.06-1.06Zm-23.31 2.87v-.66h2.92v3.71c0 .62.07 1.22.21 1.8a5.336 5.336 0 0 1-3.12-4.85h-.01Zm22.17 0c0 2.15-1.28 4.01-3.12 4.85.13-.58.21-1.18.21-1.8v-3.71h2.92v.66h-.01Z"/><path d="m28.29 18.84 1.68 3.4 3.75.55-2.71 2.65.64 3.74-3.36-1.77-3.36 1.77.64-3.74-2.71-2.65 3.75-.55 1.68-3.4Z"/></g></g><defs><clipPath id="a"><path fill="#fff" d="M0 0h56v56H0z"/></clipPath><clipPath id="b"><path fill="#fff" transform="translate(15 16)" d="M0 0h26.58v23H0z"/></clipPath></defs></svg>