<svg width="40" height="40" fill="none" xmlns="http://www.w3.org/2000/svg"><g clip-path="url(#a)"><path d="M36.667 0H3.333A3.333 3.333 0 0 0 0 3.333v33.334A3.333 3.333 0 0 0 3.333 40h33.334A3.333 3.333 0 0 0 40 36.667V3.333A3.333 3.333 0 0 0 36.667 0Z" fill="#F2EFFB"/><path d="M9.621 11.852h20.614c.8-.013 1.46.627 1.473 1.427v14.06c-.013.8-.673 1.44-1.473 1.427H9.62c-.8.013-1.46-.627-1.473-1.427v-14.06c.013-.8.673-1.44 1.473-1.427Z" fill="#CABCF8"/><path d="M12.553 15.334H10.63c-.554 0-1-.447-1-1 0-.554.446-1 1-1h1.923c.554 0 1 .446 1 1 0 .553-.446 1-1 1Z" fill="#4E21E7"/><rect x="31.104" y="26.934" width="4.714" height="1.857" rx=".929" transform="rotate(45 31.104 26.934)" fill="#4E21E7" stroke="#4E21E7"/><circle cx="26.948" cy="24.091" r="4.929" transform="rotate(-45 26.948 24.091)" stroke="#4E21E7" stroke-width="3"/></g><defs><clipPath id="a"><path fill="#fff" d="M0 0h40v40H0z"/></clipPath></defs></svg>