<svg version="1.1" id="Calque_1" xmlns="http://www.w3.org/2000/svg" x="0" y="0" viewBox="0 0 80 80" style="enable-background:new 0 0 80 80" xml:space="preserve"><style>.st1{fill:#4e21e7}</style><path d="M5 0h70c2.8 0 5 2.2 5 5v70c0 2.8-2.2 5-5 5H5c-2.8 0-5-2.2-5-5V5c0-2.8 2.2-5 5-5z" style="fill:#fff;enable-background:new"/><path class="st1" d="M44.1 47.5c-2.2 1.2-4.8 1.2-6.8 0l-11.2-5.9V49c0 4 6.5 7.3 14.6 7.3S55.2 53 55.2 49v-7.4l-11.1 5.9z"/><path d="M44.1 23.8c-2.2-1.2-4.8-1.2-6.8 0l-18.4 9.8c-1.2.6-1.7 2.1-1 3.3.3.4.6.8 1 1l18.4 9.6c2.2 1.2 4.8 1.2 6.8 0l18.4-9.8c1.2-.6 1.7-2.1 1-3.3-.3-.4-.6-.8-1-1l-18.4-9.6z" style="opacity:.3;fill:#4e21e7;enable-background:new"/><path class="st1" d="m56 32-9.1 5.1c-1.3.6-2.8.3-3.5-1-.6-1.3-.3-2.8 1-3.5l9.1-5.1c1.3-.6 2.8-.3 3.5 1 .7 1.3.1 2.7-1 3.5z"/></svg>