<svg version="1.1" id="Calque_1" xmlns="http://www.w3.org/2000/svg" x="0" y="0" viewBox="0 0 80 80" style="enable-background:new 0 0 80 80" xml:space="preserve"><style>.st2{fill:#4e21e7}</style><path d="M6.7 0h66.7C77 0 80 3 80 6.7v66.7c0 3.7-3 6.7-6.7 6.7H6.7C3 80 0 77 0 73.3V6.7C0 3 3 0 6.7 0z" style="fill:#fff"/><path d="M50.4 61.4H29.6c-3.7 0-6.7-3-6.7-6.7V25.2c0-3.7 3-6.7 6.7-6.7h20.9c3.7 0 6.7 3 6.7 6.7v29.6c-.1 3.7-3.1 6.6-6.8 6.6z" style="opacity:.3;fill:#4e21e7;enable-background:new"/><path class="st2" d="M37.8 37.6h-6c-1.2 0-2.2-1-2.2-2.2 0-1.2 1-2.2 2.2-2.2h6c1.2 0 2.2 1 2.2 2.2 0 1.2-1 2.2-2.2 2.2zM44.5 18.6H49v42.9h-4.5V18.6z"/></svg>