<svg id="Calque_1" data-name="Calque 1" xmlns="http://www.w3.org/2000/svg" viewBox="0 0 114 64"><defs><style>.cls-1{isolation:isolate;opacity:.3}.cls-1,.cls-4,.cls-6{stroke-width:0}.cls-1,.cls-4{fill:#4e21e7}.cls-6{fill:#fff}</style></defs><g id="Others"><rect id="Conteneur_Picto-18" data-name="Conteneur Picto-18" x="1.67" y="2.09" width="60" height="60" rx="5" ry="5" style="fill:#ede8fd;stroke-width:0"/><path class="cls-1" d="M39.48 36.43c-.79 0-1.43-2.85-1.43-3.64v-3.33c0-3.28-2.39-6.11-5.56-6.54v-1.04c0-.46-.37-.83-.83-.83s-.83.37-.83.83v1.04c-3.13.41-5.56 3.08-5.56 6.32v3.54c0 .79-.64 3.64-1.43 3.64-.83 0-1.51.68-1.51 1.51s.68 1.51 1.51 1.51h15.63c.83 0 1.51-.68 1.51-1.51s-.68-1.51-1.51-1.51h.01ZM28.42 40.25c.2 1.62 1.57 2.88 3.25 2.88s3.05-1.26 3.25-2.88h-6.5Z"/><path class="cls-4" d="M40.83 31.16c-.46 0-.82-.36-.82-.82v-.13c0-2.75-1.07-5.32-2.93-7.09-.33-.32-.35-.84-.03-1.17s.84-.34 1.17-.03c2.19 2.08 3.45 5.08 3.45 8.24v.16c0 .45-.38.84-.83.84ZM22.51 31.18a.83.83 0 0 1-.83-.81v-.21c0-3.16 1.26-6.16 3.45-8.24.33-.31.86-.3 1.17.03s.3.86-.03 1.17c-1.87 1.77-2.93 4.33-2.93 7.04v.17c.02.46-.34.84-.8.85h-.03Z"/></g><rect class="cls-4" x="44.67" y="8.84" width="65" height="25" rx="12.5" ry="12.5"/><path class="cls-6" d="M73.13 22.09c-.33-.7-.83-1.9-1.16-2.82l-.19.02c.07 1.07.14 2.59.14 3.47v2.17h-1.61v-7.2h2.45l1.26 2.41c.46.89.94 2.12 1.22 2.99l.19-.02c-.08-1.04-.14-2.3-.14-3.15v-2.22h1.59v7.2h-2.29l-1.46-2.84ZM78.11 17.74h5.45v1.5h-3.71v1.39h3.41v1.34h-3.41v1.46h3.69v1.5h-5.43v-7.2ZM88.11 24.94h-2.4l-1.75-7.2h1.86l.61 3.08c.17.91.32 1.75.44 2.64h.26c.12-.91.25-1.76.42-2.64l.62-3.08h2.18l.62 3.08c.16.85.28 1.71.4 2.64h.26c.12-.88.28-1.72.43-2.64l.56-3.08h1.78l-1.71 7.2h-2.52l-.52-3.03c-.13-.84-.29-1.83-.41-2.75h-.22c-.13.91-.3 1.92-.44 2.75l-.49 3.03ZM96.71 23.22v1.71h-1.78v-1.71h1.78ZM95 22.27v-4.53h1.64v4.53H95Z"/><path style="fill:#ffa200;stroke-width:0" d="m64.14 15.39-6.52 6.54h4.08l-3.48 5.36 7.75-7.04H61.8l2.34-4.86z"/><path style="fill:#ffffda;stroke-width:0" d="m63.38 16.56-4.32 4.78h3.66l-3.32 4.52 4.98-5.07H61l2.38-4.23z"/></svg>