<svg width="32" height="32" fill="none" xmlns="http://www.w3.org/2000/svg"><g clip-path="url(#a)"><path d="M29.333 0H2.667A2.667 2.667 0 0 0 0 2.667v26.666A2.667 2.667 0 0 0 2.667 32h26.666A2.667 2.667 0 0 0 32 29.333V2.667A2.667 2.667 0 0 0 29.333 0Z" fill="#F2EFFB"/><path d="M10.709 9.616a.572.572 0 1 0-.846.769l1.374 1.512c-2.594 1.592-3.71 4.046-3.759 4.158a.572.572 0 0 0 0 .464c.025.056.63 1.398 1.975 2.743C11.245 21.053 13.509 22 16 22a9.08 9.08 0 0 0 3.72-.773l1.57 1.729a.57.57 0 1 0 .847-.768L10.709 9.616Zm6.357 8.692a2.286 2.286 0 0 1-2.977-3.275l2.977 3.275Zm7.456-1.79c-.03.068-.753 1.67-2.383 3.13a.572.572 0 0 1-.804-.041L14.1 11.648a.572.572 0 0 1 .329-.948A9.575 9.575 0 0 1 16 10.572c2.492 0 4.755.947 6.547 2.739 1.345 1.345 1.95 2.687 1.975 2.744a.572.572 0 0 1 0 .464Z" fill="#4E21E7"/></g><defs><clipPath id="a"><path fill="#fff" d="M0 0h32v32H0z"/></clipPath></defs></svg>