<svg width="56" height="56" fill="none" xmlns="http://www.w3.org/2000/svg"><g clip-path="url(#a)"><path d="M51.333 0H4.667A4.667 4.667 0 0 0 0 4.667v46.666A4.667 4.667 0 0 0 4.667 56h46.666A4.667 4.667 0 0 0 56 51.333V4.667A4.667 4.667 0 0 0 51.333 0Z" fill="#F2EFFB"/><circle cx="28" cy="28" r="14.5" transform="rotate(-45 28 28)" stroke="#CABCF8" stroke-width="3"/><rect width="11" height="4" rx="2" transform="scale(1 -1) rotate(-45 -24.713 -52.834)" fill="#4E21E7"/><rect width="11" height="4" rx="2" transform="scale(1 -1) rotate(-45 -14.213 -27.485)" fill="#4E21E7"/><rect width="11" height="4" rx="2" transform="scale(-1 1) rotate(45 -47.885 -12.764)" fill="#4E21E7"/><rect width="11" height="4" rx="2" transform="scale(-1 1) rotate(45 -37.385 -38.113)" fill="#4E21E7"/><circle cx="28" cy="28" r="6.5" transform="rotate(-45 28 28)" stroke="#CABCF8" stroke-width="3"/></g><defs><clipPath id="a"><path fill="#fff" d="M0 0h56v56H0z"/></clipPath></defs></svg>