<svg width="56" height="56" fill="none" xmlns="http://www.w3.org/2000/svg"><g clip-path="url(#a)"><path d="M51.333 0H4.667A4.667 4.667 0 0 0 0 4.667v46.666A4.667 4.667 0 0 0 4.667 56h46.666A4.667 4.667 0 0 0 56 51.333V4.667A4.667 4.667 0 0 0 51.333 0Z" fill="#F2EFFB"/><path d="M15.533 19.723a4.392 4.392 0 0 1 2.743 2.74.757.757 0 0 0 1.447.004 4.393 4.393 0 0 1 2.74-2.742.757.757 0 0 0 .004-1.448 4.393 4.393 0 0 1-2.742-2.74.757.757 0 0 0-1.448-.004 4.393 4.393 0 0 1-2.74 2.743.757.757 0 0 0-.004 1.447ZM40.467 36.277a4.392 4.392 0 0 1-2.742-2.74.757.757 0 0 0-1.448-.004 4.393 4.393 0 0 1-2.74 2.742.757.757 0 0 0-.004 1.448 4.393 4.393 0 0 1 2.742 2.74.757.757 0 0 0 1.448.004 4.393 4.393 0 0 1 2.74-2.742.757.757 0 0 0 .004-1.448Z" fill="#CABCF8"/><path d="m30.486 32.287-1.209-.403a8.2 8.2 0 0 1-5.161-5.161l-.403-1.21a.752.752 0 0 0-1.426.001l-.403 1.209a8.2 8.2 0 0 1-5.161 5.161l-1.21.403a.752.752 0 0 0 .001 1.426l1.209.403a8.2 8.2 0 0 1 5.16 5.161l.404 1.209a.752.752 0 0 0 1.427 0l.402-1.209a8.2 8.2 0 0 1 5.161-5.161l1.209-.403a.752.752 0 0 0 0-1.426Z" fill="#4E21E7"/><path d="M34.5 28a.765.765 0 0 0 .731-.54 8.343 8.343 0 0 1 5.226-5.228.765.765 0 0 0 .004-1.463 8.343 8.343 0 0 1-5.229-5.226.765.765 0 0 0-1.463-.004 8.343 8.343 0 0 1-5.226 5.229.765.765 0 0 0-.004 1.463 8.343 8.343 0 0 1 5.228 5.225.765.765 0 0 0 .733.544Z" fill="#CABCF8"/></g><defs><clipPath id="a"><path fill="#fff" d="M0 0h56v56H0z"/></clipPath></defs></svg>