<svg id="a" xmlns="http://www.w3.org/2000/svg" viewBox="0 0 60 60" width="40" height="40"><defs><style>.d{opacity:.3;}.d,.e{isolation:isolate;}.d,.e,.f{stroke-width:0px;}.d,.f{fill:#4e21e7;}.e{fill:#f2effb;}</style></defs><g id="b"><rect id="c" class="e" x="0" y="0" width="60" height="60" rx="5" ry="5"/><path class="d" d="M29.05,24.98h-2.87c-.4,0-.72.32-.72.72v8.59c0,.4.32.72.72.72h2.87c.4,0,.72-.32.72-.72v-8.59c0-.4-.32-.72-.72-.72Z"/><path class="d" d="M23.33,29.27h-2.87c-.4,0-.72.32-.72.72v4.29c0,.4.32.72.72.72h2.87c.4,0,.72-.32.72-.72v-4.29c0-.4-.32-.72-.72-.72Z"/><path class="f" d="M34.78,20.68h-2.87c-.4,0-.72.32-.72.72v12.88c0,.4.32.72.72.72h2.87c.4,0,.72-.32.72-.72v-12.88c0-.4-.32-.72-.72-.72Z"/><path class="d" d="M49.62,47.44l-6.82-6.82c3.07-3.38,4.96-7.84,4.97-12.77,0-10.51-8.52-19.02-19.02-19.02S9.73,17.34,9.73,27.85s8.52,19.02,19.02,19.02c3.99,0,7.7-1.24,10.75-3.35l7.02,7.02c.42.42.99.64,1.55.64s1.13-.22,1.55-.64c.86-.86.86-2.25,0-3.1h-.01ZM12.64,27.85c0-8.9,7.2-16.09,16.09-16.09s16.08,7.21,16.09,16.09c0,8.9-7.2,16.09-16.09,16.09s-16.09-7.2-16.09-16.09Z"/></g></svg>
