<?xml version="1.0" encoding="UTF-8" standalone="no"?><svg xmlns="http://www.w3.org/2000/svg" width="78.986" height="116.155" viewBox="0 0 78.986 116.155"><g transform="translate(-201.47 -38.846)"><g transform="translate(-11.638 32.606)"><rect width="62.829" height="40.798" rx="2" transform="translate(213.108 81.596)" fill="#6940f7"/><path d="M270.667,64.6H220.5a1.632,1.632,0,0,0-1.632,1.632v21.03l26.716,20.717L272.3,87.263V66.233A1.632,1.632,0,0,0,270.667,64.6Z" transform="translate(-1.06)" fill="#fff"/><g transform="translate(236.954 78.441)"><path d="M247.642,90.989h-4.823a.523.523,0,0,0,0,1.043h4.823a.523.523,0,0,0,0-1.043Z" transform="translate(-242.333 -83.298)" fill="#0c082f"/><path d="M242.819,82.606h4.823a.523.523,0,0,0,0-1.043h-4.823a.523.523,0,0,0,0,1.043Z" transform="translate(-242.333 -81.563)" fill="#0c082f"/><path d="M257.441,85.419a4.369,4.369,0,0,0-8.676,0H242.83a.523.523,0,0,0,0,1.043h5.935a4.369,4.369,0,0,0,8.676-1.039ZM253.1,89.234h0a3.3,3.3,0,1,1,3.3-3.3A3.3,3.3,0,0,1,253.1,89.234Z" transform="translate(-242.335 -81.564)" fill="#0c082f"/></g></g><rect width="27" height="33" rx="2" transform="translate(219.238 45.205) rotate(25)" fill="#334eff"/><rect width="17.051" height="20.84" rx="2" transform="translate(266.32 38.846) rotate(34)" fill="#0da49a"/></g></svg>