<svg width="40" height="40" fill="none" xmlns="http://www.w3.org/2000/svg"><g clip-path="url(#a)"><path d="M36.667 0H3.333A3.333 3.333 0 0 0 0 3.333v33.334A3.333 3.333 0 0 0 3.333 40h33.334A3.333 3.333 0 0 0 40 36.667V3.333A3.333 3.333 0 0 0 36.667 0Z" fill="#F2EFFB"/><path d="M9.621 11.852h20.614c.8-.013 1.46.627 1.473 1.427v14.06c-.013.8-.673 1.44-1.473 1.427H9.62c-.8.013-1.46-.627-1.473-1.427v-14.06c.014-.8.674-1.44 1.473-1.427Z" fill="#CABCF8"/><mask id="b" style="mask-type:alpha" maskUnits="userSpaceOnUse" x="8" y="11" width="24" height="18"><path d="M9.621 11.852h20.614c.8-.013 1.46.627 1.473 1.427v14.06c-.013.8-.673 1.44-1.473 1.427H9.62c-.8.013-1.46-.627-1.473-1.427v-14.06c.014-.8.674-1.44 1.473-1.427Z" fill="#4E21E7"/></mask><g mask="url(#b)"><path d="M24.032 16.608a2 2 0 0 1 3.047 0L39.755 31.52c1.105 1.299.181 3.295-1.523 3.295H12.88c-1.705 0-2.628-1.996-1.524-3.295l12.675-14.912Z" fill="#4E21E7"/></g><circle cx="13.333" cy="17.037" r="2.222" fill="#4E21E7"/></g><defs><clipPath id="a"><path fill="#fff" d="M0 0h40v40H0z"/></clipPath></defs></svg>