<svg width="40" height="40" fill="none" xmlns="http://www.w3.org/2000/svg"><g clip-path="url(#a)"><path d="M36.667 0H3.333A3.333 3.333 0 0 0 0 3.333v33.334A3.333 3.333 0 0 0 3.333 40h33.334A3.333 3.333 0 0 0 40 36.667V3.333A3.333 3.333 0 0 0 36.667 0Z" fill="#F2EFFB"/><g clip-path="url(#b)"><path d="M29.065 14.56a1.12 1.12 0 0 0-.516-.752l-2.948 2.947a1.475 1.475 0 0 1-2.124 0l-1.12-1.002a1.473 1.473 0 0 1 0-2.063l2.949-2.948a1.12 1.12 0 0 0-.708-.634 5.605 5.605 0 0 0-6.674 4.971 5.6 5.6 0 0 0 .57 3.032l-8.05 7.974a1.474 1.474 0 0 0 0 2.108l.53.53a1.475 1.475 0 0 0 2.109 0l8.05-8.032a5.62 5.62 0 0 0 7.671-3.085 5.613 5.613 0 0 0 .261-3.047Z" fill="#4E21E7"/></g><g clip-path="url(#c)"><path d="M26.298 30c-.165 0-.28-.053-.418-.184a.555.555 0 0 1 0-.797l1.981-1.887-1.98-1.888a.566.566 0 0 1 0-.8c.22-.215.615-.211.84 0l2.399 2.285a.555.555 0 0 1 0 .797l-2.4 2.286c-.082.131-.252.184-.418.184l-.004.004Z" fill="#CABCF8"/></g><g clip-path="url(#d)"><path d="M22.987 24.286c.166 0 .28.052.419.184a.555.555 0 0 1 0 .797l-1.981 1.887 1.98 1.887a.566.566 0 0 1 0 .801c-.22.214-.615.21-.84 0l-2.4-2.286a.555.555 0 0 1 0-.797l2.4-2.285c.083-.132.253-.184.418-.184l.004-.004Z" fill="#CABCF8"/></g></g><defs><clipPath id="a"><path fill="#fff" d="M0 0h40v40H0z"/></clipPath><clipPath id="b"><path fill="#fff" transform="translate(10 10)" d="M0 0h20v20H0z"/></clipPath><clipPath id="c"><path fill="#fff" transform="translate(25.714 24.286)" d="M0 0h3.571v5.714H0z"/></clipPath><clipPath id="d"><path fill="#fff" transform="rotate(180 11.786 15)" d="M0 0h3.571v5.714H0z"/></clipPath></defs></svg>