<svg width="40" height="40" fill="none" xmlns="http://www.w3.org/2000/svg"><g clip-path="url(#a)"><path d="M36.667 0H3.333A3.333 3.333 0 0 0 0 3.333v33.334A3.333 3.333 0 0 0 3.333 40h33.334A3.333 3.333 0 0 0 40 36.667V3.333A3.333 3.333 0 0 0 36.667 0Z" fill="#F2EFFB"/><rect opacity=".3" x="22.493" y="14.888" width="1.481" height="6.667" rx=".741" transform="rotate(60 22.493 14.888)" fill="#4E21E7"/><rect opacity=".3" x="23.234" y="23.776" width="1.481" height="6.667" rx=".741" transform="rotate(120 23.234 23.776)" fill="#4E21E7"/><circle cx="24.788" cy="14.418" transform="rotate(60 24.788 14.418)" fill="#4E21E7" r="2.963"/><circle cx="24.788" cy="25.529" r="2.963" transform="rotate(120 24.788 25.529)" fill="#4E21E7"/><circle cx="15.159" cy="20" r="2.963" transform="rotate(120 15.159 20)" fill="#4E21E7"/></g><defs><clipPath id="a"><path fill="#fff" d="M0 0h40v40H0z"/></clipPath></defs></svg>