<svg version="1.1" id="Calque_1" xmlns="http://www.w3.org/2000/svg" x="0" y="0" viewBox="0 0 80 80" style="enable-background:new 0 0 80 80" xml:space="preserve"><style>.st1{fill:#4e21e7}</style><path d="M6.7 0h66.7C77 0 80 3 80 6.7v66.7c0 3.7-3 6.7-6.7 6.7H6.7C3 80 0 77 0 73.3V6.7C0 3 3 0 6.7 0z" style="fill:#fff;enable-background:new"/><path class="st1" d="M52 42.7V42c0-6.6-5.4-12-12-12v12.7h12zM49.3 21.3H30.7c-.7 0-1.3-.6-1.3-1.3 0-.7.6-1.3 1.3-1.3h18.7c.7 0 1.3.6 1.3 1.3 0 .7-.6 1.3-1.4 1.3z"/><path d="M40 60c-9.6 0-17.3-7.8-17.3-17.3S30.4 25.3 40 25.3s17.3 7.8 17.3 17.3S49.6 60 40 60zm0-32c-8.1 0-14.7 6.6-14.7 14.7S31.9 57.3 40 57.3s14.7-6.6 14.7-14.7S48.1 28 40 28z" style="opacity:.3;fill:#4e21e7;enable-background:new"/></svg>