<svg width="40" height="40" fill="none" xmlns="http://www.w3.org/2000/svg"><g clip-path="url(#a)"><path d="M36.667 0H3.333A3.333 3.333 0 0 0 0 3.333v33.334A3.333 3.333 0 0 0 3.333 40h33.334A3.333 3.333 0 0 0 40 36.667V3.333A3.333 3.333 0 0 0 36.667 0Z" fill="#F2EFFB"/><path opacity=".3" d="M19.687 21.8h7.466c1.18-.02 2.154.92 2.18 2.1-.02 1.18-1 2.12-2.18 2.1h-7.466a2.147 2.147 0 0 1-2.18-2.1c.02-1.18 1-2.12 2.18-2.1ZM12.847 14H27.16c1.18-.02 2.153.92 2.18 2.1-.02 1.18-1 2.12-2.18 2.1H12.847a2.147 2.147 0 0 1-2.18-2.1c.02-1.18 1-2.12 2.18-2.1Z" fill="#4E21E7"/><path d="m10.733 23.453 4.074-3.58c.226-.2.573-.18.78.047 0 .007.013.013.02.02a.6.6 0 0 1 .133.38v7.167a.574.574 0 0 1-.56.587.537.537 0 0 1-.367-.14l-4.073-3.587a.599.599 0 0 1-.053-.84c.013-.02.033-.034.053-.054h-.007Z" fill="#4E21E7"/></g><defs><clipPath id="a"><path fill="#fff" d="M0 0h40v40H0z"/></clipPath></defs></svg>