<?xml version="1.0" encoding="UTF-8" standalone="no"?><svg xmlns="http://www.w3.org/2000/svg" width="50" height="50" viewBox="0 0 50 50"><rect width="50" height="50" rx="5" fill="#ee485f"/><g transform="translate(-10.312 25.105) rotate(-45)"><path d="M38.121,32.49H30.943a.777.777,0,0,0,0,1.551h7.178a.777.777,0,0,0,0-1.551Z" transform="translate(-16.33 -2.548)" fill="#fff"/><path d="M30.943,1.641h7.178a.777.777,0,0,0,0-1.551H30.943a.777.777,0,0,0,0,1.551Z" transform="translate(-16.33 18.407)" fill="#fff"/><path d="M46.264.11a6.5,6.5,0,0,0-6.45,5.722H30.983a.777.777,0,0,0,0,1.551h8.831A6.5,6.5,0,1,0,46.264.11Zm0,11.406A4.906,4.906,0,1,1,51.17,6.609,4.906,4.906,0,0,1,46.264,11.516Z" transform="translate(-16.356 18.394)" fill="#fff"/></g></svg>