<?xml version="1.0" encoding="utf-8"?><svg xmlns="http://www.w3.org/2000/svg" xmlns:xlink="http://www.w3.org/1999/xlink" width="50" height="50" viewBox="0 0 50 50"><defs><clipPath id="b"><rect width="50" height="50"/></clipPath></defs><g id="a" clip-path="url(#b)"><rect width="50" height="50" rx="5" fill="#334eff"/><g transform="translate(12.586 28.366) rotate(-45)"><path d="M7.905,0H.728a.777.777,0,0,0,0,1.551H7.905A.777.777,0,0,0,7.905,0Z" transform="translate(0 11.444)" fill="#fff"/><path d="M.728,1.551H7.905A.777.777,0,0,0,7.905,0H.728a.777.777,0,0,0,0,1.551Z" transform="translate(0)" fill="#fff"/><path d="M16.008,0a6.5,6.5,0,0,0-6.45,5.722H.728a.777.777,0,0,0,0,1.551H9.558A6.5,6.5,0,1,0,16.008,0Zm0,11.406A4.906,4.906,0,1,1,20.914,6.5a4.906,4.906,0,0,1-4.906,4.906Z" transform="translate(0.014 0.007)" fill="#fff"/></g></g></svg>