<svg xmlns="http://www.w3.org/2000/svg" xmlns:xlink="http://www.w3.org/1999/xlink" viewBox="0 0 213.65 37.14"><defs><style>.cls-1{fill:url(#Dégradé_sans_nom_5);}.cls-2{fill:url(#Dégradé_sans_nom_5-2);}.cls-3{fill:url(#Dégradé_sans_nom_5-3);}.cls-4{fill:url(#Dégradé_sans_nom_5-4);}.cls-5{fill:url(#Dégradé_sans_nom_5-5);}.cls-6{fill:url(#Dégradé_sans_nom_5-6);}.cls-7{fill:url(#Dégradé_sans_nom_5-7);}</style><linearGradient id="Dégradé_sans_nom_5" x1="-0.89" y1="34.68" x2="215.31" y2="34.68" gradientUnits="userSpaceOnUse"><stop offset="0" stop-color="#3740ff"/><stop offset="0.17" stop-color="#3e57fc"/><stop offset="0.29" stop-color="#4264fb"/><stop offset="0.4" stop-color="#417ee3"/><stop offset="0.55" stop-color="#419ac8"/><stop offset="0.7" stop-color="#40afb5"/><stop offset="0.85" stop-color="#40bba9"/><stop offset="1" stop-color="#40bfa5"/></linearGradient><linearGradient id="Dégradé_sans_nom_5-2" x1="-0.89" y1="2.28" x2="215.31" y2="2.28" xlink:href="#Dégradé_sans_nom_5"/><linearGradient id="Dégradé_sans_nom_5-3" x1="-0.89" y1="18.51" x2="215.31" y2="18.51" xlink:href="#Dégradé_sans_nom_5"/><linearGradient id="Dégradé_sans_nom_5-4" x1="-0.89" y1="18.44" x2="215.31" y2="18.44" xlink:href="#Dégradé_sans_nom_5"/><linearGradient id="Dégradé_sans_nom_5-5" x1="-0.89" y1="23.11" x2="215.31" y2="23.11" xlink:href="#Dégradé_sans_nom_5"/><linearGradient id="Dégradé_sans_nom_5-6" x1="-0.89" y1="23.24" x2="215.31" y2="23.24" xlink:href="#Dégradé_sans_nom_5"/><linearGradient id="Dégradé_sans_nom_5-7" x1="-0.89" y1="18.53" x2="215.31" y2="18.53" xlink:href="#Dégradé_sans_nom_5"/></defs><title>SP-couleur</title><g id="Calque_2" data-name="Calque 2"><g id="Calque_1-2" data-name="Calque 1"><path class="cls-1" d="M52.59,32.49H32.27a2.2,2.2,0,0,0,0,4.39H52.59a2.2,2.2,0,0,0,0-4.39Z"/><path class="cls-2" d="M32.27,4.48H52.59a2.2,2.2,0,0,0,0-4.39H32.27a2.2,2.2,0,0,0,0,4.39Z"/><path class="cls-3" d="M75.57.11a18.4,18.4,0,0,0-18.26,16.2h-25a2.2,2.2,0,0,0,0,4.39h25A18.4,18.4,0,1,0,75.57.11Zm0,32.29A13.89,13.89,0,1,1,89.46,18.51,13.9,13.9,0,0,1,75.57,32.4Z"/><path class="cls-4" d="M119.87,1.68A17.23,17.23,0,0,0,111.74,0h-12A2.24,2.24,0,0,0,98.1.71a2.37,2.37,0,0,0-.68,1.7V34.52a2.33,2.33,0,0,0,2.36,2.36,2.37,2.37,0,0,0,1.7-.68,2.24,2.24,0,0,0,.71-1.68V23.29h9.55a17.22,17.22,0,0,0,8.13-1.68,10.37,10.37,0,0,0,4.51-4.3,12.1,12.1,0,0,0,1.36-5.67A12.11,12.11,0,0,0,124.39,6,10.38,10.38,0,0,0,119.87,1.68ZM118.8,16.74q-2.18,2-7.53,2h-9.08V4.51h9.08q5.35,0,7.53,2A6.7,6.7,0,0,1,121,11.65,6.7,6.7,0,0,1,118.8,16.74Z"/><path class="cls-5" d="M143.61,10A2.2,2.2,0,0,0,142,9.34h-.26q-4.56,0-8.24,4.93V12A2.42,2.42,0,0,0,131,9.6a2.24,2.24,0,0,0-1.68.71,2.37,2.37,0,0,0-.68,1.7V34.52A2.33,2.33,0,0,0,131,36.88a2.37,2.37,0,0,0,1.7-.68,2.24,2.24,0,0,0,.71-1.68V18.57A10.64,10.64,0,0,1,137,15.19,9,9,0,0,1,141.59,14h.26a2.45,2.45,0,0,0,1.73-.63,2.11,2.11,0,0,0,.68-1.63A2.33,2.33,0,0,0,143.61,10Z"/><path class="cls-6" d="M163,11.15a12.2,12.2,0,0,0-6.71-1.81,12.06,12.06,0,0,0-7,1.94,11.68,11.68,0,0,0-4.2,5.09,17.09,17.09,0,0,0-1.36,6.87q0,6.61,3.59,10.26t10,3.65a18.94,18.94,0,0,0,5.14-.58,19,19,0,0,0,4-1.73,2.27,2.27,0,0,0,1.36-1.94,1.91,1.91,0,0,0-.63-1.47,2.11,2.11,0,0,0-1.47-.58,2.08,2.08,0,0,0-.94.21,16,16,0,0,1-3.23,1.21,15.73,15.73,0,0,1-3.86.42,9.4,9.4,0,0,1-6.45-2,8.62,8.62,0,0,1-2.73-5.72h17.78a2.29,2.29,0,0,0,2.41-2.36A14.84,14.84,0,0,0,167.3,16,11.71,11.71,0,0,0,163,11.15ZM148.57,21a8.54,8.54,0,0,1,1.31-4.3,7,7,0,0,1,2.89-2.54,8,8,0,0,1,7,0,7.22,7.22,0,0,1,2.91,2.54A8.41,8.41,0,0,1,164,21Z"/><path class="cls-7" d="M15.58,16.89,14,16.45l-.9-.26c-5.9-1.66-8.3-2.66-8.3-5.87,0-4.6,5.62-5.82,8.6-5.82,5.5,0,8.16,2.79,8.3,2.94a2.25,2.25,0,0,0,3.37-3C24.88,4.27,21,0,13.37,0,6.85,0,.26,3.55.26,10.32c0,6.94,6.15,8.67,11.58,10.21l.89.25,1.67.46c5.45,1.48,7.83,2.46,7.83,5.6,0,5.15-6.21,5.71-8.88,5.71A13.55,13.55,0,0,1,3.91,29,2.25,2.25,0,0,0,.6,32.07a18.09,18.09,0,0,0,12.75,5c9.87,0,13.39-5.28,13.39-10.22C26.74,19.92,20.55,18.24,15.58,16.89Z"/><path class="cls-6" d="M191.14,29.29c0,3.79-2.66,7.85-10.16,7.85a13.4,13.4,0,0,1-9.59-3.79,2,2,0,0,1,.12-2.88,2,2,0,0,1,1.46-.56,2.13,2.13,0,0,1,1.44.66A9.56,9.56,0,0,0,181,33c1.81,0,6-.36,6-3.73,0-2-1.65-2.66-5.4-3.68l-1.86-.52c-4.09-1.16-8.73-2.46-8.73-7.83,0-5.2,5-7.93,9.95-7.93a12,12,0,0,1,8.79,3.37,2.06,2.06,0,0,1,.52,1.51,2.07,2.07,0,0,1-2.15,1.91,2.08,2.08,0,0,1-1.43-.68,7.92,7.92,0,0,0-5.72-2c-2,0-5.85.8-5.85,3.82,0,2.05,1.66,2.72,5.74,3.87l1.83.51C186.46,22.67,191.14,23.94,191.14,29.29Z"/><path class="cls-6" d="M213.65,29.29c0,3.79-2.66,7.85-10.16,7.85a13.4,13.4,0,0,1-9.59-3.79,2,2,0,0,1,.12-2.88,2,2,0,0,1,1.46-.56,2.13,2.13,0,0,1,1.44.66A9.56,9.56,0,0,0,203.49,33c1.81,0,6-.36,6-3.73,0-2-1.65-2.66-5.4-3.68l-1.86-.52c-4.09-1.16-8.73-2.46-8.73-7.83,0-5.2,5-7.93,9.95-7.93a12,12,0,0,1,8.79,3.37,2.06,2.06,0,0,1,.52,1.51,2.07,2.07,0,0,1-2.15,1.91,2.08,2.08,0,0,1-1.43-.68,7.92,7.92,0,0,0-5.72-2c-2,0-5.85.8-5.85,3.82,0,2.05,1.66,2.72,5.74,3.87l1.83.51C209,22.67,213.65,23.94,213.65,29.29Z"/></g></g></svg>