<svg width="27" height="27" viewBox="0 0 27 27" fill="none" xmlns="http://www.w3.org/2000/svg">
<path d="M14.5767 19.6353L9.16956 25.0424C9.03016 25.2003 8.95619 25.4054 8.96274 25.6159C8.96928 25.8265 9.05584 26.0266 9.20478 26.1755C9.35372 26.3245 9.55384 26.411 9.76437 26.4176C9.9749 26.4241 10.18 26.3501 10.3379 26.2107L15.745 20.8036C15.8844 20.6457 15.9584 20.4406 15.9518 20.2301C15.9453 20.0196 15.8587 19.8194 15.7098 19.6705C15.5609 19.5216 15.3607 19.435 15.1502 19.4285C14.9397 19.4219 14.7346 19.4959 14.5767 19.6353Z" fill="#1E1E1E"/>
<path d="M1.71731 17.5901L7.12441 12.183C7.26382 12.0251 7.33778 11.82 7.33124 11.6095C7.32469 11.399 7.23813 11.1988 7.08919 11.0499C6.94025 10.901 6.74014 10.8144 6.5296 10.8079C6.31907 10.8013 6.11397 10.8753 5.95606 11.0147L0.548955 16.4218C0.409553 16.5797 0.33559 16.7848 0.342134 16.9953C0.348678 17.2059 0.435236 17.406 0.584176 17.5549C0.733116 17.7039 0.933233 17.7904 1.14376 17.797C1.3543 17.8035 1.5594 17.7295 1.71731 17.5901Z" fill="#1E1E1E"/>
<path d="M12.0766 4.90443C10.8805 6.10172 10.1643 7.69558 10.0632 9.38493C9.9622 11.0743 10.4833 12.7421 11.5282 14.0735L4.87588 20.7258C4.73647 20.8837 4.66251 21.0888 4.66906 21.2993C4.6756 21.5098 4.76216 21.7099 4.9111 21.8589C5.06004 22.0078 5.26016 22.0944 5.47069 22.1009C5.68122 22.1075 5.88633 22.0335 6.04423 21.8941L12.6965 15.2418C13.7457 16.0666 15.011 16.5706 16.3399 16.6931C17.6689 16.8157 19.0049 16.5516 20.1873 15.9327C21.3697 15.3137 22.348 14.3663 23.0045 13.2044C23.6611 12.0424 23.9679 10.7155 23.888 9.38335C23.8081 8.05116 23.3449 6.77044 22.5542 5.69531C21.7635 4.62017 20.679 3.79644 19.4311 3.32324C18.1832 2.85004 16.8252 2.74754 15.5204 3.02806C14.2156 3.30858 13.0197 3.96017 12.0766 4.90443ZM20.6686 13.4964C19.9377 14.2273 19.0065 14.7251 17.9927 14.9268C16.9789 15.1285 15.9281 15.025 14.9731 14.6295C14.0181 14.234 13.2019 13.5642 12.6276 12.7048C12.0532 11.8454 11.7466 10.835 11.7465 9.80134C11.7464 8.7677 12.0528 7.75723 12.627 6.89772C13.2011 6.0382 14.0172 5.36824 14.9721 4.97253C15.927 4.57683 16.9778 4.47316 17.9917 4.67463C19.0055 4.8761 19.9368 5.37367 20.6678 6.10442C21.1533 6.5897 21.5384 7.16586 21.8012 7.8C22.064 8.43414 22.1993 9.11384 22.1994 9.80027C22.1994 10.4867 22.0643 11.1664 21.8016 11.8006C21.539 12.4348 21.154 13.0111 20.6686 13.4964Z" fill="#1E1E1E"/>
</svg>
