<?xml version="1.0" encoding="UTF-8"?>
<svg fill="none" viewBox="0 0 56 56" xmlns="http://www.w3.org/2000/svg">
<rect width="56" height="56" rx="5" fill="#334EFF"/>
<g clip-path="url(#a)" fill="#F2EFFB">
<path d="m29.353 35.34-6.4698 6.4698c-0.386 0.3861-0.386 1.012 0 1.3981 0.3861 0.3861 1.012 0.3861 1.3981 0l6.4698-6.4698c0.3861-0.3861 0.3861-1.012 0-1.3981s-1.012-0.3861-1.3981 0z"/>
<path d="m13.965 32.892 6.4698-6.4698c0.3861-0.3861 0.3861-1.012 0-1.3981s-1.012-0.3861-1.3981 0l-6.4698 6.4698c-0.3861 0.3861-0.3861 1.012 0 1.3981 0.3861 0.386 1.012 0.386 1.3981 0z"/>
<path d="m26.352 17.709c-2.9687 2.9687-3.2495 7.6835-0.6493 10.98l-7.9702 7.9703c-0.3861 0.386-0.3861 1.012 0 1.398 0.3861 0.3861 1.012 0.3861 1.3981 0l7.9702-7.9702c3.6005 2.8108 8.8009 2.1732 11.612-1.4273 2.8107-3.6005 2.1731-8.8009-1.4274-11.612-3.2904-2.5709-7.979-2.2872-10.933 0.6611zm10.278 10.278c-2.4423 2.4422-6.4025 2.4422-8.8448 0-2.4422-2.4423-2.4422-6.4025 0-8.8448 2.4423-2.4422 6.4025-2.4422 8.8448 0 0 0 0.0058 0.0059 0.0087 0.0088 2.4394 2.4452 2.4394 6.3996 0 8.8448"/>
</g>
<defs>
<clipPath id="a">
<rect transform="translate(11.868 32.193) rotate(-45)" width="28.744" height="16.566" fill="#fff"/>
</clipPath>
</defs>
</svg>
