<svg xmlns="http://www.w3.org/2000/svg" width="50" height="50"><rect width="50" height="50" rx="5" fill="#ee485f"/><g fill="#fff"><path d="m26.269 30.869-5.076 5.075a.777.777 0 0 0 1.097 1.097l5.075-5.076a.777.777 0 0 0-1.096-1.096ZM14.197 28.948l5.076-5.075a.777.777 0 0 0-1.097-1.097L13.1 27.85a.777.777 0 0 0 1.097 1.097ZM23.92 17.041a6.5 6.5 0 0 0-.514 8.607l-6.245 6.245a.777.777 0 0 0 1.097 1.096l6.244-6.244a6.5 6.5 0 1 0-.582-9.704Zm8.066 8.065a4.906 4.906 0 1 1-.001-6.938 4.906 4.906 0 0 1 0 6.938Z"/></g></svg>