<svg xmlns="http://www.w3.org/2000/svg" width="60" height="60" viewBox="0 0 60 60"><defs><style>.a,.b{fill:#4e21e7;}.a{opacity:0.1;}</style></defs><rect class="a" width="60" height="60" rx="5"/><g transform="translate(-12.373 30.126) rotate(-45)"><path class="b" d="M39.7,32.49H31.088a.933.933,0,0,0,0,1.861H39.7a.933.933,0,0,0,0-1.861Z" transform="translate(-13.553 3.439)"/><path class="b" d="M31.088,1.951H39.7A.933.933,0,0,0,39.7.09H31.088a.933.933,0,0,0,0,1.861Z" transform="translate(-13.553 22.105)"/><path class="b" d="M49.465.11a7.8,7.8,0,0,0-7.74,6.867h-10.6a.933.933,0,0,0,0,1.861h10.6A7.8,7.8,0,1,0,49.465.11Zm0,13.687a5.888,5.888,0,1,1,5.888-5.888A5.888,5.888,0,0,1,49.465,13.8Z" transform="translate(-13.576 22.094)"/></g></svg>