<svg width="291" height="81" fill="none" xmlns="http://www.w3.org/2000/svg"><g clip-path="url(#a)"><rect width="291" height="81" rx="8" fill="url(#b)"/><g clip-path="url(#c)" stroke-miterlimit="10"><path d="M272 117.678c27.989 0 50.678-22.69 50.678-50.678 0-27.989-22.689-50.678-50.678-50.678-27.988 0-50.678 22.69-50.678 50.678 0 27.989 22.69 50.678 50.678 50.678Z" stroke="#0DA49A" stroke-dasharray="100 30 60 20 10 100 30 60"/><path d="M256.673 48.68a23.679 23.679 0 1 1-1.918 34.25" stroke="#E6F6F5"/></g><rect x="24" y="20" width="40" height="40" rx="5" fill="#0DA49A"/><g clip-path="url(#d)" fill="#F2EFFB"><path d="m44.966 45.243-4.621 4.621a.706.706 0 1 0 .999 1l4.62-4.622a.706.706 0 1 0-.998-.999ZM33.975 43.494l4.621-4.62a.706.706 0 0 0-.998-1l-4.622 4.622a.706.706 0 1 0 .999.998ZM42.823 32.65a5.91 5.91 0 0 0-.464 7.842l-5.693 5.693a.706.706 0 1 0 .998.999l5.694-5.693a5.91 5.91 0 1 0-.535-8.841Zm7.341 7.34a4.468 4.468 0 1 1 0-6.317l.006.006a4.471 4.471 0 0 1 0 6.318"/></g><path d="M82.793 46.808c-.957 0-1.788-.148-2.495-.445-.7-.296-1.253-.709-1.657-1.239a3.39 3.39 0 0 1-.684-1.854l-.008-.12h2.136l.008.086c.04.347.18.65.419.906.24.256.561.455.966.598.404.142.865.213 1.384.213a3.62 3.62 0 0 0 1.316-.222c.381-.154.68-.364.897-.632.216-.274.325-.587.325-.94v-.009c0-.444-.174-.806-.522-1.085-.347-.285-.92-.512-1.717-.683l-1.325-.274c-1.258-.268-2.176-.695-2.751-1.282-.575-.592-.863-1.347-.863-2.264v-.008c0-.735.194-1.38.581-1.932.393-.552.931-.982 1.615-1.29.69-.313 1.478-.47 2.367-.47.911 0 1.7.154 2.367.462.666.301 1.19.714 1.572 1.239a3.35 3.35 0 0 1 .641 1.777l.009.11h-2.102l-.018-.102a1.65 1.65 0 0 0-.401-.846 2.154 2.154 0 0 0-.846-.58c-.353-.143-.766-.211-1.24-.206-.45 0-.85.069-1.204.205-.353.137-.632.33-.837.581-.2.251-.3.556-.3.915v.008c0 .428.169.784.505 1.068.341.285.897.507 1.666.667l1.324.282c.866.182 1.57.424 2.111.726.541.302.937.678 1.188 1.128.256.444.384.98.384 1.607v.008c0 .798-.196 1.487-.59 2.068-.387.581-.942 1.031-1.666 1.35-.717.32-1.569.479-2.555.479Zm7.272-.308V34.17h7.973v1.854H92.26v3.341h5.46v1.752h-5.46v3.529h5.777V46.5h-7.973Zm16.013.308c-1.202 0-2.238-.262-3.11-.786-.872-.53-1.544-1.28-2.017-2.248-.472-.968-.709-2.113-.709-3.435v-.017c0-1.327.237-2.472.709-3.435.479-.968 1.154-1.715 2.026-2.239.877-.524 1.911-.786 3.101-.786 1.197 0 2.231.262 3.102.786.872.524 1.544 1.27 2.017 2.239.473.968.709 2.113.709 3.435v.017c0 1.322-.236 2.467-.709 3.435-.467.963-1.137 1.71-2.008 2.239-.872.53-1.909.795-3.111.795Zm0-1.906c.735 0 1.37-.188 1.906-.564.535-.376.948-.906 1.239-1.59.296-.688.444-1.492.444-2.409v-.017c0-.928-.148-1.732-.444-2.41-.291-.683-.704-1.21-1.239-1.58-.536-.376-1.171-.564-1.906-.564-.729 0-1.361.188-1.897.563-.535.37-.951.898-1.247 1.581-.296.678-.444 1.482-.444 2.41v.017c0 .923.145 1.726.435 2.41.291.683.704 1.213 1.239 1.59.536.375 1.174.563 1.914.563Zm9.443-2.478v-1.777h3.272c.792 0 1.407-.203 1.846-.607.439-.41.658-.986.658-1.726v-.017c0-.746-.219-1.322-.658-1.726-.439-.405-1.054-.607-1.846-.607h-3.272V34.17h3.819c.832 0 1.561.17 2.188.512a3.696 3.696 0 0 1 1.469 1.444c.359.616.539 1.336.539 2.162v.017c0 .82-.18 1.541-.539 2.162a3.772 3.772 0 0 1-1.469 1.444c-.627.342-1.356.513-2.188.513h-3.819Zm-1.103 4.076V34.17h2.196V46.5h-2.196Zm11.297 0v-9.331h2.119v1.436h.145c.165-.508.453-.898.863-1.171.416-.28.929-.419 1.538-.419.16 0 .316.011.47.034.154.017.282.037.385.06v1.914a3.978 3.978 0 0 0-.522-.085 4.013 4.013 0 0 0-.529-.034c-.473 0-.886.088-1.239.264a2.014 2.014 0 0 0-.821.752c-.193.325-.29.71-.29 1.154V46.5h-2.119Zm11.005.188c-.928 0-1.726-.197-2.392-.59a3.93 3.93 0 0 1-1.53-1.674c-.359-.724-.538-1.578-.538-2.564v-.008c0-.98.177-1.835.53-2.564a4.05 4.05 0 0 1 1.521-1.7c.655-.405 1.424-.607 2.307-.607s1.646.197 2.29.59a3.793 3.793 0 0 1 1.478 1.64c.348.7.521 1.518.521 2.453v.7h-7.579v-1.418h6.546l-1.017 1.333v-.846c0-.621-.094-1.137-.282-1.547-.188-.41-.447-.718-.778-.923a2.14 2.14 0 0 0-1.153-.307c-.439 0-.829.105-1.171.316-.336.21-.604.524-.803.94-.194.416-.291.923-.291 1.52v.847c0 .575.097 1.068.291 1.478.193.404.467.718.82.94.359.216.783.325 1.273.325.382 0 .709-.054.983-.163.279-.114.504-.247.675-.401.171-.16.29-.31.359-.453l.025-.06 2.017-.008-.017.085c-.08.302-.219.61-.419.923a3.544 3.544 0 0 1-.786.863c-.33.262-.735.475-1.213.64-.479.16-1.034.24-1.667.24Zm9.836 0c-.792 0-1.476-.114-2.051-.342-.57-.228-1.02-.541-1.35-.94a2.595 2.595 0 0 1-.581-1.393l-.009-.025h2.111l.008.025c.109.325.319.59.633.795.319.205.743.308 1.273.308.353 0 .663-.049.931-.145.268-.103.476-.243.624-.42a.908.908 0 0 0 .231-.614v-.009c0-.28-.111-.51-.334-.692-.216-.188-.581-.34-1.093-.453l-1.513-.333c-.592-.131-1.082-.314-1.469-.547a2.387 2.387 0 0 1-.872-.863c-.188-.342-.282-.744-.282-1.205v-.009c0-.558.157-1.05.47-1.478.319-.427.76-.76 1.324-1 .564-.245 1.211-.367 1.94-.367.758 0 1.41.117 1.957.35.547.228.974.541 1.282.94.307.399.487.852.538 1.359v.017h-2.008l-.009-.026c-.074-.296-.262-.547-.564-.752-.296-.21-.695-.316-1.196-.316-.319 0-.601.049-.846.146-.245.096-.438.23-.581.401a.94.94 0 0 0-.205.607v.017c0 .177.046.333.137.47.097.137.248.256.453.359.205.102.475.193.811.273l1.513.342c.911.205 1.586.51 2.025.914.439.405.658.946.658 1.624v.017c0 .592-.171 1.11-.513 1.555-.342.444-.811.792-1.41 1.043-.592.245-1.27.367-2.033.367Zm9.45 0c-.791 0-1.475-.114-2.05-.342-.57-.228-1.02-.541-1.351-.94a2.603 2.603 0 0 1-.581-1.393l-.008-.025h2.11l.009.025c.108.325.319.59.632.795.319.205.744.308 1.274.308.353 0 .663-.049.931-.145.268-.103.476-.243.624-.42a.907.907 0 0 0 .23-.614v-.009c0-.28-.111-.51-.333-.692-.216-.188-.581-.34-1.094-.453l-1.512-.333c-.592-.131-1.082-.314-1.47-.547-.387-.234-.678-.521-.871-.863-.188-.342-.282-.744-.282-1.205v-.009c0-.558.156-1.05.47-1.478.319-.427.76-.76 1.324-1 .564-.245 1.211-.367 1.94-.367.757 0 1.41.117 1.957.35.546.228.974.541 1.281.94.308.399.487.852.539 1.359v.017h-2.008l-.009-.026c-.074-.296-.262-.547-.564-.752-.296-.21-.695-.316-1.196-.316-.319 0-.601.049-.846.146a1.41 1.41 0 0 0-.581.401.94.94 0 0 0-.205.607v.017c0 .177.045.333.136.47.097.137.248.256.453.359.205.102.476.193.812.273l1.513.342c.911.205 1.586.51 2.025.914.438.405.658.946.658 1.624v.017c0 .592-.171 1.11-.513 1.555-.342.444-.812.792-1.41 1.043-.592.245-1.27.367-2.034.367Zm10.963-.188V34.17h7.862v1.854h-5.665v3.649h5.178v1.794h-5.178V46.5h-2.197Zm10.049 0v-9.331h2.119v1.436h.146c.165-.508.453-.898.863-1.171.416-.28.928-.419 1.538-.419.159 0 .316.011.47.034.154.017.282.037.384.06v1.914a3.963 3.963 0 0 0-.521-.085 4.017 4.017 0 0 0-.53-.034c-.473 0-.886.088-1.239.264a2.012 2.012 0 0 0-.82.752c-.194.325-.291.71-.291 1.154V46.5h-2.119Zm11.006.188c-.928 0-1.726-.197-2.392-.59a3.93 3.93 0 0 1-1.53-1.674c-.359-.724-.538-1.578-.538-2.564v-.008c0-.98.176-1.835.53-2.564a4.037 4.037 0 0 1 1.521-1.7c.655-.405 1.424-.607 2.307-.607s1.646.197 2.29.59a3.799 3.799 0 0 1 1.478 1.64c.347.7.521 1.518.521 2.453v.7h-7.579v-1.418h6.545l-1.017 1.333v-.846c0-.621-.094-1.137-.282-1.547-.188-.41-.447-.718-.777-.923a2.144 2.144 0 0 0-1.154-.307c-.438 0-.829.105-1.17.316-.336.21-.604.524-.804.94-.193.416-.29.923-.29 1.52v.847c0 .575.097 1.068.29 1.478.194.404.468.718.821.94.359.216.783.325 1.273.325.382 0 .709-.054.983-.163.279-.114.504-.247.675-.401.171-.16.29-.31.358-.453l.026-.06 2.017-.008-.017.085c-.08.302-.22.61-.419.923a3.585 3.585 0 0 1-.786.863 4.08 4.08 0 0 1-1.214.64c-.478.16-1.034.24-1.666.24Zm10.305 0c-.928 0-1.726-.197-2.392-.59a3.93 3.93 0 0 1-1.53-1.674c-.359-.724-.538-1.578-.538-2.564v-.008c0-.98.176-1.835.53-2.564a4.05 4.05 0 0 1 1.521-1.7c.655-.405 1.424-.607 2.307-.607s1.646.197 2.29.59a3.793 3.793 0 0 1 1.478 1.64c.348.7.521 1.518.521 2.453v.7h-7.579v-1.418h6.545l-1.016 1.333v-.846c0-.621-.094-1.137-.282-1.547-.188-.41-.448-.718-.778-.923a2.142 2.142 0 0 0-1.154-.307c-.438 0-.828.105-1.17.316-.336.21-.604.524-.803.94-.194.416-.291.923-.291 1.52v.847c0 .575.097 1.068.291 1.478.193.404.467.718.82.94.359.216.783.325 1.273.325.382 0 .709-.054.983-.163.279-.114.504-.247.675-.401.171-.16.29-.31.359-.453l.025-.06 2.017-.008-.017.085c-.08.302-.22.61-.419.923a3.585 3.585 0 0 1-.786.863c-.33.262-.735.475-1.213.64-.479.16-1.034.24-1.667.24Z" fill="#fff"/></g><defs><clipPath id="a"><rect width="291" height="81" rx="8" fill="#fff"/></clipPath><clipPath id="c"><path fill="#fff" transform="translate(221 16)" d="M0 0h102v102H0z"/></clipPath><clipPath id="d"><path fill="#fff" transform="rotate(-45 68.138 -17.706)" d="M0 0h20.531v11.833H0z"/></clipPath><radialGradient id="b" cx="0" cy="0" r="1" gradientUnits="userSpaceOnUse" gradientTransform="matrix(-134.00007 -48.99994 23.0714 -63.09333 74 30)"><stop stop-color="#3C8499"/><stop offset="1" stop-color="#002039"/></radialGradient></defs></svg>