<?xml version="1.0" encoding="UTF-8"?>
<svg id="Calque_1" xmlns="http://www.w3.org/2000/svg" xmlns:xlink="http://www.w3.org/1999/xlink" version="1.1" viewBox="0 0 1200 1200">
  <!-- Generator: Adobe Illustrator 29.2.1, SVG Export Plug-In . SVG Version: 2.1.0 Build 116)  -->
  <defs>
    <style>
      .st0 {
        fill: none;
      }

      .st1 {
        fill: #0866ff;
      }

      .st2 {
        fill: #fff;
      }

      .st3 {
        clip-path: url(#clippath);
      }
    </style>
    <clipPath id="clippath">
      <rect class="st0" y="0" width="1200" height="1200"/>
    </clipPath>
  </defs>
  <g class="st3">
    <g>
      <path class="st1" d="M1100,600c0-276.1-223.9-500-500-500S100,323.9,100,600s161.4,431.2,379.2,485.3v-332.5h-103.1v-152.8h103.1v-65.8c0-170.2,77-249.1,244.1-249.1s86.3,6.2,108.7,12.4v138.5c-11.8-1.2-32.3-1.9-57.8-1.9-82,0-113.7,31.1-113.7,111.8v54h163.3l-28.1,152.8h-135.3v343.5c247.6-29.9,439.4-240.7,439.4-496.3"/>
      <path class="st2" d="M795.8,752.8l28.1-152.8h-163.3v-54c0-80.7,31.7-111.8,113.7-111.8s46,.6,57.8,1.9v-138.5c-22.4-6.2-77-12.4-108.7-12.4-167.1,0-244.1,78.9-244.1,249.1v65.8h-103.1v152.8h103.1v332.5c39.5,9.8,80.1,14.7,120.8,14.7,20.5,0,40.7-1.3,60.6-3.7v-343.5h135.3Z"/>
    </g>
  </g>
</svg>