<?xml version="1.0" encoding="UTF-8"?>
<svg id="Calque_1" xmlns="http://www.w3.org/2000/svg" xmlns:xlink="http://www.w3.org/1999/xlink" version="1.1" viewBox="0 0 1200 1200">
  <!-- Generator: Adobe Illustrator 29.2.1, SVG Export Plug-In . SVG Version: 2.1.0 Build 116)  -->
  <defs>
    <style>
      .st0 {
        fill: none;
      }

      .st1 {
        fill: url(#Dégradé_sans_nom_2);
      }

      .st2 {
        fill: #fff;
      }

      .st3 {
        fill: url(#Dégradé_sans_nom);
      }

      .st4 {
        clip-path: url(#clippath);
      }
    </style>
    <clipPath id="clippath">
      <rect class="st0" y="0" width="1200" height="1200"/>
    </clipPath>
    <radialGradient id="Dégradé_sans_nom" data-name="Dégradé sans nom" cx="-663.3" cy="176.5" fx="-663.3" fy="176.5" r="449.9" gradientTransform="translate(714.5 -195.5) rotate(-90) scale(2 -1.8)" gradientUnits="userSpaceOnUse">
      <stop offset="0" stop-color="#fd5"/>
      <stop offset="0" stop-color="#fd5"/>
      <stop offset=".5" stop-color="#ff543e"/>
      <stop offset="1" stop-color="#c837ab"/>
    </radialGradient>
    <radialGradient id="Dégradé_sans_nom_2" data-name="Dégradé sans nom 2" cx="31.6" cy="761.6" fx="31.6" fy="761.6" r="449.9" gradientTransform="translate(-2734 733.7) rotate(78.7) scale(.9 -3.7)" gradientUnits="userSpaceOnUse">
      <stop offset="0" stop-color="#3771c8"/>
      <stop offset=".1" stop-color="#3771c8"/>
      <stop offset="1" stop-color="#60f" stop-opacity="0"/>
    </radialGradient>
  </defs>
  <g class="st4">
    <g>
      <path class="st3" d="M600.2,150.1c-187.9,0-242.8.2-253.5,1.1-38.6,3.2-62.5,9.3-88.7,22.3-20.1,10-36,21.6-51.7,37.8-28.6,29.6-45.9,66.1-52.1,109.4-3,21-3.9,25.3-4.1,132.8,0,35.8,0,83,0,146.2,0,187.7.2,242.6,1.1,253.3,3.1,37.5,9,61.1,21.5,86.9,23.8,49.4,69.3,86.5,122.9,100.4,18.6,4.8,39,7.4,65.3,8.7,11.1.5,124.7.8,238.4.8s227.3-.1,238.2-.7c30.5-1.4,48.1-3.8,67.7-8.9,53.8-13.8,98.7-50.6,122.9-100.6,12.2-25.2,18.4-49.7,21.2-85.3.6-7.8.9-131.4.9-254.8s-.3-246.8-.9-254.6c-2.8-36.1-9-60.4-21.6-86.1-10.3-21-21.8-36.7-38.5-52.8-29.8-28.4-66.2-45.7-109.6-52-21-3-25.2-3.9-132.8-4.1h-146.5Z"/>
      <path class="st1" d="M600.2,150.1c-187.9,0-242.8.2-253.5,1.1-38.6,3.2-62.5,9.3-88.7,22.3-20.1,10-36,21.6-51.7,37.8-28.6,29.6-45.9,66.1-52.1,109.4-3,21-3.9,25.3-4.1,132.8,0,35.8,0,83,0,146.2,0,187.7.2,242.6,1.1,253.3,3.1,37.5,9,61.1,21.5,86.9,23.8,49.4,69.3,86.5,122.9,100.4,18.6,4.8,39,7.4,65.3,8.7,11.1.5,124.7.8,238.4.8s227.3-.1,238.2-.7c30.5-1.4,48.1-3.8,67.7-8.9,53.8-13.8,98.7-50.6,122.9-100.6,12.2-25.2,18.4-49.7,21.2-85.3.6-7.8.9-131.4.9-254.8s-.3-246.8-.9-254.6c-2.8-36.1-9-60.4-21.6-86.1-10.3-21-21.8-36.7-38.5-52.8-29.8-28.4-66.2-45.7-109.6-52-21-3-25.2-3.9-132.8-4.1h-146.5Z"/>
      <path class="st2" d="M600,267.8c-90.2,0-101.6.4-137,2-35.4,1.6-59.5,7.2-80.6,15.4-21.9,8.5-40.4,19.8-58.9,38.3-18.5,18.5-29.8,37-38.3,58.8-8.2,21.1-13.8,45.3-15.4,80.6-1.6,35.4-2,46.8-2,137s.4,101.5,2,137c1.6,35.4,7.2,59.5,15.4,80.6,8.5,21.9,19.8,40.4,38.3,58.9,18.5,18.5,37,29.9,58.8,38.3,21.1,8.2,45.3,13.8,80.7,15.4,35.4,1.6,46.8,2,137,2s101.5-.4,137-2c35.4-1.6,59.5-7.2,80.7-15.4,21.8-8.5,40.4-19.9,58.8-38.3,18.5-18.5,29.8-37,38.3-58.8,8.2-21.1,13.8-45.3,15.4-80.6,1.6-35.4,2-46.7,2-137s-.4-101.6-2-137c-1.7-35.4-7.3-59.5-15.4-80.6-8.5-21.9-19.9-40.4-38.3-58.9-18.5-18.5-37-29.8-58.8-38.3-21.2-8.2-45.3-13.8-80.7-15.4-35.4-1.6-46.7-2-137-2h.1ZM570.1,327.7c8.8,0,18.7,0,29.8,0,88.7,0,99.2.3,134.3,1.9,32.4,1.5,50,6.9,61.7,11.4,15.5,6,26.6,13.2,38.2,24.8,11.6,11.6,18.8,22.7,24.9,38.2,4.5,11.7,10,29.3,11.4,61.7,1.6,35,1.9,45.5,1.9,134.2s-.3,99.2-1.9,134.2c-1.5,32.4-6.9,50-11.4,61.7-6,15.5-13.2,26.5-24.9,38.2-11.6,11.6-22.7,18.8-38.2,24.8-11.7,4.6-29.3,10-61.7,11.4-35,1.6-45.5,1.9-134.3,1.9s-99.2-.3-134.3-1.9c-32.4-1.5-50-6.9-61.7-11.5-15.5-6-26.6-13.2-38.2-24.8-11.6-11.6-18.8-22.7-24.9-38.2-4.5-11.7-10-29.3-11.4-61.7-1.6-35-1.9-45.5-1.9-134.3s.3-99.2,1.9-134.2c1.5-32.4,6.9-50,11.4-61.7,6-15.5,13.2-26.6,24.9-38.2,11.6-11.6,22.7-18.8,38.2-24.9,11.7-4.6,29.3-10,61.7-11.5,30.6-1.4,42.5-1.8,104.4-1.9h0ZM777.3,382.8c-22,0-39.9,17.9-39.9,39.9,0,22,17.9,39.9,39.9,39.9s39.9-17.9,39.9-39.9h0c0-22-17.9-39.9-39.9-39.9h0ZM600,429.4c-94.2,0-170.6,76.4-170.6,170.6s76.4,170.6,170.6,170.6c94.2,0,170.6-76.4,170.6-170.6s-76.4-170.6-170.6-170.6h0ZM600,489.3c61.2,0,110.7,49.6,110.7,110.7s-49.6,110.7-110.7,110.7-110.7-49.6-110.7-110.7,49.6-110.7,110.7-110.7Z"/>
    </g>
  </g>
</svg>