<?xml version="1.0" encoding="UTF-8"?>
<svg id="Calque_1" xmlns="http://www.w3.org/2000/svg" xmlns:xlink="http://www.w3.org/1999/xlink" version="1.1" viewBox="0 0 1200 1200">
  <!-- Generator: Adobe Illustrator 29.2.1, SVG Export Plug-In . SVG Version: 2.1.0 Build 116)  -->
  <defs>
    <style>
      .st0 {
        fill: none;
      }

      .st1 {
        fill: #fff;
      }

      .st1, .st2 {
        fill-rule: evenodd;
      }

      .st2 {
        fill: #007ebb;
      }

      .st3 {
        clip-path: url(#clippath);
      }
    </style>
    <clipPath id="clippath">
      <rect class="st0" y="0" width="1200" height="1200"/>
    </clipPath>
  </defs>
  <g class="st3">
    <g>
      <path class="st2" d="M250,1050h700c55.2,0,100-44.8,100-100V250c0-55.2-44.8-100-100-100H250c-55.2,0-100,44.8-100,100v700c0,55.2,44.8,100,100,100Z"/>
      <path class="st1" d="M925,925h-133.5v-227.5c0-62.4-23.7-97.2-73.1-97.2s-81.8,36.3-81.8,97.2v227.5h-128.7v-433.3h128.7v58.4s38.7-71.6,130.7-71.6,157.7,56.1,157.7,172.2v274.4ZM354.4,434.9c-43.8,0-79.4-35.8-79.4-80s35.5-80,79.4-80,79.3,35.8,79.3,80-35.5,80-79.3,80h0ZM287.9,925h134.2v-433.3h-134.2v433.3h0Z"/>
    </g>
  </g>
</svg>