<?xml version="1.0" encoding="UTF-8"?>
<svg id="Calque_1" xmlns="http://www.w3.org/2000/svg" xmlns:xlink="http://www.w3.org/1999/xlink" version="1.1" viewBox="0 0 1200 1200">
  <!-- Generator: Adobe Illustrator 29.2.1, SVG Export Plug-In . SVG Version: 2.1.0 Build 116)  -->
  <defs>
    <style>
      .st0 {
        fill: none;
      }

      .st1 {
        fill: #bd081c;
      }

      .st2 {
        clip-path: url(#clippath);
      }
    </style>
    <clipPath id="clippath">
      <rect class="st0" y="0" width="1200" height="1200"/>
    </clipPath>
  </defs>
  <g class="st2">
    <path class="st1" d="M599.9,100.3c-276.3,0-500,223.7-500,500s131.4,392.6,317.6,465.5c-4.5-39.8-8.3-99.8,1.5-143.4,9-39,58.6-248.5,58.6-248.5,0,0-15-30-15-74.3,0-69.8,40.5-121.6,90.1-121.6s63.1,32.3,63.1,70.6-27,107.4-41.3,166.7c-12,49.5,24.8,90.1,74.3,90.1,88.6,0,156.9-93.8,156.9-229s-86.3-203.5-208.7-203.5-226,106.6-226,217,16.5,89.3,37.5,114.1c3.8,5.3,4.5,9,3.8,14.3-3.8,15.8-12,49.5-13.5,56.3-2.3,9-7.5,11.3-16.5,6.8-62.3-29.3-101.4-120.1-101.4-193.7,0-157.7,114.9-302.6,330.3-302.6s307.8,123.9,307.8,288.3-108.9,310.8-259,310.8-98.3-26.3-114.9-57.1c0,0-24.8,95.3-30.8,118.6-11.3,43.5-42,97.6-62.3,131.4,46.5,14.3,96.1,22.5,147.9,22.5,276.3,0,500-223.7,500-500S876.2,100.3,599.9,100.3h0Z"/>
  </g>
</svg>