<?xml version="1.0" encoding="UTF-8"?>
<svg id="Calque_1" xmlns="http://www.w3.org/2000/svg" version="1.1" viewBox="0 0 1200 1200">
  <!-- Generator: Adobe Illustrator 29.2.1, SVG Export Plug-In . SVG Version: 2.1.0 Build 116)  -->
  <defs>
    <style>
      .st0 {
        fill: #fff;
      }

      .st1 {
        fill: #f03;
      }
    </style>
  </defs>
  <path class="st1" d="M599.5,944.8s313.3,0,391-20.7c43.8-11.7,76.7-45.5,88.2-87.2,21.4-76.5,21.4-237.6,21.4-237.6,0,0,0-160-21.4-235.9-11.5-42.8-44.4-75.9-88.2-87.2-77.7-21-391-21-391-21,0,0-312.6,0-389.9,21-43.1,11.4-76.7,44.5-88.9,87.2-20.7,75.9-20.7,235.9-20.7,235.9,0,0,0,161,20.7,237.6,12.2,41.7,45.9,75.5,88.9,87.2,77.4,20.7,389.9,20.7,389.9,20.7h0Z"/>
  <path class="st0" d="M755.2,600l-258.6-146.6v293.1l258.6-146.6Z"/>
</svg>